<svg width="33" height="33" viewBox="0 0 33 33" fill="none" xmlns="http://www.w3.org/2000/svg">
<path d="M2.06662 9.59372C2.11897 8.39921 2.63034 7.271 3.49413 6.44429C4.35792 5.61758 5.50747 5.15617 6.70312 5.15625H26.2969C27.4925 5.15617 28.6421 5.61758 29.5059 6.44429C30.3697 7.271 30.881 8.39921 30.9334 9.59372L29.4113 10.4393L16.5 17.391L3.58875 10.4393L2.06662 9.59372ZM2.0625 11.9501V23.2031C2.0625 24.4339 2.55142 25.6143 3.42171 26.4845C4.29199 27.3548 5.47235 27.8438 6.70312 27.8438H26.2969C27.5276 27.8438 28.708 27.3548 29.5783 26.4845C30.4486 25.6143 30.9375 24.4339 30.9375 23.2031V11.9501L30.3951 12.2523L16.9888 19.471C16.8386 19.5519 16.6706 19.5942 16.5 19.5942C16.3294 19.5942 16.1614 19.5519 16.0112 19.471L2.59256 12.2451L2.0625 11.9501Z" fill="white"/>
</svg>
