<svg width="33" height="32" viewBox="0 0 33 32" fill="none" xmlns="http://www.w3.org/2000/svg">
<path d="M29.8908 21.885C29.6609 23.5788 28.8031 25.1335 27.4775 26.2588C26.152 27.3841 24.4493 28.0031 22.6875 28C12.4524 28 4.12501 19.925 4.12501 9.99999C4.12185 8.2916 4.76012 6.64052 5.92059 5.35511C7.08106 4.0697 8.68439 3.23787 10.4311 3.01499C10.8728 2.96269 11.3201 3.05032 11.7062 3.26479C12.0924 3.47926 12.3966 3.80907 12.5735 4.20499L15.296 10.0987V10.1137C15.4315 10.4168 15.4874 10.7477 15.4589 11.0768C15.4303 11.406 15.3181 11.7231 15.1323 12C15.1091 12.0337 15.0846 12.065 15.0588 12.0962L12.375 15.1812C13.3405 17.0837 15.3927 19.0562 17.3804 19.995L20.518 17.4062C20.5488 17.3811 20.5811 17.3578 20.6147 17.3362C20.9 17.1517 21.2282 17.0391 21.5696 17.0086C21.911 16.978 22.2549 17.0305 22.5702 17.1612L22.587 17.1687L28.6597 19.8075C29.0688 19.9785 29.4097 20.2732 29.6316 20.6477C29.8535 21.0222 29.9444 21.4562 29.8908 21.885Z" fill="white"/>
</svg>
