<svg width="25" height="24" viewBox="0 0 25 24" fill="none" xmlns="http://www.w3.org/2000/svg">
<path d="M16.2527 10.657L12.3027 6.70704C12.1206 6.51844 12.0198 6.26584 12.0221 6.00364C12.0244 5.74144 12.1295 5.49063 12.3149 5.30522C12.5003 5.11981 12.7512 5.01465 13.0133 5.01237C13.2755 5.01009 13.5281 5.11088 13.7167 5.29304L19.3737 10.95C19.4669 11.0427 19.5409 11.1529 19.5913 11.2742C19.6418 11.3955 19.6678 11.5256 19.6678 11.657C19.6678 11.7884 19.6418 11.9186 19.5913 12.0399C19.5409 12.1612 19.4669 12.2714 19.3737 12.364L13.7167 18.021C13.6245 18.1166 13.5142 18.1927 13.3922 18.2451C13.2701 18.2976 13.1389 18.3251 13.0061 18.3263C12.8734 18.3274 12.7417 18.3021 12.6188 18.2519C12.4959 18.2016 12.3842 18.1273 12.2904 18.0334C12.1965 17.9395 12.1222 17.8279 12.0719 17.705C12.0216 17.5821 11.9963 17.4504 11.9975 17.3176C11.9987 17.1849 12.0262 17.0536 12.0786 16.9316C12.1311 16.8096 12.2072 16.6993 12.3027 16.607L16.2527 12.657H6.66675C6.40153 12.657 6.14718 12.5517 5.95964 12.3641C5.7721 12.1766 5.66675 11.9223 5.66675 11.657C5.66675 11.3918 5.7721 11.1375 5.95964 10.9499C6.14718 10.7624 6.40153 10.657 6.66675 10.657H16.2527Z" fill="#007931"/>
</svg>
