<svg width="146" height="49" viewBox="0 0 146 49" fill="none" xmlns="http://www.w3.org/2000/svg">
<path d="M0 1.76014H13.9534C17.1852 1.76014 20.0518 2.36083 22.553 3.5622C25.0542 4.76357 26.9933 6.46783 28.3704 8.675C29.7475 10.8822 30.436 13.4665 30.436 16.428C30.436 19.3895 29.7475 21.9739 28.3704 24.181C26.9933 26.3882 25.0542 28.0925 22.553 29.2938C20.0518 30.4952 17.1852 31.0959 13.9534 31.0959H0V1.76014ZM13.6161 24.4744C16.1454 24.4744 18.1689 23.7619 19.6865 22.3371C21.2321 20.9122 22.005 18.9425 22.005 16.428C22.005 13.9135 21.2321 11.9438 19.6865 10.519C18.1689 9.09408 16.1454 8.38164 13.6161 8.38164H8.34672V24.4744H13.6161Z" fill="black" fill-opacity="0.3"/>
<path d="M44.1858 8.00447C47.9798 8.00447 50.8745 8.87057 52.8698 10.6028C54.8651 12.307 55.8628 14.9333 55.8628 18.4815V31.0959H48.4014V28.1623C47.2491 30.3695 45.0008 31.4731 41.6565 31.4731C39.886 31.4731 38.3544 31.1657 37.0616 30.5511C35.7689 29.9364 34.7852 29.1122 34.1108 28.0785C33.4644 27.0168 33.1412 25.8154 33.1412 24.4744C33.1412 22.3231 33.9702 20.6607 35.6283 19.4873C37.2864 18.2859 39.8439 17.6853 43.3006 17.6853H47.8533C47.7128 15.2825 46.0969 14.0812 43.0055 14.0812C41.9095 14.0812 40.7994 14.2628 39.6752 14.626C38.5511 14.9612 37.5956 15.4362 36.8087 16.0508L34.1108 10.6447C35.3754 9.80652 36.907 9.16393 38.7057 8.7169C40.5324 8.24195 42.3591 8.00447 44.1858 8.00447ZM43.8908 26.4441C44.8182 26.4441 45.6332 26.2206 46.3358 25.7735C47.0383 25.3265 47.5442 24.67 47.8533 23.8039V21.8342H44.3966C42.064 21.8342 40.8977 22.6025 40.8977 24.1391C40.8977 24.8376 41.1647 25.3964 41.6987 25.8154C42.2326 26.2345 42.9633 26.4441 43.8908 26.4441Z" fill="black" fill-opacity="0.3"/>
<path d="M71.2886 23.1333L68.9279 25.5221V31.0959H60.9185V0H68.9279V16.3023L77.106 8.38164H86.5909L77.106 18.1043L87.3919 31.0959H77.6962L71.2886 23.1333Z" fill="black" fill-opacity="0.3"/>
<path d="M112.143 19.7807C112.143 19.8365 112.1 20.4931 112.016 21.7504H95.407C95.7442 22.9238 96.3906 23.8318 97.3461 24.4744C98.3297 25.089 99.5522 25.3964 101.014 25.3964C102.11 25.3964 103.051 25.2427 103.838 24.9354C104.653 24.628 105.468 24.1251 106.283 23.4267L110.499 27.7851C108.278 30.2437 105.032 31.4731 100.761 31.4731C98.0908 31.4731 95.7442 30.9702 93.7208 29.9644C91.6973 28.9586 90.1235 27.5616 88.9994 25.7735C87.9034 23.9855 87.3553 21.9599 87.3553 19.6969C87.3553 17.4617 87.8893 15.4641 88.9572 13.704C90.0533 11.9159 91.5568 10.519 93.4678 9.51316C95.3789 8.50736 97.5288 8.00447 99.9176 8.00447C102.194 8.00447 104.26 8.47943 106.114 9.42934C107.969 10.3513 109.431 11.7064 110.499 13.4944C111.595 15.2546 112.143 17.35 112.143 19.7807ZM99.9597 13.6621C98.7232 13.6621 97.6833 14.0113 96.8402 14.7098C96.0252 15.4082 95.5053 16.3582 95.2805 17.5595H104.639C104.414 16.3582 103.88 15.4082 103.037 14.7098C102.222 14.0113 101.196 13.6621 99.9597 13.6621Z" fill="black" fill-opacity="0.3"/>
<path d="M123.465 11.1057C124.281 10.0719 125.334 9.30362 126.627 8.80072C127.948 8.26989 129.452 8.00447 131.138 8.00447V15.1708C130.407 15.087 129.803 15.045 129.325 15.045C127.611 15.045 126.262 15.506 125.278 16.428C124.323 17.35 123.845 18.7609 123.845 20.6607V31.0959H115.835V8.38164H123.465V11.1057Z" fill="black" fill-opacity="0.3"/>
<rect x="136.82" y="20.9821" width="9.17964" height="8.74251" fill="#1F9D96"/>
<path d="M3.377 44.1618C2.805 44.1618 2.255 44.0702 1.727 43.8868C1.20633 43.6962 0.803 43.4542 0.517 43.1608L0.836 42.5338C1.10733 42.7978 1.47033 43.0215 1.925 43.2048C2.387 43.3808 2.871 43.4688 3.377 43.4688C3.861 43.4688 4.25333 43.4102 4.554 43.2928C4.862 43.1682 5.08567 43.0032 5.225 42.7978C5.37167 42.5925 5.445 42.3652 5.445 42.1158C5.445 41.8152 5.357 41.5732 5.181 41.3898C5.01233 41.2065 4.78867 41.0635 4.51 40.9608C4.23133 40.8508 3.92333 40.7555 3.586 40.6748C3.24867 40.5942 2.91133 40.5098 2.574 40.4218C2.23667 40.3265 1.925 40.2018 1.639 40.0478C1.36033 39.8938 1.133 39.6922 0.957 39.4428C0.788333 39.1862 0.704 38.8525 0.704 38.4418C0.704 38.0605 0.803 37.7122 1.001 37.3968C1.20633 37.0742 1.518 36.8175 1.936 36.6268C2.354 36.4288 2.88933 36.3298 3.542 36.3298C3.97467 36.3298 4.40367 36.3922 4.829 36.5168C5.25433 36.6342 5.621 36.7992 5.929 37.0118L5.654 37.6608C5.324 37.4408 4.972 37.2795 4.598 37.1768C4.23133 37.0742 3.87567 37.0228 3.531 37.0228C3.069 37.0228 2.68767 37.0852 2.387 37.2098C2.08633 37.3345 1.86267 37.5032 1.716 37.7158C1.57667 37.9212 1.507 38.1558 1.507 38.4198C1.507 38.7205 1.59133 38.9625 1.76 39.1458C1.936 39.3292 2.16333 39.4722 2.442 39.5748C2.728 39.6775 3.03967 39.7692 3.377 39.8498C3.71433 39.9305 4.048 40.0185 4.378 40.1138C4.71533 40.2092 5.02333 40.3338 5.302 40.4878C5.588 40.6345 5.81533 40.8325 5.984 41.0818C6.16 41.3312 6.248 41.6575 6.248 42.0608C6.248 42.4348 6.14533 42.7832 5.94 43.1058C5.73467 43.4212 5.41933 43.6778 4.994 43.8758C4.576 44.0665 4.037 44.1618 3.377 44.1618ZM10.2106 44.1508C9.65325 44.1508 9.15091 44.0262 8.70358 43.7768C8.26358 43.5202 7.91524 43.1718 7.65858 42.7318C7.40191 42.2845 7.27358 41.7748 7.27358 41.2028C7.27358 40.6235 7.40191 40.1138 7.65858 39.6738C7.91524 39.2338 8.26358 38.8892 8.70358 38.6398C9.14358 38.3905 9.64591 38.2658 10.2106 38.2658C10.7826 38.2658 11.2886 38.3905 11.7286 38.6398C12.1759 38.8892 12.5242 39.2338 12.7736 39.6738C13.0302 40.1138 13.1586 40.6235 13.1586 41.2028C13.1586 41.7748 13.0302 42.2845 12.7736 42.7318C12.5242 43.1718 12.1759 43.5202 11.7286 43.7768C11.2812 44.0262 10.7752 44.1508 10.2106 44.1508ZM10.2106 43.4578C10.6286 43.4578 10.9989 43.3662 11.3216 43.1828C11.6442 42.9922 11.8972 42.7282 12.0806 42.3908C12.2712 42.0462 12.3666 41.6502 12.3666 41.2028C12.3666 40.7482 12.2712 40.3522 12.0806 40.0148C11.8972 39.6775 11.6442 39.4172 11.3216 39.2338C10.9989 39.0432 10.6322 38.9478 10.2216 38.9478C9.81091 38.9478 9.44424 39.0432 9.12158 39.2338C8.79891 39.4172 8.54224 39.6775 8.35158 40.0148C8.16091 40.3522 8.06558 40.7482 8.06558 41.2028C8.06558 41.6502 8.16091 42.0462 8.35158 42.3908C8.54224 42.7282 8.79891 42.9922 9.12158 43.1828C9.44424 43.3662 9.80724 43.4578 10.2106 43.4578ZM14.8851 44.0958V37.5948C14.8851 37.0815 15.0354 36.6672 15.3361 36.3518C15.6367 36.0365 16.0694 35.8788 16.6341 35.8788C16.8541 35.8788 17.0667 35.9082 17.2721 35.9668C17.4774 36.0255 17.6497 36.1172 17.7891 36.2418L17.5251 36.8248C17.4151 36.7295 17.2867 36.6598 17.1401 36.6158C16.9934 36.5645 16.8357 36.5388 16.6671 36.5388C16.3371 36.5388 16.0841 36.6305 15.9081 36.8138C15.7321 36.9972 15.6441 37.2685 15.6441 37.6278V38.5078L15.6661 38.8708V44.0958H14.8851ZM13.8511 38.9698V38.3208H17.4261V38.9698H13.8511ZM20.3066 44.1508C19.7639 44.1508 19.3459 44.0042 19.0526 43.7108C18.7593 43.4175 18.6126 43.0032 18.6126 42.4678V37.0448H19.3936V42.4238C19.3936 42.7612 19.4779 43.0215 19.6466 43.2048C19.8226 43.3882 20.0719 43.4798 20.3946 43.4798C20.7393 43.4798 21.0253 43.3808 21.2526 43.1828L21.5276 43.7438C21.3736 43.8832 21.1866 43.9858 20.9666 44.0518C20.7539 44.1178 20.5339 44.1508 20.3066 44.1508ZM17.5786 38.9698V38.3208H21.1536V38.9698H17.5786ZM24.0189 44.0958L21.8409 38.3208H22.5889L24.5689 43.6778H24.2279L26.2629 38.3208H26.9339L28.9469 43.6778H28.6059L30.6189 38.3208H31.3339L29.1449 44.0958H28.4079L26.4719 39.0578H26.7029L24.7559 44.0958H24.0189ZM35.957 44.0958V42.8198L35.924 42.6108V40.4768C35.924 39.9855 35.7847 39.6078 35.506 39.3438C35.2347 39.0798 34.8277 38.9478 34.285 38.9478C33.911 38.9478 33.5554 39.0102 33.218 39.1348C32.8807 39.2595 32.5947 39.4245 32.36 39.6298L32.008 39.0468C32.3014 38.7975 32.6534 38.6068 33.064 38.4748C33.4747 38.3355 33.9074 38.2658 34.362 38.2658C35.11 38.2658 35.6857 38.4528 36.089 38.8268C36.4997 39.1935 36.705 39.7545 36.705 40.5098V44.0958H35.957ZM33.966 44.1508C33.5334 44.1508 33.1557 44.0812 32.833 43.9418C32.5177 43.7952 32.2757 43.5972 32.107 43.3478C31.9384 43.0912 31.854 42.7978 31.854 42.4678C31.854 42.1672 31.9237 41.8958 32.063 41.6538C32.2097 41.4045 32.4444 41.2065 32.767 41.0598C33.097 40.9058 33.537 40.8288 34.087 40.8288H36.078V41.4118H34.109C33.5517 41.4118 33.163 41.5108 32.943 41.7088C32.7304 41.9068 32.624 42.1525 32.624 42.4458C32.624 42.7758 32.7524 43.0398 33.009 43.2378C33.2657 43.4358 33.625 43.5348 34.087 43.5348C34.527 43.5348 34.9047 43.4358 35.22 43.2378C35.5427 43.0325 35.7774 42.7392 35.924 42.3578L36.1 42.8968C35.9534 43.2782 35.6967 43.5825 35.33 43.8098C34.9707 44.0372 34.516 44.1508 33.966 44.1508ZM38.8263 44.0958V38.3208H39.5743V39.8938L39.4973 39.6188C39.6586 39.1788 39.93 38.8452 40.3113 38.6178C40.6926 38.3832 41.1656 38.2658 41.7303 38.2658V39.0248C41.701 39.0248 41.6716 39.0248 41.6423 39.0248C41.613 39.0175 41.5836 39.0138 41.5543 39.0138C40.9456 39.0138 40.469 39.2008 40.1243 39.5748C39.7796 39.9415 39.6073 40.4658 39.6073 41.1478V44.0958H38.8263ZM45.5547 44.1508C44.9534 44.1508 44.4254 44.0262 43.9707 43.7768C43.516 43.5202 43.1604 43.1718 42.9037 42.7318C42.647 42.2845 42.5187 41.7748 42.5187 41.2028C42.5187 40.6308 42.6397 40.1248 42.8817 39.6848C43.131 39.2448 43.4684 38.9002 43.8937 38.6508C44.3264 38.3942 44.8104 38.2658 45.3457 38.2658C45.8884 38.2658 46.3687 38.3905 46.7867 38.6398C47.212 38.8818 47.5457 39.2265 47.7877 39.6738C48.0297 40.1138 48.1507 40.6235 48.1507 41.2028C48.1507 41.2395 48.147 41.2798 48.1397 41.3238C48.1397 41.3605 48.1397 41.4008 48.1397 41.4448H43.1127V40.8618H47.7217L47.4137 41.0928C47.4137 40.6748 47.322 40.3045 47.1387 39.9818C46.9627 39.6518 46.7207 39.3952 46.4127 39.2118C46.1047 39.0285 45.749 38.9368 45.3457 38.9368C44.9497 38.9368 44.594 39.0285 44.2787 39.2118C43.9634 39.3952 43.7177 39.6518 43.5417 39.9818C43.3657 40.3118 43.2777 40.6895 43.2777 41.1148V41.2358C43.2777 41.6758 43.373 42.0645 43.5637 42.4018C43.7617 42.7318 44.033 42.9922 44.3777 43.1828C44.7297 43.3662 45.1294 43.4578 45.5767 43.4578C45.9287 43.4578 46.255 43.3955 46.5557 43.2708C46.8637 43.1462 47.1277 42.9555 47.3477 42.6988L47.7877 43.2048C47.531 43.5128 47.2084 43.7475 46.8197 43.9088C46.4384 44.0702 46.0167 44.1508 45.5547 44.1508ZM52.7843 44.0958V36.3958H55.9193C56.7406 36.3958 57.4593 36.5608 58.0753 36.8908C58.6986 37.2135 59.1826 37.6645 59.5273 38.2438C59.8719 38.8232 60.0443 39.4905 60.0443 40.2458C60.0443 41.0012 59.8719 41.6685 59.5273 42.2478C59.1826 42.8272 58.6986 43.2818 58.0753 43.6118C57.4593 43.9345 56.7406 44.0958 55.9193 44.0958H52.7843ZM53.5983 43.3918H55.8753C56.5573 43.3918 57.1476 43.2598 57.6463 42.9958C58.1523 42.7245 58.5446 42.3542 58.8233 41.8848C59.1019 41.4082 59.2413 40.8618 59.2413 40.2458C59.2413 39.6225 59.1019 39.0762 58.8233 38.6068C58.5446 38.1375 58.1523 37.7708 57.6463 37.5068C57.1476 37.2355 56.5573 37.0998 55.8753 37.0998H53.5983V43.3918ZM61.7072 44.0958V38.3208H62.4882V44.0958H61.7072ZM62.1032 37.0448C61.9418 37.0448 61.8062 36.9898 61.6962 36.8798C61.5862 36.7698 61.5312 36.6378 61.5312 36.4838C61.5312 36.3298 61.5862 36.2015 61.6962 36.0988C61.8062 35.9888 61.9418 35.9338 62.1032 35.9338C62.2645 35.9338 62.4002 35.9852 62.5102 36.0878C62.6202 36.1905 62.6752 36.3188 62.6752 36.4728C62.6752 36.6342 62.6202 36.7698 62.5102 36.8798C62.4075 36.9898 62.2718 37.0448 62.1032 37.0448ZM67.1253 46.2848C66.5973 46.2848 66.0913 46.2078 65.6073 46.0538C65.1233 45.8998 64.7309 45.6798 64.4303 45.3938L64.8263 44.7998C65.0976 45.0418 65.4313 45.2325 65.8273 45.3718C66.2306 45.5185 66.6559 45.5918 67.1033 45.5918C67.8366 45.5918 68.3756 45.4195 68.7203 45.0748C69.0649 44.7375 69.2373 44.2095 69.2373 43.4908V42.0498L69.3473 41.0598L69.2703 40.0698V38.3208H70.0183V43.3918C70.0183 44.3892 69.7726 45.1188 69.2813 45.5808C68.7973 46.0502 68.0786 46.2848 67.1253 46.2848ZM66.9823 43.8758C66.4323 43.8758 65.9373 43.7585 65.4973 43.5238C65.0573 43.2818 64.7089 42.9482 64.4523 42.5228C64.2029 42.0975 64.0783 41.6098 64.0783 41.0598C64.0783 40.5098 64.2029 40.0258 64.4523 39.6078C64.7089 39.1825 65.0573 38.8525 65.4973 38.6178C65.9373 38.3832 66.4323 38.2658 66.9823 38.2658C67.4956 38.2658 67.9576 38.3722 68.3683 38.5848C68.7789 38.7975 69.1053 39.1128 69.3473 39.5308C69.5893 39.9488 69.7103 40.4585 69.7103 41.0598C69.7103 41.6612 69.5893 42.1708 69.3473 42.5888C69.1053 43.0068 68.7789 43.3258 68.3683 43.5458C67.9576 43.7658 67.4956 43.8758 66.9823 43.8758ZM67.0593 43.1828C67.4846 43.1828 67.8623 43.0948 68.1923 42.9188C68.5223 42.7355 68.7826 42.4862 68.9733 42.1708C69.1639 41.8482 69.2593 41.4778 69.2593 41.0598C69.2593 40.6418 69.1639 40.2752 68.9733 39.9598C68.7826 39.6445 68.5223 39.3988 68.1923 39.2228C67.8623 39.0395 67.4846 38.9478 67.0593 38.9478C66.6413 38.9478 66.2636 39.0395 65.9263 39.2228C65.5963 39.3988 65.3359 39.6445 65.1453 39.9598C64.9619 40.2752 64.8703 40.6418 64.8703 41.0598C64.8703 41.4778 64.9619 41.8482 65.1453 42.1708C65.3359 42.4862 65.5963 42.7355 65.9263 42.9188C66.2636 43.0948 66.6413 43.1828 67.0593 43.1828ZM72.1915 44.0958V38.3208H72.9725V44.0958H72.1915ZM72.5875 37.0448C72.4262 37.0448 72.2905 36.9898 72.1805 36.8798C72.0705 36.7698 72.0155 36.6378 72.0155 36.4838C72.0155 36.3298 72.0705 36.2015 72.1805 36.0988C72.2905 35.9888 72.4262 35.9338 72.5875 35.9338C72.7489 35.9338 72.8845 35.9852 72.9945 36.0878C73.1045 36.1905 73.1595 36.3188 73.1595 36.4728C73.1595 36.6342 73.1045 36.7698 72.9945 36.8798C72.8919 36.9898 72.7562 37.0448 72.5875 37.0448ZM76.9716 44.1508C76.429 44.1508 76.011 44.0042 75.7176 43.7108C75.4243 43.4175 75.2776 43.0032 75.2776 42.4678V37.0448H76.0586V42.4238C76.0586 42.7612 76.143 43.0215 76.3116 43.2048C76.4876 43.3882 76.737 43.4798 77.0596 43.4798C77.4043 43.4798 77.6903 43.3808 77.9176 43.1828L78.1926 43.7438C78.0386 43.8832 77.8516 43.9858 77.6316 44.0518C77.419 44.1178 77.199 44.1508 76.9716 44.1508ZM74.2436 38.9698V38.3208H77.8186V38.9698H74.2436ZM83.2334 44.0958V42.8198L83.2004 42.6108V40.4768C83.2004 39.9855 83.0611 39.6078 82.7824 39.3438C82.5111 39.0798 82.1041 38.9478 81.5614 38.9478C81.1874 38.9478 80.8317 39.0102 80.4944 39.1348C80.1571 39.2595 79.8711 39.4245 79.6364 39.6298L79.2844 39.0468C79.5777 38.7975 79.9297 38.6068 80.3404 38.4748C80.7511 38.3355 81.1837 38.2658 81.6384 38.2658C82.3864 38.2658 82.9621 38.4528 83.3654 38.8268C83.7761 39.1935 83.9814 39.7545 83.9814 40.5098V44.0958H83.2334ZM81.2424 44.1508C80.8097 44.1508 80.4321 44.0812 80.1094 43.9418C79.7941 43.7952 79.5521 43.5972 79.3834 43.3478C79.2147 43.0912 79.1304 42.7978 79.1304 42.4678C79.1304 42.1672 79.2001 41.8958 79.3394 41.6538C79.4861 41.4045 79.7207 41.2065 80.0434 41.0598C80.3734 40.9058 80.8134 40.8288 81.3634 40.8288H83.3544V41.4118H81.3854C80.8281 41.4118 80.4394 41.5108 80.2194 41.7088C80.0067 41.9068 79.9004 42.1525 79.9004 42.4458C79.9004 42.7758 80.0287 43.0398 80.2854 43.2378C80.5421 43.4358 80.9014 43.5348 81.3634 43.5348C81.8034 43.5348 82.1811 43.4358 82.4964 43.2378C82.8191 43.0325 83.0537 42.7392 83.2004 42.3578L83.3764 42.8968C83.2297 43.2782 82.9731 43.5825 82.6064 43.8098C82.2471 44.0372 81.7924 44.1508 81.2424 44.1508ZM86.1027 44.0958V35.9338H86.8837V44.0958H86.1027ZM94.2237 44.1618C93.6517 44.1618 93.1017 44.0702 92.5737 43.8868C92.053 43.6962 91.6497 43.4542 91.3637 43.1608L91.6827 42.5338C91.954 42.7978 92.317 43.0215 92.7717 43.2048C93.2337 43.3808 93.7177 43.4688 94.2237 43.4688C94.7077 43.4688 95.1 43.4102 95.4007 43.2928C95.7087 43.1682 95.9323 43.0032 96.0717 42.7978C96.2183 42.5925 96.2917 42.3652 96.2917 42.1158C96.2917 41.8152 96.2037 41.5732 96.0277 41.3898C95.859 41.2065 95.6353 41.0635 95.3567 40.9608C95.078 40.8508 94.77 40.7555 94.4327 40.6748C94.0953 40.5942 93.758 40.5098 93.4207 40.4218C93.0833 40.3265 92.7717 40.2018 92.4857 40.0478C92.207 39.8938 91.9797 39.6922 91.8037 39.4428C91.635 39.1862 91.5507 38.8525 91.5507 38.4418C91.5507 38.0605 91.6497 37.7122 91.8477 37.3968C92.053 37.0742 92.3647 36.8175 92.7827 36.6268C93.2007 36.4288 93.736 36.3298 94.3887 36.3298C94.8213 36.3298 95.2503 36.3922 95.6757 36.5168C96.101 36.6342 96.4677 36.7992 96.7757 37.0118L96.5007 37.6608C96.1707 37.4408 95.8187 37.2795 95.4447 37.1768C95.078 37.0742 94.7223 37.0228 94.3777 37.0228C93.9157 37.0228 93.5343 37.0852 93.2337 37.2098C92.933 37.3345 92.7093 37.5032 92.5627 37.7158C92.4233 37.9212 92.3537 38.1558 92.3537 38.4198C92.3537 38.7205 92.438 38.9625 92.6067 39.1458C92.7827 39.3292 93.01 39.4722 93.2887 39.5748C93.5747 39.6775 93.8863 39.7692 94.2237 39.8498C94.561 39.9305 94.8947 40.0185 95.2247 40.1138C95.562 40.2092 95.87 40.3338 96.1487 40.4878C96.4347 40.6345 96.662 40.8325 96.8307 41.0818C97.0067 41.3312 97.0947 41.6575 97.0947 42.0608C97.0947 42.4348 96.992 42.7832 96.7867 43.1058C96.5813 43.4212 96.266 43.6778 95.8407 43.8758C95.4227 44.0665 94.8837 44.1618 94.2237 44.1618ZM100.529 44.1508C99.9866 44.1508 99.5686 44.0042 99.2753 43.7108C98.9819 43.4175 98.8353 43.0032 98.8353 42.4678V37.0448H99.6163V42.4238C99.6163 42.7612 99.7006 43.0215 99.8693 43.2048C100.045 43.3882 100.295 43.4798 100.617 43.4798C100.962 43.4798 101.248 43.3808 101.475 43.1828L101.75 43.7438C101.596 43.8832 101.409 43.9858 101.189 44.0518C100.977 44.1178 100.757 44.1508 100.529 44.1508ZM97.8013 38.9698V38.3208H101.376V38.9698H97.8013ZM105.559 44.1508C105.068 44.1508 104.639 44.0592 104.272 43.8758C103.905 43.6925 103.619 43.4175 103.414 43.0508C103.216 42.6842 103.117 42.2258 103.117 41.6758V38.3208H103.898V41.5878C103.898 42.2038 104.048 42.6695 104.349 42.9848C104.657 43.2928 105.086 43.4468 105.636 43.4468C106.039 43.4468 106.388 43.3662 106.681 43.2048C106.982 43.0362 107.209 42.7942 107.363 42.4788C107.524 42.1635 107.605 41.7858 107.605 41.3458V38.3208H108.386V44.0958H107.638V42.5118L107.759 42.7978C107.576 43.2232 107.29 43.5568 106.901 43.7988C106.52 44.0335 106.072 44.1508 105.559 44.1508ZM112.862 44.1508C112.312 44.1508 111.817 44.0262 111.377 43.7768C110.944 43.5275 110.603 43.1828 110.354 42.7428C110.104 42.2955 109.98 41.7822 109.98 41.2028C109.98 40.6162 110.104 40.1028 110.354 39.6628C110.603 39.2228 110.944 38.8818 111.377 38.6398C111.817 38.3905 112.312 38.2658 112.862 38.2658C113.368 38.2658 113.819 38.3795 114.215 38.6068C114.618 38.8342 114.937 39.1678 115.172 39.6078C115.414 40.0405 115.535 40.5722 115.535 41.2028C115.535 41.8262 115.417 42.3578 115.183 42.7978C114.948 43.2378 114.629 43.5752 114.226 43.8098C113.83 44.0372 113.375 44.1508 112.862 44.1508ZM112.917 43.4578C113.327 43.4578 113.694 43.3662 114.017 43.1828C114.347 42.9922 114.603 42.7282 114.787 42.3908C114.977 42.0462 115.073 41.6502 115.073 41.2028C115.073 40.7482 114.977 40.3522 114.787 40.0148C114.603 39.6775 114.347 39.4172 114.017 39.2338C113.694 39.0432 113.327 38.9478 112.917 38.9478C112.513 38.9478 112.15 39.0432 111.828 39.2338C111.505 39.4172 111.248 39.6775 111.058 40.0148C110.867 40.3522 110.772 40.7482 110.772 41.2028C110.772 41.6502 110.867 42.0462 111.058 42.3908C111.248 42.7282 111.505 42.9922 111.828 43.1828C112.15 43.3662 112.513 43.4578 112.917 43.4578ZM115.095 44.0958V42.3578L115.172 41.1918L115.062 40.0258V35.9338H115.843V44.0958H115.095ZM118.018 44.0958V38.3208H118.799V44.0958H118.018ZM118.414 37.0448C118.252 37.0448 118.117 36.9898 118.007 36.8798C117.897 36.7698 117.842 36.6378 117.842 36.4838C117.842 36.3298 117.897 36.2015 118.007 36.0988C118.117 35.9888 118.252 35.9338 118.414 35.9338C118.575 35.9338 118.711 35.9852 118.821 36.0878C118.931 36.1905 118.986 36.3188 118.986 36.4728C118.986 36.6342 118.931 36.7698 118.821 36.8798C118.718 36.9898 118.582 37.0448 118.414 37.0448ZM123.326 44.1508C122.768 44.1508 122.266 44.0262 121.819 43.7768C121.379 43.5202 121.03 43.1718 120.774 42.7318C120.517 42.2845 120.389 41.7748 120.389 41.2028C120.389 40.6235 120.517 40.1138 120.774 39.6738C121.03 39.2338 121.379 38.8892 121.819 38.6398C122.259 38.3905 122.761 38.2658 123.326 38.2658C123.898 38.2658 124.404 38.3905 124.844 38.6398C125.291 38.8892 125.639 39.2338 125.889 39.6738C126.145 40.1138 126.274 40.6235 126.274 41.2028C126.274 41.7748 126.145 42.2845 125.889 42.7318C125.639 43.1718 125.291 43.5202 124.844 43.7768C124.396 44.0262 123.89 44.1508 123.326 44.1508ZM123.326 43.4578C123.744 43.4578 124.114 43.3662 124.437 43.1828C124.759 42.9922 125.012 42.7282 125.196 42.3908C125.386 42.0462 125.482 41.6502 125.482 41.2028C125.482 40.7482 125.386 40.3522 125.196 40.0148C125.012 39.6775 124.759 39.4172 124.437 39.2338C124.114 39.0432 123.747 38.9478 123.337 38.9478C122.926 38.9478 122.559 39.0432 122.237 39.2338C121.914 39.4172 121.657 39.6775 121.467 40.0148C121.276 40.3522 121.181 40.7482 121.181 41.2028C121.181 41.6502 121.276 42.0462 121.467 42.3908C121.657 42.7282 121.914 42.9922 122.237 43.1828C122.559 43.3662 122.922 43.4578 123.326 43.4578Z" fill="black" fill-opacity="0.3"/>
</svg>
