<svg width="57" height="53" viewBox="0 0 57 53" fill="none" xmlns="http://www.w3.org/2000/svg">
<path d="M20.3728 32.2276C18.6776 31.4863 19.5252 30.4271 17.9363 30.4271C16.3475 30.4271 16.9824 29.3668 15.3936 30.2144C13.8047 31.062 13.4867 30.3207 13.4867 29.4731C13.4867 28.6256 13.2751 28.5192 12.3222 28.6256C11.3683 28.7319 10.5703 26.8251 11.7106 26.5071C12.8518 26.1891 13.2751 25.1299 14.7586 25.5532C16.2412 25.9775 16.7708 24.3886 17.7247 22.7998C18.6776 21.2109 18.7839 20.4687 20.0548 20.4687C21.3257 20.4687 20.2664 16.3371 18.6776 17.5026C17.0887 18.6682 16.2412 17.5026 15.6062 19.9391C14.9703 22.3755 14.0164 18.8798 14.228 17.3973C14.4407 15.9138 14.6523 14.4303 16.5591 15.0662C16.5591 15.0662 18.0427 13.1594 16.5591 12.9477C15.0756 12.7361 13.2751 13.371 12.4275 12.4181C11.6589 11.5533 11.4949 10.6035 9.97184 10.2764C8.41135 12.1741 7.12023 14.3016 6.15416 16.5993C6.29188 17.1198 6.3496 17.7254 6.28378 18.3502C6.07213 20.3623 5.01189 23.9643 6.28378 24.7066C7.55465 25.4479 6.81339 26.9304 8.08427 27.9906C9.35615 29.0488 9.99109 29.1552 11.3683 29.5795C12.7455 30.0028 13.6994 30.745 13.8047 31.062C13.91 31.38 16.1348 31.38 15.0756 32.6508C14.0174 33.9227 14.6523 35.5116 15.8179 36.8888C16.9824 38.266 15.4999 46.8461 17.9363 46.7398C20.3728 46.6345 17.512 45.0446 19.2072 41.6553C20.9024 38.266 23.2335 38.266 23.0208 35.8285C22.8092 33.3921 22.0679 32.9688 20.3728 32.2276Z" fill="#007931"/>
<path d="M3.69739 29.7283C3.69739 29.7283 -8.96274 12.6024 12.5702 5.10474C12.5702 5.10474 23.4795 25.778 3.69739 29.7283Z" fill="#7CB040"/>
<path d="M49.4478 9.1888C49.2878 9.23539 49.0883 9.28501 48.8342 9.33665C46.8818 9.73462 47.0985 7.203 45.1461 9.33665C43.1927 11.4693 44.9294 12.6632 43.1927 12.8799C41.457 13.0966 41.0226 14.2905 39.7213 14.2905C38.4191 14.2905 38.6368 16.6784 37.6596 15.9179C36.6834 15.1584 38.093 13.8571 36.1406 14.5082C34.1872 15.1584 33.6454 14.2632 32.7766 16.0677C31.9098 17.8713 32.9943 19.933 34.6216 18.414C36.249 16.8951 36.3583 18.8474 35.7072 19.4986C35.0561 20.1497 32.886 18.7391 31.0409 20.0414C29.1969 21.3436 28.5457 22.5365 29.5219 23.296C30.4981 24.0555 31.4743 25.14 32.6692 23.296C33.8621 21.452 33.9705 23.0793 34.4049 23.6221C34.8383 24.1639 37.9857 23.7304 37.9857 22.5365C37.9857 21.3436 40.6975 22.8626 39.5036 23.7304C38.3107 24.5983 37.4419 26.0089 35.5978 25.5745C33.7538 25.14 32.4515 24.1639 31.0409 25.14C29.6303 26.1173 27.0268 27.7446 28.1113 30.8909C29.1969 34.0382 33.0692 32.3015 33.3568 32.3015C33.6454 32.3015 33.211 42.2832 36.6834 40.7642C40.1547 39.2452 38.093 37.0751 39.5036 36.2073C40.9152 35.3394 39.0702 33.1693 40.5892 32.6266C42.1081 32.0848 42.5426 30.6742 41.3487 30.4575C40.1547 30.2397 38.8535 28.0686 39.5036 27.9613C40.1547 27.8529 43.6271 29.4792 43.6271 27.9613C43.6271 26.4423 41.5664 26.334 42.2165 25.9005C42.8676 25.4661 46.5567 27.0934 46.2306 28.3957C45.9056 29.698 48.0757 32.1931 48.8342 31.3253C49.5947 30.4575 49.704 26.8767 51.3303 28.8291C52.5536 30.2975 54.8169 31.5187 55.5905 31.3456C55.6392 31.0813 55.6857 30.8159 55.7262 30.5486C55.0832 29.0347 54.3025 28.8048 55.8873 27.9613C55.9257 27.94 55.9581 27.9177 55.9956 27.8965C56.0179 27.4529 56.029 27.0064 56.029 26.5578C56.029 19.8955 53.542 13.8146 49.4478 9.1888Z" fill="#007931"/>
<path d="M4.31812 26.1577C4.31812 26.1577 5.57887 23.1967 10.0679 21.377" stroke="#243D27" stroke-width="2" stroke-miterlimit="10" stroke-linecap="round" stroke-linejoin="round"/>
<path d="M5.04517 19.4135C5.04517 19.4135 6.48516 17.053 10.5256 16.0646" stroke="#243D27" stroke-width="2" stroke-miterlimit="10" stroke-linecap="round" stroke-linejoin="round"/>
<path d="M4.31117 23.0651C4.31117 23.0651 4.58256 20.3137 1.95068 17.0914" stroke="#243D27" stroke-width="2" stroke-miterlimit="10" stroke-linecap="round" stroke-linejoin="round"/>
<path d="M6.17838 15.9917C6.17838 15.9917 6.98648 13.2494 4.99561 10.8312" stroke="#243D27" stroke-width="2" stroke-miterlimit="10" stroke-linecap="round" stroke-linejoin="round"/>
<mask id="mask0_88_869" style="mask-type:luminance" maskUnits="userSpaceOnUse" x="3" y="0" width="54" height="53">
<path d="M3.50098 0H56.4615V53H3.50098V0Z" fill="white"/>
</mask>
<g mask="url(#mask0_88_869)">
<path d="M22.7525 1.54621C25.0644 0.871783 27.5099 0.510265 30.0395 0.510265C44.3797 0.510265 56.0039 12.1345 56.0039 26.4746C56.0039 40.8138 44.3797 52.438 30.0395 52.438C15.7004 52.438 4.07617 40.8138 4.07617 26.4746C4.07617 19.8408 6.56324 13.7892 10.6564 9.19982" stroke="#243D27" stroke-width="2" stroke-miterlimit="10" stroke-linecap="round" stroke-linejoin="round"/>
</g>
</svg>
