<svg width="33" height="33" viewBox="0 0 33 33" fill="none" xmlns="http://www.w3.org/2000/svg">
<path fill-rule="evenodd" clip-rule="evenodd" d="M27.1934 6.09125C27.5332 5.94824 27.9051 5.89891 28.2704 5.94841C28.6357 5.99791 28.9811 6.14442 29.2706 6.37269C29.5601 6.60096 29.7831 6.90265 29.9164 7.24636C30.0497 7.59007 30.0885 7.96323 30.0286 8.327L26.9101 27.2429C26.6076 29.0675 24.6056 30.1139 22.9323 29.205C21.5325 28.4446 19.4535 27.2731 17.5835 26.0507C16.6485 25.4389 13.7844 23.4795 14.1364 22.0852C14.4389 20.8931 19.2514 16.4134 22.0014 13.75C23.0808 12.7036 22.5885 12.1 21.3139 13.0625C18.1473 15.4522 13.0666 19.0864 11.3864 20.1094C9.90414 21.0114 9.13139 21.1654 8.20739 21.0114C6.52164 20.7309 4.95826 20.2964 3.68226 19.767C1.95801 19.052 2.04189 16.6815 3.68089 15.9912L27.1934 6.09125Z" fill="white"/>
</svg>
