<svg width="33" height="32" viewBox="0 0 33 32" fill="none" xmlns="http://www.w3.org/2000/svg">
<path d="M26.1937 6.54667C24.9331 5.3119 23.4316 4.33289 21.7767 3.66673C20.1219 3.00058 18.3468 2.66061 16.555 2.66667C9.04748 2.66667 2.92873 8.6 2.92873 15.88C2.92873 18.2133 3.56123 20.48 4.74373 22.48L2.81873 29.3333L10.0375 27.4933C12.0312 28.5467 14.2725 29.1067 16.555 29.1067C24.0625 29.1067 30.1812 23.1733 30.1812 15.8933C30.1812 12.36 28.765 9.04 26.1937 6.54667ZM16.555 26.8667C14.52 26.8667 12.5262 26.3333 10.78 25.3333L10.3675 25.0933L6.07748 26.1867L7.21873 22.1333L6.94373 21.72C5.81313 19.9693 5.21279 17.9457 5.21123 15.88C5.21123 9.82667 10.2987 4.89333 16.5412 4.89333C19.5662 4.89333 22.4125 6.04 24.5437 8.12C25.599 9.13862 26.4353 10.3502 27.0041 11.6846C27.573 13.0189 27.863 14.4495 27.8575 15.8933C27.885 21.9467 22.7975 26.8667 16.555 26.8667ZM22.77 18.6533C22.4262 18.4933 20.7487 17.6933 20.4462 17.5733C20.13 17.4667 19.91 17.4133 19.6762 17.7333C19.4425 18.0667 18.7962 18.8133 18.6037 19.0267C18.4112 19.2533 18.205 19.28 17.8612 19.1067C17.5175 18.9467 16.4175 18.5867 15.125 17.4667C14.1075 16.5867 13.4337 15.5067 13.2275 15.1733C13.035 14.84 13.2 14.6667 13.3787 14.4933C13.53 14.3467 13.7225 14.1067 13.8875 13.92C14.0525 13.7333 14.1212 13.5867 14.2312 13.3733C14.3412 13.1467 14.2862 12.96 14.2037 12.8C14.1212 12.64 13.4337 11.0133 13.1587 10.3467C12.8837 9.70667 12.595 9.78667 12.3887 9.77333H11.7287C11.495 9.77333 11.1375 9.85333 10.8212 10.1867C10.5187 10.52 9.63873 11.32 9.63873 12.9467C9.63873 14.5733 10.8625 16.1467 11.0275 16.36C11.1925 16.5867 13.4337 19.92 16.8437 21.3467C17.655 21.6933 18.2875 21.8933 18.7825 22.04C19.5937 22.2933 20.3362 22.2533 20.9275 22.1733C21.5875 22.08 22.9487 21.3733 23.2237 20.6C23.5125 19.8267 23.5125 19.1733 23.4162 19.0267C23.32 18.88 23.1137 18.8133 22.77 18.6533Z" fill="white"/>
</svg>
