<svg width="239" height="48" viewBox="0 0 239 48" fill="none" xmlns="http://www.w3.org/2000/svg">
<path d="M18.5105 1.39415V7.20353C15.8267 7.976 13.3594 9.36232 11.3038 11.2528C9.24814 13.1433 7.66057 15.4862 6.66661 18.0961C5.89772 20.1231 5.51116 22.275 5.52652 24.4429C5.55011 28.0023 6.62923 31.4747 8.62728 34.4205C8.68772 34.5108 8.72052 34.6168 8.72168 34.7255V41.3917C8.72136 41.5018 8.68899 41.6093 8.62854 41.7013C8.56808 41.7932 8.48216 41.8656 8.38126 41.9095C8.28036 41.9534 8.16885 41.9669 8.06037 41.9485C7.95189 41.9301 7.85113 41.8804 7.77039 41.8057C5.31559 39.5778 3.35541 36.8598 2.01647 33.8273C0.67753 30.7947 -0.0103964 27.515 -0.00286857 24.2C0.00465928 20.885 0.707474 17.6085 2.06018 14.582C3.41288 11.5556 5.38538 8.84651 7.85027 6.62985C10.9467 4.07713 14.5974 2.28413 18.5105 1.39415V1.39415ZM45.8509 30.7097C44.6773 34.9228 42.309 38.7059 39.0321 41.6023C38.9505 41.6729 38.8504 41.7187 38.7436 41.7343C38.6369 41.7499 38.5279 41.7346 38.4295 41.6904C38.331 41.6462 38.2473 41.5747 38.1881 41.4845C38.1289 41.3943 38.0968 41.289 38.0954 41.1811V33.9194C38.0969 33.8197 38.1244 33.7221 38.1752 33.6362C40.1504 30.383 41.9586 25.6483 40.7459 20.2093C39.821 16.3383 37.6497 12.8786 34.5662 10.3624C32.6772 8.88418 30.5193 7.78672 28.2121 7.13091V1.32153C32.1443 2.1754 35.8041 3.98907 38.8651 6.60081C42.1447 9.58063 44.5338 13.4114 45.767 17.6675C47.0003 21.9235 47.0293 26.4382 45.8509 30.7097V30.7097Z" fill="#035BF7"/>
<path d="M17.1885 17.8929L12.5846 22.5695C12.4829 22.6725 12.4233 22.8097 12.4176 22.9543L12.2433 30.7244V44.6451C12.2412 44.7481 12.268 44.8496 12.3206 44.9381C12.3732 45.0267 12.4496 45.0987 12.541 45.1462C14.0922 45.9773 15.7314 46.6325 17.4281 47.0996C17.5127 47.1244 17.6019 47.1292 17.6886 47.1135C17.7754 47.0979 17.8572 47.0622 17.9278 47.0093C17.9983 46.9564 18.0555 46.8878 18.0948 46.8089C18.1341 46.73 18.1545 46.6431 18.1543 46.5549V18.285C18.1525 18.174 18.118 18.0659 18.0552 17.9742C17.9924 17.8826 17.904 17.8114 17.8011 17.7697C17.6981 17.7279 17.5852 17.7173 17.4763 17.7392C17.3673 17.7611 17.2673 17.8145 17.1885 17.8929V17.8929ZM34.3915 22.5114L29.9691 18.2269C29.8895 18.1477 29.7881 18.094 29.6778 18.0726C29.5676 18.0511 29.4534 18.0629 29.3499 18.1065C29.2464 18.1501 29.1582 18.2235 29.0965 18.3173C29.0348 18.4112 29.0023 18.5213 29.0033 18.6336V46.5186C29.0057 46.6056 29.0278 46.691 29.0681 46.7682C29.1083 46.8454 29.1656 46.9124 29.2356 46.9642C29.3055 47.0159 29.3864 47.0511 29.4719 47.067C29.5575 47.0829 29.6456 47.0792 29.7295 47.056C31.3008 46.517 32.8199 45.8365 34.2681 45.0227C34.356 44.9736 34.4293 44.902 34.4804 44.8152C34.5314 44.7284 34.5584 44.6296 34.5586 44.5289V22.8744C34.5476 22.7375 34.4884 22.6088 34.3915 22.5114V22.5114ZM25.8372 14.843H21.059C20.9088 14.843 20.7647 14.9027 20.6585 15.0089C20.5523 15.1151 20.4926 15.2592 20.4926 15.4094V47.361C20.4945 47.5106 20.5548 47.6536 20.6606 47.7594C20.7664 47.8652 20.9094 47.9255 21.059 47.9274L25.8372 48C25.9122 48.001 25.9867 47.987 26.0562 47.959C26.1258 47.931 26.1891 47.8894 26.2424 47.8367C26.2958 47.784 26.3382 47.7212 26.3671 47.652C26.396 47.5828 26.4109 47.5086 26.4109 47.4336V15.4094C26.4109 15.3344 26.396 15.2601 26.3671 15.1909C26.3382 15.1217 26.2958 15.059 26.2424 15.0063C26.1891 14.9536 26.1258 14.912 26.0562 14.884C25.9867 14.856 25.9122 14.842 25.8372 14.843V14.843ZM24.3268 1.34343L25.3071 0.878682C25.3549 0.854643 25.409 0.846274 25.4618 0.854765C25.5146 0.863257 25.5633 0.888177 25.6011 0.925981C25.6389 0.963784 25.6638 1.01255 25.6723 1.06533C25.6808 1.11811 25.6725 1.17223 25.6484 1.21998L25.1764 2.17853C25.1612 2.2107 25.1528 2.24571 25.152 2.2813C25.1511 2.31689 25.1578 2.35226 25.1715 2.38513C25.1852 2.41799 25.2056 2.4476 25.2315 2.47206C25.2573 2.49652 25.2881 2.51527 25.3216 2.52709L26.3383 2.89744C26.3878 2.91496 26.4308 2.94741 26.4611 2.99032C26.4915 3.03324 26.5078 3.08451 26.5078 3.13708C26.5078 3.18964 26.4915 3.24092 26.4611 3.28383C26.4308 3.32675 26.3878 3.3592 26.3383 3.37672L25.3144 3.7398C25.2808 3.75163 25.2501 3.77038 25.2242 3.79483C25.1983 3.81929 25.1779 3.84891 25.1642 3.88177C25.1505 3.91463 25.1439 3.95 25.1447 3.98559C25.1456 4.02118 25.1539 4.05619 25.1691 4.08836L25.6266 5.08322C25.6507 5.13097 25.659 5.18509 25.6506 5.23787C25.6421 5.29066 25.6171 5.33942 25.5793 5.37722C25.5415 5.41503 25.4928 5.43995 25.44 5.44844C25.3872 5.45693 25.3331 5.44856 25.2853 5.42452L24.3123 4.95251C24.2808 4.93796 24.2468 4.9298 24.2122 4.9285C24.1776 4.92721 24.1431 4.9328 24.1106 4.94497C24.0782 4.95713 24.0485 4.97561 24.0233 4.99935C23.9981 5.02308 23.9778 5.05159 23.9637 5.08322L23.5934 6.10712C23.5758 6.15669 23.5434 6.1996 23.5005 6.22995C23.4576 6.2603 23.4063 6.2766 23.3537 6.2766C23.3011 6.2766 23.2499 6.2603 23.207 6.22995C23.164 6.1996 23.1316 6.15669 23.1141 6.10712L22.751 5.08322C22.7383 5.05031 22.719 5.02032 22.6944 4.99506C22.6698 4.96979 22.6403 4.94977 22.6077 4.9362C22.5751 4.92263 22.5402 4.91579 22.5049 4.9161C22.4696 4.91641 22.4348 4.92385 22.4024 4.93799L21.4148 5.40274C21.3688 5.4275 21.3162 5.43745 21.2643 5.43123C21.2123 5.42502 21.1636 5.40293 21.1247 5.36799C21.0858 5.33304 21.0586 5.28695 21.0468 5.23598C21.0351 5.18502 21.0393 5.13167 21.059 5.08322L21.5238 4.11015C21.5393 4.07791 21.548 4.04283 21.5494 4.00708C21.5508 3.97134 21.5448 3.93568 21.5319 3.90233C21.519 3.86897 21.4993 3.83863 21.4742 3.81317C21.4491 3.78771 21.419 3.76768 21.3858 3.75433L20.3619 3.39124C20.313 3.37202 20.2711 3.33853 20.2415 3.29514C20.212 3.25175 20.1962 3.20047 20.1962 3.14797C20.1962 3.09547 20.212 3.04419 20.2415 3.0008C20.2711 2.95741 20.313 2.92393 20.3619 2.9047L21.3858 2.54888C21.4241 2.53984 21.4598 2.52228 21.4904 2.4975C21.521 2.47272 21.5455 2.44136 21.5623 2.40576C21.579 2.37016 21.5875 2.33123 21.5872 2.29189C21.5868 2.25255 21.5775 2.2138 21.5601 2.17853L21.0953 1.1982C21.0713 1.15045 21.0629 1.09633 21.0714 1.04354C21.0799 0.990761 21.1048 0.941999 21.1426 0.904195C21.1804 0.866392 21.2292 0.841472 21.282 0.83298C21.3347 0.824488 21.3889 0.832858 21.4366 0.856897L22.417 1.32891C22.4491 1.34415 22.4841 1.35247 22.5197 1.35332C22.5553 1.35417 22.5907 1.34753 22.6235 1.33384C22.6564 1.32015 22.686 1.29971 22.7105 1.27384C22.7349 1.24797 22.7537 1.21725 22.7655 1.18367L23.1359 0.167033C23.1534 0.117472 23.1858 0.0745601 23.2287 0.0442085C23.2717 0.0138568 23.3229 -0.00244141 23.3755 -0.00244141C23.4281 -0.00244141 23.4793 0.0138568 23.5223 0.0442085C23.5652 0.0745601 23.5976 0.117472 23.6151 0.167033L23.9637 1.1982C23.9752 1.23372 23.9943 1.26628 24.0198 1.29356C24.0453 1.32084 24.0765 1.34217 24.1112 1.35603C24.1458 1.3699 24.1831 1.37596 24.2204 1.37378C24.2576 1.3716 24.294 1.36124 24.3268 1.34343V1.34343Z" fill="#035BF7"/>
<path d="M60.149 3.00635H61.6014L65.6679 12.7806H63.671L62.6688 10.2608H59.038L58.094 12.7806H56.0752L60.149 3.00635ZM61.979 8.50347L60.8752 5.64962L59.7642 8.50347H61.979ZM66.0238 11.2194L69.277 7.02208H66.3723V5.46081H71.3539V7.02208L68.1079 11.2194H71.6008V12.7806H66.0238V11.2194ZM73.2927 6.32496C74.023 5.61427 75.0042 5.22026 76.0232 5.22844C76.5302 5.22164 77.0335 5.31625 77.5034 5.50671C77.9734 5.69717 78.4005 5.97964 78.7597 6.33752C79.119 6.6954 79.403 7.12147 79.5953 7.5907C79.7875 8.05992 79.884 8.56284 79.8791 9.06989C79.8849 9.58537 79.7886 10.0969 79.5957 10.575C79.4029 11.0531 79.1173 11.4883 78.7555 11.8555C78.3937 12.2227 77.9628 12.5147 77.4876 12.7146C77.0124 12.9145 76.5024 13.0184 75.9868 13.0203C75.479 13.0268 74.9751 12.9293 74.5063 12.734C74.0374 12.5386 73.6135 12.2494 73.2605 11.8842C72.9075 11.519 72.633 11.0854 72.4537 10.6102C72.2744 10.135 72.1942 9.62808 72.218 9.12072C72.2108 8.86096 72.2254 8.60104 72.2616 8.34372H77.9911C77.8904 7.9178 77.6449 7.54009 77.2965 7.27517C76.9482 7.01025 76.5186 6.87458 76.0812 6.89137C75.7878 6.87808 75.4949 6.92611 75.221 7.03239C74.9472 7.13866 74.6986 7.30086 74.4909 7.50862L73.2927 6.32496ZM74.0697 9.89772C74.1797 10.3227 74.4307 10.6978 74.7816 10.9617C75.1325 11.2255 75.5625 11.3624 76.0014 11.3501C76.4512 11.3579 76.8916 11.221 77.2577 10.9595C77.6238 10.698 77.8962 10.3258 78.0346 9.89772H74.0697ZM81.012 5.46081H82.6168V6.12163C82.7757 5.8194 83.0224 5.57233 83.3244 5.41291C83.6264 5.2535 83.9696 5.18919 84.3088 5.22844V6.92768C82.7112 6.92768 82.733 8.43812 82.733 8.83025V12.7806H80.9829L81.012 5.46081ZM86.9956 3.00635V6.23055C87.2729 5.91062 87.6167 5.65515 88.0031 5.48205C88.3894 5.30895 88.8089 5.22239 89.2322 5.22844C91.7811 5.22844 92.8631 7.26172 92.8631 9.12072C92.8631 10.9797 91.7375 13.0203 89.2322 13.0203C88.7563 13.0368 88.2838 12.9329 87.8586 12.7184C87.4334 12.5039 87.0691 12.1856 86.7995 11.793V12.7806H85.1874V3.00635H86.9956ZM86.8867 9.02632C86.8657 9.32497 86.9066 9.62473 87.0066 9.9069C87.1067 10.1891 87.2638 10.4476 87.4682 10.6663C87.6727 10.8851 87.92 11.0593 88.1947 11.1782C88.4695 11.2971 88.7658 11.3581 89.0652 11.3573C89.3509 11.3591 89.6339 11.3017 89.8964 11.1887C90.1588 11.0758 90.395 10.9097 90.5901 10.701C90.7852 10.4922 90.935 10.2453 91.03 9.97587C91.125 9.7064 91.1631 9.42019 91.1421 9.13524C91.1663 8.84856 91.1305 8.55997 91.0369 8.2879C90.9434 8.01583 90.7941 7.76625 90.5987 7.55511C90.4033 7.34396 90.1659 7.17588 89.9019 7.0616C89.6379 6.94732 89.3529 6.88934 89.0652 6.89137C88.7807 6.88356 88.4975 6.93313 88.2325 7.0371C87.9675 7.14108 87.7262 7.29733 87.5229 7.49656C87.3196 7.69579 87.1585 7.93391 87.0492 8.19673C86.9399 8.45955 86.8846 8.74168 86.8867 9.02632V9.02632ZM101.25 12.7806H99.6383V11.793C99.3583 12.1785 98.9899 12.4911 98.5641 12.7046C98.1383 12.9182 97.6674 13.0264 97.1911 13.0203C96.7016 13.0132 96.2185 12.9072 95.7711 12.7087C95.3236 12.5102 94.9208 12.2232 94.5871 11.865C94.2533 11.5069 93.9955 11.0849 93.829 10.6245C93.6625 10.1642 93.5908 9.67486 93.6183 9.18608C93.5869 8.68553 93.6569 8.18379 93.824 7.71093C93.9912 7.23808 94.2522 6.80386 94.5912 6.43429C94.9303 6.06472 95.3405 5.76742 95.7972 5.56022C96.2539 5.35301 96.7478 5.24016 97.2492 5.22844C97.7234 5.20995 98.1941 5.31707 98.6136 5.53895C99.0332 5.76083 99.3866 6.08959 99.6383 6.49198V5.46081H101.25V12.7806ZM95.3393 9.14977C95.3499 9.71407 95.5843 10.251 95.9908 10.6426C96.3973 11.0341 96.9427 11.2481 97.507 11.2375C98.0713 11.2269 98.6082 10.9926 98.9998 10.5861C99.3913 10.1796 99.6053 9.63419 99.5947 9.06989C99.6097 8.78662 99.5662 8.5033 99.4671 8.23752C99.368 7.97173 99.2153 7.72917 99.0185 7.52487C98.8217 7.32058 98.585 7.15893 98.3231 7.04995C98.0612 6.94097 97.7797 6.88699 97.4961 6.89137C97.2018 6.89389 96.911 6.95602 96.6414 7.074C96.3718 7.19198 96.1289 7.36337 95.9273 7.57783C95.7258 7.79228 95.5697 8.04535 95.4687 8.32176C95.3676 8.59817 95.3236 8.89219 95.3393 9.18608V9.14977ZM109.463 5.46081L105.295 15.2496H103.407L104.751 12.1198L102.071 5.48986H104.068L105.716 10.1664L107.474 5.46081H109.463ZM117.284 10.406C117.049 11.1794 116.566 11.8541 115.91 12.3264C115.254 12.7987 114.461 13.0425 113.653 13.0203C113.128 13.035 112.606 12.9433 112.117 12.7507C111.628 12.558 111.183 12.2684 110.809 11.8993C110.436 11.5302 110.14 11.0892 109.941 10.603C109.743 10.1167 109.644 9.5952 109.652 9.06989C109.649 8.55272 109.75 8.04025 109.951 7.56354C110.152 7.08683 110.447 6.65582 110.819 6.29662C111.191 5.93743 111.632 5.65754 112.116 5.47393C112.599 5.29031 113.115 5.20679 113.632 5.22844C114.454 5.2004 115.263 5.44717 115.929 5.92977C116.596 6.41238 117.083 7.10332 117.313 7.89349H115.331C115.172 7.57573 114.924 7.31143 114.617 7.13332C114.31 6.9552 113.957 6.87108 113.603 6.89137C113.314 6.88123 113.026 6.93064 112.757 7.03653C112.488 7.14242 112.244 7.30253 112.04 7.50688C111.835 7.71123 111.675 7.95546 111.569 8.22435C111.463 8.49325 111.414 8.78107 111.424 9.06989C111.412 9.36322 111.46 9.65591 111.564 9.93036C111.668 10.2048 111.827 10.4554 112.03 10.667C112.234 10.8786 112.478 11.0469 112.748 11.1618C113.018 11.2767 113.309 11.3358 113.603 11.3355C113.95 11.3485 114.294 11.2668 114.598 11.0993C114.903 10.9317 115.156 10.6846 115.331 10.3843L117.284 10.406ZM125.686 12.7806H124.074V11.793C123.794 12.178 123.425 12.4903 122.999 12.7038C122.574 12.9173 122.103 13.0258 121.627 13.0203C121.137 13.0142 120.653 12.9089 120.205 12.7108C119.756 12.5127 119.353 12.2259 119.018 11.8676C118.684 11.5094 118.425 11.0871 118.258 10.6262C118.091 10.1654 118.019 9.67546 118.047 9.18608C118.016 8.68576 118.087 8.18444 118.255 7.71203C118.422 7.23963 118.683 6.80581 119.022 6.43646C119.361 6.0671 119.771 5.76979 120.227 5.56224C120.683 5.35469 121.177 5.24117 121.678 5.22844C122.152 5.20995 122.623 5.31707 123.042 5.53895C123.462 5.76083 123.815 6.08959 124.067 6.49198V5.46081H125.679L125.686 12.7806ZM119.782 9.14977C119.793 9.71407 120.027 10.251 120.434 10.6426C120.84 11.0341 121.386 11.2481 121.95 11.2375C122.514 11.2269 123.051 10.9926 123.443 10.5861C123.834 10.1796 124.048 9.63419 124.038 9.06989C124.053 8.78662 124.009 8.5033 123.91 8.23752C123.811 7.97173 123.658 7.72917 123.461 7.52487C123.265 7.32058 123.028 7.15893 122.766 7.04995C122.504 6.94097 122.223 6.88699 121.939 6.89137C121.648 6.89872 121.361 6.9644 121.096 7.08452C120.83 7.20464 120.592 7.37676 120.394 7.59071C120.196 7.80466 120.044 8.05608 119.945 8.3301C119.846 8.60413 119.803 8.89519 119.819 9.18608L119.782 9.14977ZM127.117 5.46081H128.729V6.13615C128.965 5.83485 129.271 5.59502 129.62 5.437C129.969 5.27899 130.351 5.20744 130.733 5.22844C132.425 5.22844 133.587 6.44114 133.587 8.50347V12.7806H131.829V8.89561C131.829 7.26172 131.052 6.89137 130.377 6.89137C128.925 6.89137 128.859 8.24931 128.859 8.89561V12.7806H127.102L127.117 5.46081ZM138.307 3.00635H141.132C144.421 3.00635 144.806 5.18487 144.806 6.1071C144.836 6.85785 144.58 7.592 144.089 8.16094C143.599 8.72988 142.91 9.09113 142.163 9.17155L144.915 12.8024H142.679L140.144 9.17155V12.8024H138.336L138.307 3.00635ZM140.151 7.66838H141.226C141.647 7.66838 143.034 7.63207 143.034 6.21603C143.034 4.79999 141.647 4.76369 141.226 4.76369H140.151V7.66838ZM147.355 9.89772C147.458 10.3236 147.706 10.7006 148.055 10.9652C148.404 11.2299 148.834 11.3658 149.272 11.3501C149.583 11.361 149.892 11.3014 150.176 11.1756C150.46 11.0498 150.713 10.8612 150.913 10.6239H152.889C152.542 11.4442 151.922 12.1195 151.135 12.5354C150.347 12.9514 149.44 13.0825 148.567 12.9065C147.694 12.7305 146.908 12.2583 146.344 11.5697C145.779 10.8812 145.469 10.0186 145.467 9.12798C145.462 8.6125 145.56 8.10116 145.753 7.62344C145.947 7.14572 146.233 6.71107 146.596 6.34453C146.958 5.97799 147.39 5.68681 147.865 5.48778C148.341 5.28875 148.851 5.1858 149.367 5.18487C149.873 5.17836 150.376 5.27561 150.844 5.47061C151.312 5.66561 151.735 5.95426 152.088 6.31881C152.44 6.68336 152.714 7.11611 152.893 7.59046C153.072 8.06481 153.152 8.57074 153.128 9.07715C153.134 9.33668 153.122 9.59633 153.092 9.85415L147.355 9.89772ZM151.291 8.34372C151.184 7.91863 150.934 7.54295 150.584 7.27884C150.234 7.01473 149.805 6.87803 149.367 6.89137C148.917 6.88354 148.476 7.02047 148.11 7.28196C147.744 7.54345 147.472 7.91567 147.333 8.34372H151.291ZM155.539 10.4787C155.542 10.6001 155.569 10.7198 155.619 10.8304C155.669 10.9411 155.741 11.0404 155.831 11.1225C155.92 11.2046 156.026 11.2678 156.14 11.3081C156.255 11.3485 156.376 11.3652 156.498 11.3573C156.601 11.3708 156.705 11.3621 156.805 11.3317C156.904 11.3013 156.995 11.25 157.073 11.1811C157.151 11.1123 157.213 11.0276 157.255 10.9327C157.298 10.8378 157.319 10.735 157.318 10.6312C157.318 10.1955 157.028 10.0212 156.657 9.90499C156.42 9.81036 156.177 9.72795 155.931 9.65809C155.205 9.43297 154.065 8.93192 154.065 7.54493C154.071 7.23205 154.141 6.92368 154.27 6.63856C154.399 6.35343 154.584 6.09749 154.815 5.88627C155.046 5.67506 155.317 5.51298 155.613 5.40989C155.908 5.30679 156.222 5.26482 156.534 5.28653C156.838 5.27387 157.141 5.32235 157.426 5.42907C157.711 5.5358 157.971 5.6986 158.192 5.90785C158.413 6.11709 158.589 6.36852 158.711 6.64723C158.833 6.92594 158.898 7.22626 158.901 7.5304H157.144C157.14 7.44831 157.12 7.36779 157.085 7.29368C157.049 7.21958 156.999 7.15341 156.937 7.09915C156.876 7.0449 156.803 7.00367 156.725 6.97795C156.647 6.95223 156.565 6.94254 156.483 6.94946C156.397 6.93867 156.31 6.94685 156.228 6.97341C156.146 6.99998 156.071 7.04429 156.008 7.10319C155.945 7.1621 155.896 7.23416 155.863 7.31427C155.831 7.39437 155.817 7.48056 155.822 7.56671C155.822 8.14765 156.548 8.29288 156.948 8.38729C157.841 8.59788 159.126 8.99727 159.126 10.5658C159.091 11.2438 158.796 11.8824 158.304 12.3497C157.811 12.8171 157.158 13.0776 156.479 13.0776C155.8 13.0776 155.147 12.8171 154.655 12.3497C154.162 11.8824 153.868 11.2438 153.833 10.5658L155.539 10.4787ZM160.056 5.46081H161.668V6.4121C161.931 6.02969 162.287 5.72043 162.702 5.51338C163.118 5.30632 163.579 5.20827 164.043 5.22844C164.546 5.22463 165.045 5.32417 165.509 5.52089C165.972 5.71762 166.39 6.00735 166.738 6.37217C167.085 6.73699 167.353 7.16914 167.527 7.6419C167.7 8.11466 167.775 8.61797 167.746 9.12072C167.775 9.62136 167.701 10.1226 167.529 10.5938C167.358 11.0649 167.092 11.4962 166.748 11.8612C166.404 12.2261 165.989 12.5171 165.529 12.7164C165.069 12.9157 164.573 13.0191 164.072 13.0203C163.654 13.026 163.24 12.9361 162.863 12.7573C162.485 12.5786 162.153 12.3158 161.893 11.9891V15.2496H160.136L160.056 5.46081ZM161.704 9.09167C161.677 9.37974 161.712 9.67021 161.806 9.94395C161.899 10.2177 162.05 10.4685 162.247 10.6798C162.445 10.8911 162.685 11.0582 162.952 11.1699C163.219 11.2817 163.506 11.3357 163.796 11.3283C164.088 11.3284 164.377 11.2698 164.646 11.1558C164.916 11.0418 165.159 10.8748 165.362 10.6648C165.566 10.4547 165.725 10.2059 165.83 9.93315C165.935 9.6604 165.984 9.36929 165.974 9.07715C165.974 8.51285 165.75 7.97167 165.351 7.57265C164.952 7.17363 164.411 6.94946 163.846 6.94946C163.282 6.94946 162.741 7.17363 162.342 7.57265C161.943 7.97167 161.719 8.51285 161.719 9.07715L161.704 9.09167ZM175.269 12.7806H173.664V12.1053C173.438 12.3934 173.149 12.6257 172.82 12.7843C172.49 12.943 172.128 13.0237 171.762 13.0203C169.002 13.0203 168.806 10.5731 168.806 9.42571V5.46081H170.564V9.18608C170.564 10.0067 170.636 11.3646 172.016 11.3646C173.396 11.3646 173.512 10.0139 173.512 9.18608V5.46081H175.262L175.269 12.7806ZM178.457 3.00635V6.23055C178.733 5.91156 179.076 5.65666 179.461 5.48359C179.846 5.31052 180.264 5.22345 180.686 5.22844C183.235 5.22844 184.317 7.26172 184.317 9.12072C184.317 10.9797 183.199 13.0203 180.723 13.0203C180.248 13.0369 179.776 12.9331 179.352 12.7185C178.928 12.5039 178.565 12.1856 178.297 11.793V12.7806H176.685V3.00635H178.457ZM178.355 9.02632C178.334 9.32497 178.375 9.62473 178.475 9.9069C178.575 10.1891 178.733 10.4476 178.937 10.6663C179.141 10.8851 179.389 11.0593 179.663 11.1782C179.938 11.2971 180.235 11.3581 180.534 11.3573C180.819 11.3592 181.102 11.3018 181.364 11.1887C181.626 11.0757 181.862 10.9095 182.057 10.7006C182.251 10.4918 182.4 10.2448 182.494 9.97533C182.588 9.70588 182.626 9.41981 182.603 9.13524C182.628 8.84917 182.592 8.5612 182.499 8.28963C182.406 8.01806 182.257 7.76883 182.063 7.5578C181.868 7.34676 181.631 7.17853 181.368 7.0638C181.105 6.94907 180.821 6.89035 180.534 6.89137C180.249 6.88254 179.965 6.9314 179.7 7.03501C179.435 7.13862 179.193 7.29484 178.989 7.49427C178.786 7.6937 178.625 7.93224 178.516 8.19552C178.407 8.4588 178.352 8.7414 178.355 9.02632V9.02632ZM185.421 3.00635H187.178V12.7806H185.421V3.00635ZM188.594 3.00635H190.352V4.61845H188.594V3.00635ZM188.594 5.46081H190.352V12.7806H188.594V5.46081ZM191.761 3.00635H193.518V8.91013L195.871 5.46081H197.948L195.341 9.04084L198.42 12.7806H196.067L193.554 9.36036V12.7806H191.797L191.761 3.00635ZM206.72 12.7806H205.108V11.793C204.828 12.1774 204.461 12.4894 204.037 12.7029C203.612 12.9164 203.143 13.0252 202.668 13.0203C202.178 13.0142 201.694 12.9089 201.245 12.7108C200.797 12.5127 200.393 12.2259 200.059 11.8676C199.724 11.5094 199.466 11.0871 199.299 10.6262C199.132 10.1654 199.06 9.67546 199.088 9.18608C199.057 8.68576 199.128 8.18444 199.295 7.71203C199.463 7.23963 199.724 6.80581 200.063 6.43646C200.402 6.0671 200.811 5.76979 201.268 5.56224C201.724 5.35469 202.217 5.24117 202.718 5.22844C203.193 5.2092 203.664 5.316 204.083 5.53795C204.503 5.7599 204.856 6.08907 205.108 6.49198V5.46081H206.72V12.7806ZM200.816 9.14977C200.805 9.43889 200.854 9.72714 200.958 9.99688C201.063 10.2666 201.222 10.5122 201.424 10.7186C201.627 10.925 201.87 11.0878 202.138 11.1972C202.406 11.3066 202.693 11.3602 202.982 11.3548C203.271 11.3493 203.557 11.285 203.82 11.1656C204.084 11.0462 204.32 10.8743 204.515 10.6605C204.71 10.4466 204.859 10.1952 204.953 9.92176C205.048 9.64828 205.085 9.35841 205.064 9.06989C205.079 8.78662 205.036 8.5033 204.936 8.23752C204.837 7.97173 204.685 7.72917 204.488 7.52487C204.291 7.32058 204.054 7.15893 203.792 7.04995C203.53 6.94097 203.249 6.88699 202.965 6.89137C202.672 6.89487 202.382 6.95771 202.113 7.07612C201.844 7.19454 201.602 7.36608 201.401 7.58043C201.201 7.79478 201.045 8.04751 200.945 8.32344C200.844 8.59937 200.8 8.89279 200.816 9.18608V9.14977ZM209.443 10.4787C209.446 10.6001 209.473 10.7198 209.523 10.8304C209.573 10.9411 209.645 11.0404 209.735 11.1225C209.824 11.2046 209.929 11.2678 210.044 11.3081C210.159 11.3485 210.28 11.3652 210.401 11.3573C210.504 11.3708 210.609 11.3621 210.708 11.3317C210.808 11.3013 210.899 11.25 210.977 11.1811C211.055 11.1123 211.117 11.0276 211.159 10.9327C211.201 10.8378 211.223 10.735 211.222 10.6312C211.222 10.1955 210.931 10.0212 210.561 9.90499C210.323 9.81036 210.081 9.72795 209.835 9.65809C209.109 9.43297 207.969 8.93192 207.969 7.54493C207.975 7.23205 208.044 6.92368 208.173 6.63856C208.302 6.35343 208.488 6.09749 208.719 5.88627C208.95 5.67506 209.221 5.51298 209.517 5.40989C209.812 5.30679 210.125 5.26482 210.438 5.28653C211.036 5.27081 211.616 5.49147 212.052 5.90065C212.488 6.30983 212.746 6.87454 212.769 7.47231H211.026C211.022 7.39021 211.002 7.3097 210.967 7.23559C210.931 7.16148 210.881 7.09532 210.819 7.04106C210.758 6.9868 210.685 6.94558 210.607 6.91985C210.529 6.89413 210.447 6.88444 210.365 6.89137C210.279 6.88058 210.192 6.88875 210.11 6.91532C210.028 6.94189 209.953 6.98619 209.89 7.0451C209.827 7.10401 209.778 7.17607 209.745 7.25617C209.713 7.33628 209.699 7.42246 209.704 7.50862C209.704 8.08956 210.43 8.23479 210.83 8.32919C211.723 8.53978 213.008 8.93918 213.008 10.5077C212.973 11.1857 212.678 11.8243 212.186 12.2916C211.693 12.759 211.04 13.0196 210.361 13.0196C209.682 13.0196 209.029 12.759 208.537 12.2916C208.044 11.8243 207.75 11.1857 207.715 10.5077L209.443 10.4787ZM213.96 5.46081H215.717V12.7806H213.96V5.46081ZM217.126 5.46081H218.731V6.13615C218.971 5.83358 219.28 5.59318 219.633 5.43521C219.985 5.27724 220.371 5.20632 220.757 5.22844C222.449 5.22844 223.61 6.44114 223.61 8.50347V12.7806H221.853V8.89561C221.853 7.26172 221.076 6.89137 220.401 6.89137C218.948 6.89137 218.876 8.24931 218.876 8.89561V12.7806H217.126V5.46081ZM225.056 5.46081H226.813V12.7806H225.056V5.46081ZM228.229 5.46081H229.841V6.13615C230.08 5.83565 230.387 5.59651 230.737 5.43863C231.087 5.28075 231.469 5.20869 231.852 5.22844C233.544 5.22844 234.706 6.44114 234.706 8.50347V12.7806H232.949V8.89561C232.949 7.26172 232.165 6.89137 231.497 6.89137C230.044 6.89137 229.979 8.24931 229.979 8.89561V12.7806H228.222L228.229 5.46081ZM66.8952 28.8726C65.9932 28.9181 65.1018 28.6627 64.3608 28.1464C63.5072 28.6324 62.5399 28.8829 61.5578 28.8726C60.8824 28.8852 60.2112 28.7629 59.5835 28.5131C58.9559 28.2633 58.3843 27.8908 57.9022 27.4176C57.4202 26.9443 57.0373 26.3797 56.7759 25.7567C56.5146 25.1338 56.3801 24.465 56.3802 23.7894C56.3674 23.1183 56.4901 22.4516 56.741 21.8291C56.9919 21.2066 57.3659 20.6411 57.8405 20.1665C58.3151 19.6919 58.8805 19.3179 59.5031 19.067C60.1256 18.8161 60.7923 18.6934 61.4634 18.7062C62.1485 18.6704 62.8335 18.7777 63.4748 19.0214C64.1161 19.265 64.6996 19.6396 65.1881 20.1213C65.6766 20.6029 66.0594 21.1811 66.3121 21.8189C66.5647 22.4567 66.6817 23.1402 66.6555 23.8257C66.6952 24.9878 66.293 26.1217 65.53 26.9991C65.942 27.2097 66.405 27.3003 66.8661 27.2605L66.8952 28.8726ZM59.5463 24.0508C61.2487 24.079 62.8766 24.7541 64.0994 25.9389C64.6099 25.3631 64.871 24.6084 64.8256 23.8402C64.8403 23.397 64.7651 22.9555 64.6045 22.5421C64.4439 22.1288 64.2012 21.7523 63.891 21.4354C63.5809 21.1185 63.2097 20.8677 62.8 20.6981C62.3902 20.5286 61.9504 20.4439 61.507 20.449C61.0287 20.4437 60.555 20.5414 60.1179 20.7354C59.6807 20.9295 59.2905 21.2153 58.9736 21.5735C58.6567 21.9317 58.4206 22.3539 58.2814 22.8114C58.1421 23.269 58.103 23.7511 58.1666 24.2251C58.6159 24.102 59.0805 24.0433 59.5463 24.0508ZM61.7248 27.1153C62.1169 27.109 62.5003 26.9987 62.8359 26.7958C61.9361 26.0512 60.8272 25.6046 59.6625 25.5177C59.355 25.5146 59.0497 25.5688 58.762 25.6775C59.1076 26.1337 59.5561 26.5017 60.071 26.7516C60.5859 27.0015 61.1526 27.1261 61.7248 27.1153V27.1153ZM69.3714 25.7573C69.4733 26.1826 69.7192 26.5595 70.0673 26.8242C70.4153 27.0889 70.8442 27.2251 71.2812 27.2097C71.5891 27.2256 71.8965 27.1719 72.1807 27.0524C72.4649 26.933 72.7184 26.7509 72.9224 26.5198H74.9048C74.5583 27.3396 73.9393 28.0145 73.1525 28.4305C72.3657 28.8466 71.4594 28.9782 70.5868 28.8032C69.7142 28.6281 68.9287 28.1572 68.3633 27.4699C67.7978 26.7826 67.487 25.9212 67.4834 25.0312C67.4747 24.5139 67.5689 24 67.7604 23.5194C67.952 23.0388 68.2371 22.601 68.5992 22.2314C68.9613 21.8619 69.3932 21.568 69.8698 21.3667C70.3464 21.1654 70.8583 21.0608 71.3756 21.059C71.8826 21.0525 72.3855 21.1497 72.8534 21.3447C73.3214 21.5397 73.7445 21.8284 74.0969 22.1929C74.4492 22.5575 74.7232 22.9902 74.9021 23.4646C75.081 23.9389 75.161 24.4449 75.1372 24.9513C75.1553 25.2124 75.1553 25.4744 75.1372 25.7355L69.3714 25.7573ZM73.3436 24.1961C73.2336 23.7711 72.9826 23.396 72.6317 23.1321C72.2808 22.8683 71.8508 22.7314 71.412 22.7437C70.9621 22.7359 70.5217 22.8728 70.1556 23.1343C69.7895 23.3958 69.5172 23.768 69.3787 24.1961H73.3436ZM83.038 21.3204L78.8407 31.0802H76.9744L78.3179 27.9504L75.6383 21.3204H77.6353L79.3127 26.0042L81.07 21.3204H83.038ZM83.9166 21.3204H85.5287V21.9812C85.6864 21.6712 85.935 21.4167 86.2413 21.2519C86.5476 21.087 86.8969 21.0197 87.2425 21.059V22.7582C85.6449 22.7582 85.674 24.2687 85.674 24.6608V28.6112H83.9166V21.3204ZM88.143 18.8805H89.9003V20.4926H88.143V18.8805ZM88.143 21.3422H89.9003V28.633H88.143V21.3422ZM95.2086 23.6587V25.2127H91.5415V23.6587H95.2086ZM97.0458 18.8805H98.854V22.8018H102.427V18.8805H104.235V28.633H102.427V24.5374H98.854V28.633H97.0458V18.8805ZM113.239 24.9876C113.231 25.7544 112.996 26.5015 112.563 27.1347C112.131 27.768 111.521 28.2592 110.81 28.5463C110.099 28.8335 109.318 28.9038 108.568 28.7484C107.817 28.5931 107.128 28.2189 106.59 27.6732C106.051 27.1274 105.686 26.4345 105.54 25.6816C105.395 24.9287 105.475 24.1496 105.772 23.4424C106.068 22.7351 106.567 22.1314 107.206 21.7073C107.845 21.2832 108.595 21.0576 109.362 21.059C109.877 21.053 110.388 21.1509 110.865 21.3468C111.341 21.5428 111.773 21.8328 112.135 22.1995C112.497 22.5662 112.782 23.002 112.971 23.4811C113.161 23.9601 113.252 24.4725 113.239 24.9876V24.9876ZM107.234 24.9876C107.257 25.4027 107.401 25.8021 107.648 26.1364C107.895 26.4706 108.235 26.7252 108.625 26.8686C109.015 27.0119 109.439 27.0378 109.843 26.9431C110.248 26.8483 110.616 26.6371 110.903 26.3354C111.189 26.0337 111.38 25.6549 111.453 25.2456C111.526 24.8364 111.478 24.4146 111.314 24.0326C111.15 23.6505 110.878 23.3248 110.531 23.0958C110.184 22.8667 109.777 22.7443 109.362 22.7437C109.072 22.7422 108.785 22.8002 108.518 22.9139C108.252 23.0277 108.012 23.1948 107.812 23.4051C107.613 23.6154 107.459 23.8643 107.359 24.1365C107.26 24.4086 107.217 24.6983 107.234 24.9876ZM108.926 20.2893V18.8369H107.604V20.2893H108.926ZM111.17 20.2893V18.8369H109.848V20.2893H111.17ZM114.3 18.8805H116.057V24.7625L118.41 21.3204H120.487L117.843 24.8932L120.922 28.633H118.57L116.057 25.2127V28.633H114.3V18.8805ZM128.46 28.633H126.855V27.9576C126.625 28.254 126.328 28.4915 125.989 28.6505C125.649 28.8096 125.277 28.8857 124.902 28.8726C122.142 28.8726 121.946 26.4254 121.946 25.2781V21.3204H123.704V25.0457C123.704 25.859 123.776 27.2242 125.192 27.2242C126.608 27.2242 126.688 25.8735 126.688 25.0457V21.3204H128.438L128.46 28.633ZM129.891 21.3204H131.503V21.9885C131.725 21.6885 132.017 21.4471 132.354 21.2852C132.69 21.1232 133.061 21.0456 133.434 21.059C133.857 21.0524 134.274 21.1529 134.647 21.3509C135.021 21.549 135.338 21.8383 135.569 22.1918C135.837 21.826 136.189 21.5314 136.597 21.3339C137.005 21.1363 137.455 21.042 137.908 21.059C139.694 21.059 140.892 22.2717 140.892 24.334V28.6112H139.135V24.748C139.135 24.0944 139.055 22.7437 137.682 22.7437C136.31 22.7437 136.23 24.0944 136.23 24.748V28.633H134.473V24.748C134.473 24.0944 134.393 22.7437 133.02 22.7437C131.648 22.7437 131.568 24.0944 131.568 24.748V28.633H129.811L129.891 21.3204ZM143.056 22.1773C143.786 21.4626 144.765 21.0613 145.787 21.059C146.295 21.0502 146.8 21.1434 147.271 21.333C147.743 21.5226 148.172 21.8047 148.533 22.1628C148.893 22.5209 149.179 22.9476 149.372 23.4178C149.565 23.888 149.662 24.3922 149.657 24.9004C149.662 25.4163 149.565 25.928 149.371 26.4061C149.177 26.8842 148.891 27.3194 148.529 27.6865C148.166 28.0536 147.735 28.3454 147.259 28.5453C146.784 28.7451 146.273 28.8489 145.757 28.8508C145.25 28.8574 144.746 28.7599 144.278 28.5645C143.809 28.369 143.386 28.0797 143.034 27.7144C142.681 27.3491 142.407 26.9154 142.229 26.4402C142.05 25.965 141.971 25.4583 141.996 24.9513C141.99 24.6918 142.002 24.4321 142.032 24.1743H147.769C147.667 23.7478 147.42 23.3699 147.07 23.1051C146.721 22.8402 146.29 22.7048 145.852 22.7219C145.559 22.7083 145.266 22.757 144.993 22.8646C144.721 22.9722 144.474 23.1365 144.269 23.3464L143.056 22.1773ZM143.84 25.7573C143.949 26.1818 144.199 26.5567 144.548 26.8206C144.898 27.0845 145.327 27.2217 145.765 27.2097C146.215 27.2175 146.655 27.0806 147.021 26.8191C147.387 26.5576 147.66 26.1854 147.798 25.7573H143.84ZM151.044 22.8744H150.173V21.3204H151.044V18.8805H152.801V21.3422H153.862V22.8744H152.787V28.633H151.044V22.8744ZM158.974 20.616H157.158V18.8805H162.59V20.6378H160.782V28.6257H158.974V20.616ZM164.115 22.1773C164.841 21.4655 165.815 21.0643 166.831 21.059C167.339 21.0502 167.844 21.1434 168.316 21.333C168.787 21.5226 169.216 21.8047 169.577 22.1628C169.938 22.5209 170.223 22.9476 170.416 23.4178C170.609 23.888 170.706 24.3922 170.702 24.9004C170.706 25.4163 170.609 25.928 170.415 26.4061C170.222 26.8842 169.936 27.3194 169.573 27.6865C169.211 28.0536 168.779 28.3454 168.304 28.5453C167.828 28.7451 167.318 28.8489 166.802 28.8508C166.294 28.8574 165.791 28.7599 165.322 28.5645C164.854 28.369 164.43 28.0797 164.078 27.7144C163.726 27.3491 163.452 26.9154 163.273 26.4402C163.095 25.965 163.016 25.4583 163.04 24.9513C163.033 24.6915 163.048 24.4316 163.084 24.1743H168.813C168.711 23.7478 168.464 23.3699 168.115 23.1051C167.765 22.8402 167.335 22.7048 166.896 22.7219C166.603 22.7088 166.311 22.7576 166.038 22.8652C165.765 22.9729 165.518 23.1368 165.313 23.3464L164.115 22.1773ZM164.892 25.7573C165.001 26.1818 165.25 26.5567 165.6 26.8206C165.95 27.0845 166.379 27.2217 166.816 27.2097C167.267 27.2179 167.709 27.0813 168.076 26.8198C168.443 26.5584 168.717 26.186 168.857 25.7573H164.892ZM173.105 26.3383C173.11 26.4594 173.139 26.5785 173.19 26.6883C173.241 26.7981 173.314 26.8966 173.404 26.9778C173.494 27.059 173.6 27.1214 173.714 27.1612C173.829 27.2011 173.95 27.2175 174.071 27.2097C174.174 27.2232 174.279 27.2144 174.378 27.184C174.477 27.1537 174.569 27.1023 174.647 27.0335C174.724 26.9647 174.787 26.8799 174.829 26.7851C174.871 26.6902 174.892 26.5874 174.892 26.4835C174.892 26.0478 174.601 25.8735 174.231 25.7573C173.977 25.6557 173.73 25.5903 173.505 25.5104C172.778 25.2853 171.646 24.8206 171.646 23.3973C171.653 23.0847 171.723 22.7768 171.852 22.4922C171.982 22.2076 172.167 21.952 172.398 21.741C172.629 21.53 172.9 21.3679 173.195 21.2644C173.49 21.1609 173.803 21.1182 174.115 21.1389C174.715 21.1193 175.299 21.3382 175.738 21.7478C176.178 22.1573 176.437 22.7243 176.46 23.3247H174.703C174.699 23.2426 174.679 23.162 174.643 23.0879C174.608 23.0138 174.558 22.9477 174.496 22.8934C174.434 22.8391 174.362 22.7979 174.284 22.7722C174.206 22.7465 174.124 22.7368 174.042 22.7437C173.956 22.7341 173.869 22.7433 173.787 22.7708C173.705 22.7982 173.63 22.8433 173.567 22.9027C173.504 22.9622 173.455 23.0346 173.423 23.115C173.39 23.1954 173.376 23.2818 173.381 23.3682C173.381 23.9492 174.107 24.0944 174.499 24.1815C175.4 24.3921 176.678 24.7915 176.678 26.3601C176.683 26.7028 176.616 27.0429 176.484 27.3589C176.351 27.6749 176.154 27.9601 175.906 28.1966C175.658 28.4332 175.364 28.6159 175.042 28.7335C174.72 28.8511 174.377 28.9009 174.035 28.8799C173.69 28.8988 173.346 28.8468 173.023 28.7273C172.699 28.6078 172.404 28.4232 172.155 28.185C171.906 27.9468 171.708 27.66 171.574 27.3423C171.441 27.0247 171.373 26.6829 171.377 26.3383H173.105ZM172.524 30.6953C173.057 30.8603 173.608 30.9555 174.165 30.9785C174.63 30.9785 174.892 30.8042 174.892 30.4847C174.892 30.1652 174.616 29.9691 173.984 29.9691H173.708V28.633H174.282V29.243H174.376C175.393 29.243 175.894 29.6496 175.894 30.4847C175.894 31.3198 175.327 31.7119 174.282 31.7119C173.692 31.6866 173.107 31.594 172.539 31.436L172.524 30.6953ZM177.629 18.8805H179.365V24.7625L181.71 21.3204H183.787L181.144 24.8932L184.223 28.633H181.87L179.365 25.2127V28.633H177.607L177.629 18.8805ZM185.29 18.8805H187.048V20.4926H185.29V18.8805ZM185.29 21.3422H187.048V28.633H185.29V21.3422ZM188.464 18.8805H190.214V28.633H188.464V18.8805ZM198.921 28.633H197.308V27.6454C197.028 28.0304 196.66 28.3426 196.234 28.5561C195.808 28.7696 195.338 28.8782 194.861 28.8726C194.372 28.8665 193.889 28.7614 193.441 28.5638C192.993 28.3661 192.59 28.08 192.255 27.7225C191.921 27.365 191.662 26.9436 191.495 26.4836C191.327 26.0236 191.255 25.5345 191.281 25.0457C191.25 24.5448 191.32 24.0427 191.487 23.5694C191.654 23.0962 191.915 22.6615 192.254 22.2913C192.593 21.9212 193.003 21.6232 193.46 21.4152C193.916 21.2072 194.41 21.0935 194.912 21.0808C195.388 21.061 195.86 21.1675 196.281 21.3894C196.702 21.6114 197.056 21.9408 197.308 22.3443V21.3204H198.921V28.633ZM193.017 25.0457C193.027 25.61 193.262 26.147 193.668 26.5385C194.075 26.93 194.62 27.144 195.184 27.1334C195.749 27.1228 196.286 26.8885 196.677 26.482C197.069 26.0755 197.283 25.5301 197.272 24.9658C197.292 24.6793 197.253 24.3917 197.156 24.1212C197.059 23.8507 196.908 23.6032 196.71 23.3944C196.513 23.1855 196.275 23.0199 196.01 22.9079C195.746 22.7959 195.461 22.74 195.174 22.7437C194.879 22.7462 194.587 22.8085 194.317 22.927C194.047 23.0454 193.804 23.2174 193.602 23.4327C193.4 23.6479 193.245 23.9019 193.144 24.1791C193.043 24.4564 193 24.7512 193.017 25.0457V25.0457ZM200.613 22.8744H199.756V21.3204H200.613V18.8805H202.37V21.3422H203.43V22.8744H202.37V28.633H200.613V22.8744ZM204.316 18.8805H206.073V28.633H204.316V18.8805ZM214.773 28.633H213.161V27.6454C212.88 28.0304 212.512 28.3426 212.086 28.5561C211.661 28.7696 211.19 28.8782 210.714 28.8726C210.224 28.8665 209.741 28.7614 209.293 28.5638C208.845 28.3661 208.442 28.08 208.108 27.7225C207.773 27.365 207.515 26.9436 207.347 26.4836C207.18 26.0236 207.107 25.5345 207.134 25.0457C207.102 24.5448 207.172 24.0427 207.339 23.5694C207.506 23.0962 207.767 22.6615 208.106 22.2913C208.445 21.9212 208.855 21.6232 209.312 21.4152C209.769 21.2072 210.263 21.0935 210.764 21.0808C211.239 21.0623 211.709 21.1694 212.129 21.3913C212.548 21.6132 212.902 21.9419 213.154 22.3443V21.3204H214.766L214.773 28.633ZM208.869 25.0457C208.874 25.3251 208.935 25.6007 209.046 25.8569C209.158 26.113 209.319 26.3446 209.521 26.5385C209.722 26.7324 209.959 26.8847 210.22 26.9868C210.48 27.0888 210.757 27.1387 211.037 27.1334C211.316 27.1282 211.592 27.068 211.848 26.9562C212.104 26.8444 212.336 26.6833 212.53 26.482C212.723 26.2807 212.876 26.0432 212.978 25.7831C213.08 25.5229 213.13 25.2452 213.125 24.9658C213.145 24.6793 213.105 24.3917 213.008 24.1212C212.912 23.8507 212.76 23.6032 212.563 23.3944C212.365 23.1855 212.127 23.0199 211.862 22.9079C211.598 22.7959 211.313 22.74 211.026 22.7437C210.731 22.7462 210.44 22.8085 210.169 22.927C209.899 23.0454 209.656 23.2174 209.454 23.4327C209.253 23.6479 209.097 23.9019 208.996 24.1791C208.896 24.4564 208.852 24.7512 208.869 25.0457V25.0457ZM216.203 21.3204H217.852V21.9812C218.006 21.6749 218.25 21.4226 218.551 21.2579C218.852 21.0932 219.195 21.0238 219.537 21.059V22.7582C217.932 22.7582 217.961 24.2687 217.961 24.6608V28.6112H216.203V21.3204ZM220.43 21.3204H222.209V28.633H220.452L220.43 21.3204ZM223.603 21.3204H225.215V21.9885C225.452 21.679 225.762 21.4324 226.116 21.2704C226.471 21.1083 226.859 21.0357 227.249 21.059C228.941 21.059 230.102 22.2717 230.102 24.334V28.6112H228.345V24.748C228.345 23.1141 227.568 22.7437 226.893 22.7437C225.44 22.7437 225.375 24.1017 225.375 24.748V28.633H223.618L223.603 21.3204ZM238.824 28.633H237.212V27.6454C236.932 28.0298 236.565 28.3418 236.141 28.5553C235.716 28.7688 235.247 28.8776 234.772 28.8726C234.282 28.8665 233.799 28.7614 233.351 28.5638C232.903 28.3661 232.5 28.08 232.166 27.7225C231.831 27.365 231.573 26.9436 231.405 26.4836C231.238 26.0236 231.165 25.5345 231.192 25.0457C231.16 24.5448 231.23 24.0427 231.397 23.5694C231.564 23.0962 231.825 22.6615 232.164 22.2913C232.503 21.9212 232.913 21.6232 233.37 21.4152C233.827 21.2072 234.321 21.0935 234.823 21.0808C235.297 21.0616 235.768 21.1683 236.188 21.3903C236.607 21.6122 236.961 21.9414 237.212 22.3443V21.3204H238.824V28.633ZM232.92 25.0457C232.909 25.3348 232.958 25.6231 233.063 25.8928C233.167 26.1625 233.326 26.4081 233.528 26.6145C233.731 26.8209 233.974 26.9837 234.242 27.0931C234.51 27.2025 234.797 27.2561 235.086 27.2507C235.376 27.2452 235.661 27.1809 235.924 27.0615C236.188 26.9421 236.424 26.7702 236.619 26.5564C236.814 26.3425 236.963 26.0912 237.057 25.8177C237.152 25.5442 237.19 25.2543 237.168 24.9658C237.189 24.679 237.151 24.3909 237.054 24.12C236.958 23.849 236.806 23.6011 236.609 23.392C236.411 23.1829 236.172 23.0173 235.907 22.9057C235.642 22.7941 235.357 22.7389 235.069 22.7437C234.775 22.7472 234.485 22.8102 234.215 22.9291C233.946 23.0479 233.704 23.2201 233.503 23.4353C233.302 23.6504 233.147 23.904 233.046 24.1808C232.946 24.4576 232.903 24.7518 232.92 25.0457V25.0457ZM56.8812 34.7183H59.5899C64.0849 34.7183 64.8328 37.7537 64.8328 39.6563C64.8328 40.702 64.5714 44.4926 59.6334 44.4926H56.8812V34.7183ZM59.5753 42.7062C60.5702 42.7062 63.0247 42.5827 63.0247 39.6272C63.0247 36.5337 60.4758 36.4393 59.4882 36.4393H58.6894V42.7062H59.5753ZM73.3436 40.8472C73.3378 41.6143 73.1051 42.3626 72.6748 42.9976C72.2444 43.6327 71.6357 44.1261 70.9253 44.4157C70.2149 44.7053 69.4347 44.7781 68.683 44.6249C67.9313 44.4718 67.2418 44.0995 66.7013 43.555C66.1609 43.0106 65.7938 42.3183 65.6462 41.5655C65.4986 40.8126 65.5772 40.033 65.8721 39.3248C66.167 38.6166 66.665 38.0115 67.3032 37.5859C67.9414 37.1603 68.6914 36.9331 69.4586 36.9331C69.9731 36.9262 70.4838 37.0229 70.9602 37.2175C71.4366 37.4121 71.869 37.7007 72.2315 38.0659C72.594 38.4311 72.8793 38.8656 73.0704 39.3435C73.2614 39.8213 73.3543 40.3327 73.3436 40.8472V40.8472ZM67.3309 40.8472C67.355 41.2619 67.4999 41.6605 67.7479 41.9938C67.9959 42.3271 68.336 42.5805 68.7262 42.7227C69.1165 42.865 69.5399 42.8899 69.9442 42.7944C70.3485 42.6989 70.7159 42.4871 71.0013 42.1852C71.2866 41.8834 71.4773 41.5045 71.5499 41.0955C71.6225 40.6865 71.5738 40.2652 71.4097 39.8835C71.2457 39.5019 70.9735 39.1766 70.6268 38.9478C70.2801 38.719 69.874 38.5968 69.4586 38.5961C69.1681 38.5945 68.8805 38.6526 68.6135 38.7668C68.3464 38.881 68.1057 39.0489 67.9062 39.2599C67.7067 39.471 67.5527 39.7208 67.4538 39.9938C67.3548 40.2669 67.313 40.5573 67.3309 40.8472V40.8472ZM68.9865 36.1416V34.6893H67.6794V36.1416H68.9865ZM71.2304 36.1416V34.6893H69.9233V36.1416H71.2304ZM73.6994 37.1728H75.6601L77.3448 41.98L79.0368 37.1728H80.9902L78.0346 44.4926H76.6622L73.6994 37.1728ZM81.8035 34.7183H83.5608V44.4926H81.8035V34.7183ZM85.6885 38.0296C86.4232 37.3212 87.4056 36.9277 88.4262 36.9331C88.9344 36.9244 89.4393 37.0175 89.9109 37.2071C90.3825 37.3967 90.8114 37.6789 91.1722 38.0369C91.533 38.395 91.8184 38.8218 92.0115 39.292C92.2046 39.7622 92.3016 40.2663 92.2967 40.7746C92.3015 41.2904 92.2042 41.8021 92.0106 42.2802C91.8169 42.7584 91.5307 43.1935 91.1683 43.5606C90.8059 43.9277 90.3745 44.2196 89.8989 44.4194C89.4234 44.6192 88.913 44.7231 88.3971 44.725C87.8902 44.7315 87.3873 44.6342 86.9193 44.4392C86.4514 44.2442 86.0282 43.9556 85.6759 43.591C85.3236 43.2265 85.0496 42.7937 84.8707 42.3194C84.6918 41.845 84.6118 41.3391 84.6356 40.8327C84.6175 40.5716 84.6175 40.3095 84.6356 40.0484H90.3723C90.2689 39.6226 90.0217 39.2455 89.6724 38.9809C89.3231 38.7163 88.8931 38.5803 88.4552 38.5961C88.1622 38.5825 87.8697 38.6311 87.5968 38.7387C87.3239 38.8464 87.077 39.0106 86.8722 39.2206L85.6885 38.0296ZM86.4655 41.6097C86.5755 42.0347 86.8265 42.4098 87.1774 42.6736C87.5283 42.9374 87.9583 43.0744 88.3971 43.062C88.847 43.0699 89.2874 42.9329 89.6535 42.6714C90.0196 42.4099 90.2919 42.0377 90.4304 41.6097H86.4655ZM93.6764 38.734H92.8195V37.1728H93.6764V34.7183H95.4337V37.1728H96.494V38.734H95.4337V44.4926H93.6764V38.734ZM100.655 34.7183H103.364C107.851 34.7183 108.607 37.7537 108.607 39.6563C108.607 40.702 108.338 44.4926 103.4 44.4926H100.655V34.7183ZM103.349 42.7062C104.337 42.7062 106.798 42.5827 106.798 39.6272C106.798 36.5337 104.249 36.4393 103.255 36.4393H102.463V42.7062H103.349ZM110.458 38.0296C111.191 37.3223 112.17 36.9288 113.189 36.9331C113.697 36.9244 114.202 37.0175 114.673 37.2071C115.145 37.3967 115.574 37.6789 115.935 38.0369C116.295 38.395 116.581 38.8218 116.774 39.292C116.967 39.7622 117.064 40.2663 117.059 40.7746C117.065 41.2901 116.969 41.8016 116.776 42.2797C116.583 42.7578 116.297 43.193 115.936 43.5602C115.574 43.9274 115.143 44.2194 114.668 44.4193C114.192 44.6192 113.682 44.7231 113.167 44.725C112.659 44.7325 112.156 44.636 111.687 44.4414C111.218 44.2468 110.794 43.9583 110.441 43.5937C110.088 43.229 109.813 42.7959 109.634 42.3211C109.454 41.8462 109.374 41.3397 109.398 40.8327C109.391 40.5705 109.405 40.3082 109.442 40.0484H115.171C115.069 39.6232 114.823 39.2463 114.475 38.9816C114.127 38.7169 113.698 38.5807 113.261 38.5961C112.967 38.5824 112.673 38.6309 112.399 38.7385C112.125 38.8461 111.877 39.0104 111.671 39.2206L110.458 38.0296ZM111.235 41.6097C111.345 42.0347 111.596 42.4098 111.947 42.6736C112.298 42.9374 112.728 43.0744 113.167 43.062C113.617 43.0699 114.057 42.9329 114.423 42.6714C114.789 42.4099 115.062 42.0377 115.2 41.6097H111.235ZM119.47 42.1906C119.473 42.3118 119.5 42.4311 119.55 42.5414C119.6 42.6517 119.673 42.7506 119.762 42.8321C119.852 42.9137 119.957 42.9761 120.072 43.0156C120.186 43.0551 120.308 43.0709 120.429 43.062C120.532 43.0755 120.636 43.0668 120.736 43.0364C120.835 43.006 120.926 42.9547 121.004 42.8858C121.082 42.817 121.144 42.7323 121.186 42.6374C121.229 42.5425 121.25 42.4397 121.249 42.3359C121.249 41.9001 120.959 41.7331 120.588 41.6097C120.351 41.5127 120.108 41.4279 119.862 41.3555C119.136 41.1304 117.996 40.6729 117.996 39.2424C118.003 38.9298 118.073 38.6219 118.203 38.3373C118.332 38.0526 118.518 37.7971 118.748 37.5861C118.979 37.3751 119.25 37.213 119.545 37.1095C119.84 37.006 120.153 36.9633 120.465 36.984C120.766 36.9743 121.066 37.0245 121.347 37.1317C121.628 37.2388 121.886 37.4008 122.104 37.6082C122.322 37.8156 122.497 38.0643 122.618 38.3399C122.739 38.6154 122.805 38.9123 122.81 39.2133H121.053C121.049 39.1312 121.029 39.0507 120.994 38.9766C120.958 38.9025 120.908 38.8363 120.846 38.7821C120.785 38.7278 120.713 38.6866 120.635 38.6609C120.557 38.6351 120.474 38.6254 120.392 38.6324C120.306 38.6227 120.219 38.632 120.137 38.6594C120.055 38.6869 119.98 38.7319 119.917 38.7914C119.854 38.8508 119.805 38.9232 119.773 39.0036C119.741 39.084 119.727 39.1705 119.731 39.2569C119.731 39.8378 120.458 39.9831 120.857 40.0775C121.75 40.288 123.036 40.6802 123.036 42.256C123.041 42.599 122.976 42.9396 122.843 43.2561C122.711 43.5726 122.514 43.8583 122.266 44.095C122.018 44.3318 121.723 44.5145 121.4 44.6317C121.078 44.7488 120.735 44.7979 120.392 44.7758C120.049 44.7947 119.706 44.743 119.383 44.6238C119.061 44.5046 118.766 44.3206 118.518 44.083C118.269 43.8455 118.072 43.5595 117.939 43.2427C117.805 42.926 117.738 42.5852 117.742 42.2414L119.47 42.1906ZM124.248 38.734H123.391V37.1728H124.248V34.7183H126.006V37.1728H127.08V38.734H126.02V44.4926H124.248V38.734ZM128.692 38.0296C129.429 37.3188 130.414 36.925 131.437 36.9331C131.946 36.9244 132.45 37.0175 132.922 37.2071C133.394 37.3967 133.823 37.6789 134.183 38.0369C134.544 38.395 134.83 38.8218 135.023 39.292C135.216 39.7622 135.313 40.2663 135.308 40.7746C135.314 41.2882 135.218 41.798 135.027 42.2747C134.835 42.7513 134.551 43.1856 134.192 43.5525C133.832 43.9194 133.404 44.2118 132.931 44.413C132.459 44.6142 131.951 44.7202 131.437 44.725C130.93 44.7325 130.426 44.636 129.957 44.4414C129.489 44.2468 129.064 43.9583 128.711 43.5937C128.358 43.229 128.084 42.7959 127.904 42.3211C127.725 41.8462 127.645 41.3397 127.669 40.8327C127.661 40.5705 127.676 40.3082 127.712 40.0484H133.442C133.338 39.6226 133.091 39.2455 132.742 38.9809C132.392 38.7163 131.962 38.5803 131.525 38.5961C131.232 38.5829 130.939 38.6318 130.666 38.7394C130.394 38.847 130.147 39.011 129.941 39.2206L128.692 38.0296ZM129.469 41.6097C129.579 42.0347 129.83 42.4098 130.181 42.6736C130.532 42.9374 130.962 43.0744 131.401 43.062C131.851 43.0699 132.291 42.9329 132.657 42.6714C133.023 42.4099 133.296 42.0377 133.434 41.6097H129.469ZM143.194 37.1728L138.997 46.9325H137.109L138.452 43.8027L135.794 37.1728H137.791L139.425 41.8638L141.175 37.1728H143.194ZM144.066 34.7183H145.823V36.3086H144.066V34.7183ZM144.066 37.1728H145.823V44.4926H144.066V37.1728ZM153.767 34.7183H155.22L159.286 44.4926H157.289L156.287 41.9655H152.692L151.69 44.4926H149.693L153.767 34.7183ZM155.597 40.2082L154.493 37.3543L153.382 40.2082H155.597ZM167.383 43.3815C167.41 43.9062 167.327 44.4307 167.139 44.9212C166.951 45.4117 166.662 45.8574 166.291 46.2295C165.92 46.6017 165.476 46.8921 164.986 47.0819C164.496 47.2718 163.972 47.357 163.447 47.3319C162.627 47.36 161.822 47.1097 161.163 46.6218C160.504 46.1339 160.029 45.4372 159.816 44.6451H161.842C161.975 44.9636 162.203 45.2329 162.496 45.4151C162.789 45.5974 163.132 45.6836 163.476 45.6617C164.026 45.6855 164.563 45.4914 164.971 45.1217C165.379 44.7519 165.625 44.2362 165.655 43.6865V43.4178C165.417 43.7766 165.093 44.0697 164.712 44.2702C164.331 44.4707 163.906 44.5722 163.476 44.5652C162.477 44.5423 161.528 44.1259 160.834 43.4065C160.14 42.6871 159.759 41.7229 159.773 40.7237C159.761 40.227 159.849 39.7331 160.032 39.2712C160.216 38.8094 160.49 38.3891 160.839 38.0354C161.188 37.6817 161.604 37.4019 162.064 37.2125C162.523 37.0231 163.016 36.9281 163.512 36.9331C163.97 36.9131 164.425 37.0181 164.828 37.2369C165.231 37.4556 165.567 37.7799 165.8 38.1749V37.1728H167.412L167.383 43.3815ZM161.479 40.7092C161.464 40.995 161.508 41.2808 161.609 41.5486C161.71 41.8164 161.865 42.0604 162.065 42.2651C162.265 42.4698 162.505 42.6309 162.771 42.738C163.036 42.8452 163.321 42.8962 163.607 42.8877C164.04 42.8978 164.466 42.7787 164.831 42.5456C165.196 42.3124 165.483 41.9758 165.655 41.5787C165.828 41.1817 165.879 40.7421 165.8 40.3162C165.722 39.8904 165.519 39.4974 165.216 39.1877C164.914 38.8779 164.526 38.6653 164.102 38.577C163.678 38.4888 163.237 38.5288 162.836 38.6921C162.435 38.8554 162.092 39.1345 161.85 39.4938C161.608 39.8531 161.479 40.2762 161.479 40.7092ZM170.389 41.6097C170.489 42.0363 170.734 42.4148 171.083 42.6799C171.431 42.9451 171.861 43.0802 172.299 43.062C172.606 43.0768 172.913 43.0232 173.196 42.9052C173.48 42.7871 173.734 42.6076 173.94 42.3794H175.923C175.581 43.2106 174.961 43.897 174.169 44.321C173.377 44.745 172.462 44.8802 171.581 44.7033C170.7 44.5264 169.908 44.0485 169.341 43.3516C168.773 42.6546 168.466 41.782 168.472 40.8835C168.467 40.3677 168.565 39.856 168.758 39.3779C168.952 38.8997 169.238 38.4646 169.601 38.0975C169.963 37.7304 170.394 37.4385 170.87 37.2387C171.345 37.0389 171.856 36.935 172.372 36.9331C172.879 36.9276 173.382 37.0258 173.85 37.2216C174.318 37.4174 174.741 37.7068 175.093 38.0719C175.445 38.437 175.719 38.8702 175.898 39.3449C176.077 39.8197 176.157 40.3259 176.133 40.8327C176.139 41.0922 176.127 41.3518 176.097 41.6097H170.389ZM174.325 40.0484C174.215 39.6234 173.964 39.2483 173.613 38.9845C173.262 38.7206 172.832 38.5837 172.393 38.5961C171.944 38.5882 171.503 38.7252 171.137 38.9867C170.771 39.2481 170.499 39.6204 170.36 40.0484H174.325ZM177.273 37.1728H178.878V37.8481C179.116 37.5463 179.423 37.3057 179.773 37.1466C180.123 36.9874 180.506 36.9142 180.89 36.9331C182.574 36.9331 183.736 38.1458 183.736 40.2082V44.4926H181.979V40.6076C181.979 38.9664 181.202 38.5961 180.527 38.5961C179.074 38.5961 179.002 39.9613 179.002 40.6076V44.4926H177.252L177.273 37.1728ZM185.457 38.734H184.6V37.1728H185.457V34.7183H187.215V37.1728H188.275V38.734H187.215V44.4926H185.457V38.734ZM189.161 34.7183H190.918V44.4926H189.161V34.7183ZM192.334 34.7183H194.092V36.3086H192.334V34.7183ZM192.334 37.1728H194.092V44.4926H192.334V37.1728ZM202.29 37.1728L198.093 46.9325H196.205L197.519 43.8027L194.839 37.1728H196.836L198.514 41.8638L200.264 37.1728H202.29ZM203.161 34.7183H204.919V36.3086H203.161V34.7183ZM203.161 37.1728H204.919V44.4926H203.161V37.1728Z" fill="black"/>
</svg>
