<svg width="279" height="53" viewBox="0 0 279 53" fill="none" xmlns="http://www.w3.org/2000/svg">
<g clip-path="url(#clip0_602_208)">
<path fill-rule="evenodd" clip-rule="evenodd" d="M41.2006 47.7334C47.7307 43.1525 51.5199 36.1253 52.2325 28.7542C49.1982 30.5509 46.014 32.1167 42.6986 33.3911C36.0697 35.9398 29.1909 37.3301 22.298 37.5681C16.6885 39.6492 10.9415 41.0725 5.14746 41.844C13.566 53.2313 29.5437 55.909 41.2006 47.7334Z" fill="#B7D165"/>
<path fill-rule="evenodd" clip-rule="evenodd" d="M41.8351 5.20637C37.2651 1.79199 31.7409 -0.000588599 26.1521 1.44976e-07C20.9636 1.44976e-07 15.7239 1.53994 11.1504 4.74703C9.93046 5.60269 8.82985 6.56199 7.80273 7.57429C16.0914 10.9551 24.8357 12.5251 33.5653 12.2236C33.8634 12.1129 34.1579 12.0016 34.4554 11.8867C34.7441 11.776 35.0333 11.6629 35.3191 11.5481C37.6679 9.57769 39.835 7.4518 41.8351 5.20637Z" fill="#E5EECF"/>
<path fill-rule="evenodd" clip-rule="evenodd" d="M46.9572 10.2846C46.1335 9.20698 45.2451 8.20705 44.295 7.29309C41.3989 8.88898 38.4057 10.3212 35.3197 11.549C35.0669 11.7616 34.8105 11.973 34.5542 12.1809C38.7138 11.9706 42.8664 11.337 46.9572 10.2846Z" fill="#1862AC"/>
<path fill-rule="evenodd" clip-rule="evenodd" d="M44.2947 7.29332C43.5122 6.54131 42.6902 5.84583 41.8354 5.2063C39.8346 7.45173 37.6681 9.57821 35.3193 11.5492C38.4054 10.3208 41.3985 8.88862 44.2947 7.29332Z" fill="#5686C3"/>
<path fill-rule="evenodd" clip-rule="evenodd" d="M8.077 24.8971C5.40192 25.4783 2.70449 25.8611 0.000594803 26.0866C-0.0188069 28.9822 0.436252 31.8907 1.39282 34.6992C8.20635 36.8521 15.2592 37.8114 22.2985 37.5676C22.596 37.4581 22.894 37.345 23.1915 37.2308C29.2431 34.9041 34.9813 31.8519 40.2468 28.1589C40.355 28.0824 40.4644 28.0064 40.572 27.9299C29.6858 29.216 18.6551 28.1996 8.077 24.8971Z" fill="#1862AC"/>
<path fill-rule="evenodd" clip-rule="evenodd" d="M5.14735 41.844C10.9414 41.0725 16.689 39.6492 22.2985 37.5681C15.2592 37.8119 8.20636 36.8526 1.39282 34.6996C2.17242 36.988 3.26303 39.2099 4.71698 41.2898C4.85221 41.4836 5.00742 41.655 5.14735 41.844Z" fill="#5686C3"/>
<path fill-rule="evenodd" clip-rule="evenodd" d="M52.358 25.6082C52.3051 23.3168 51.9394 21.0248 51.2762 18.7859C48.0244 22.096 44.4645 25.17 40.5718 27.9296C44.5303 27.462 48.4677 26.6852 52.358 25.6082Z" fill="#00983F"/>
<path fill-rule="evenodd" clip-rule="evenodd" d="M7.80256 7.57434C5.04222 10.295 2.968 13.5168 1.66162 17.0066C12.2162 17.6226 23.0529 16.1221 33.5651 12.2236C24.8361 12.5251 16.0912 10.9552 7.80256 7.57434Z" fill="#B7D165"/>
<path fill-rule="evenodd" clip-rule="evenodd" d="M51.2765 18.7859C50.4939 16.1418 49.2998 13.5742 47.6336 11.191C47.4161 10.8794 47.185 10.5832 46.9569 10.2847C42.8661 11.3364 38.7153 11.9701 34.5551 12.1809C33.3992 13.1202 32.2046 14.0229 30.9705 14.8886C26.7844 17.8242 22.2168 20.2528 17.3958 22.1066C14.335 23.2832 11.2219 24.2137 8.07764 24.8968C18.6545 28.1998 29.6853 29.2157 40.572 27.9295C44.4647 25.17 48.0252 22.096 51.2765 18.7859Z" fill="#1D3E91"/>
<path fill-rule="evenodd" clip-rule="evenodd" d="M34.6129 12.1322L35.3191 11.548C35.0333 11.6628 34.7452 11.7759 34.456 11.8866C34.1597 12.0008 33.8657 12.1121 33.567 12.2228H33.5647C23.0525 16.1219 12.2157 17.6224 1.66177 17.0064C1.05502 18.6276 0.61525 20.3024 0.337158 22.0061C2.88525 23.1008 5.4645 24.0807 8.07786 24.8969C11.2215 24.2126 14.3346 23.2839 17.3954 22.1068C22.217 20.2529 26.7846 17.8244 30.9701 14.8887C32.2042 14.0231 33.3995 13.1197 34.553 12.1816L34.5542 12.181C34.5747 12.1651 34.593 12.1481 34.6129 12.1322ZM34.6129 12.1322L34.5542 12.181L35.2938 11.5704C35.0686 11.7594 34.8411 11.9467 34.6129 12.1322Z" fill="#51B164"/>
<path d="M69.3683 22.6583C71.1289 22.6583 72.5864 22.0223 73.5389 20.8515L72.038 19.4639C71.3598 20.2589 70.5083 20.6636 69.4982 20.6636C67.6077 20.6636 66.2656 19.3338 66.2656 17.4258C66.2656 15.5178 67.6077 14.188 69.4982 14.188C70.5083 14.188 71.3598 14.5927 72.038 15.3732L73.5389 13.9856C72.5864 12.8292 71.1289 12.1932 69.3827 12.1932C66.2368 12.1932 63.8989 14.3759 63.8989 17.4258C63.8989 20.4757 66.2368 22.6583 69.3683 22.6583ZM82.515 22.4849V20.5769H77.4497V12.3667H75.1118V22.4849H82.515ZM86.166 22.4849V12.3667H83.8282V22.4849H86.166ZM90.7551 22.4849V16.5441L93.7134 21.4152H94.7669L97.7397 16.414L97.7541 22.4849H99.9476L99.9188 12.3667H97.9995L94.2763 18.6544L90.4953 12.3667H88.5616V22.4849H90.7551ZM103.411 22.4849L104.306 20.3167H108.996L109.891 22.4849H112.344L107.827 12.3667H105.518L101.016 22.4849H103.411ZM108.26 18.5388H105.056L106.658 14.665L108.26 18.5388ZM117.828 22.4849V14.2747H121.06V12.3667H112.257V14.2747H115.49V22.4849H117.828ZM130.137 22.4849V20.6058H124.639V18.2641H129.329V16.4429H124.639V14.2458H129.95V12.3667H122.316V22.4849H130.137ZM137.151 22.4849L138.046 20.3167H142.736L143.63 22.4849H146.084L141.567 12.3667H139.258L134.755 22.4849H137.151ZM142 18.5388H138.796L140.398 14.665L142 18.5388ZM151.972 22.6583C153.732 22.6583 155.19 22.0223 156.142 20.8515L154.641 19.4639C153.963 20.2589 153.112 20.6636 152.101 20.6636C150.211 20.6636 148.869 19.3338 148.869 17.4258C148.869 15.5178 150.211 14.188 152.101 14.188C153.112 14.188 153.963 14.5927 154.641 15.3732L156.142 13.9856C155.19 12.8292 153.732 12.1932 151.986 12.1932C148.84 12.1932 146.502 14.3759 146.502 17.4258C146.502 20.4757 148.84 22.6583 151.972 22.6583ZM162.145 22.4849V14.2747H165.378V12.3667H156.575V14.2747H159.808V22.4849H162.145ZM168.971 22.4849V12.3667H166.633V22.4849H168.971ZM176.259 22.6583C179.434 22.6583 181.786 20.4468 181.786 17.4258C181.786 14.4048 179.434 12.1932 176.259 12.1932C173.07 12.1932 170.732 14.4192 170.732 17.4258C170.732 20.4323 173.07 22.6583 176.259 22.6583ZM176.259 20.6636C174.455 20.6636 173.099 19.3482 173.099 17.4258C173.099 15.5033 174.455 14.188 176.259 14.188C178.063 14.188 179.419 15.5033 179.419 17.4258C179.419 19.3482 178.063 20.6636 176.259 20.6636ZM185.856 22.4849V16.3417L190.892 22.4849H192.811V12.3667H190.502V18.5099L185.48 12.3667H183.547V22.4849H185.856ZM201.6 22.4849V16.3417L206.636 22.4849H208.556V12.3667H206.247V18.5099L201.225 12.3667H199.291V22.4849H201.6ZM218.773 22.4849V20.6058H213.275V18.2641H217.965V16.4429H213.275V14.2458H218.585V12.3667H210.951V22.4849H218.773ZM225.065 22.4849V14.2747H228.297V12.3667H219.494V14.2747H222.727V22.4849H225.065ZM234.488 22.4849L236.783 15.6334L239.005 22.4849H241.516L244.821 12.3667H242.584L240.232 19.5361L237.923 12.3667H235.758L233.377 19.4783L231.097 12.3667H228.672L231.992 22.4849H234.488ZM251.228 22.6583C254.403 22.6583 256.755 20.4468 256.755 17.4258C256.755 14.4048 254.403 12.1932 251.228 12.1932C248.039 12.1932 245.701 14.4192 245.701 17.4258C245.701 20.4323 248.039 22.6583 251.228 22.6583ZM251.228 20.6636C249.424 20.6636 248.068 19.3482 248.068 17.4258C248.068 15.5033 249.424 14.188 251.228 14.188C253.032 14.188 254.389 15.5033 254.389 17.4258C254.389 19.3482 253.032 20.6636 251.228 20.6636ZM260.854 22.4849V19.6662H263.004L264.952 22.4849H267.463L265.197 19.2326C266.511 18.6689 267.275 17.5559 267.275 16.0381C267.275 13.7688 265.587 12.3667 262.888 12.3667H258.516V22.4849H260.854ZM262.759 17.8016H260.854V14.2747H262.759C264.187 14.2747 264.909 14.9251 264.909 16.0381C264.909 17.1367 264.187 17.8016 262.759 17.8016ZM271.446 22.4849V19.9264L272.803 18.5099L276.035 22.4849H278.763L274.332 16.8765L278.517 12.3667H275.92L271.446 17.0933V12.3667H269.123V22.4849H271.446Z" fill="black"/>
<path d="M66.872 41.7576V31.6394H64.5342V41.7576H66.872ZM71.5765 41.7576V35.6144L76.613 41.7576H78.5323V31.6394H76.2233V37.7826L71.2013 31.6394H69.2676V41.7576H71.5765ZM85.3582 41.7576V33.5474H88.5907V31.6394H79.7878V33.5474H83.0203V41.7576H85.3582ZM97.6678 41.7576V39.8785H92.1696V37.5369H96.8597V35.7156H92.1696V33.5185H97.4802V31.6394H89.8462V41.7576H97.6678ZM101.867 41.7576V38.9389H104.017L105.966 41.7576H108.477L106.211 38.5053C107.524 37.9416 108.289 36.8286 108.289 35.3109C108.289 33.0415 106.601 31.6394 103.902 31.6394H99.5294V41.7576H101.867ZM103.772 37.0743H101.867V33.5474H103.772C105.201 33.5474 105.922 34.1979 105.922 35.3109C105.922 36.4094 105.201 37.0743 103.772 37.0743ZM112.445 41.7576V35.6144L117.482 41.7576H119.401V31.6394H117.092V37.7826L112.07 31.6394H110.136V41.7576H112.445ZM122.864 41.7576L123.759 39.5894H128.449L129.344 41.7576H131.797L127.28 31.6394H124.971L120.469 41.7576H122.864ZM127.713 37.8115H124.51L126.111 33.9377L127.713 37.8115ZM137.281 41.7576V33.5474H140.514V31.6394H131.711V33.5474H134.943V41.7576H137.281ZM144.107 41.7576V31.6394H141.769V41.7576H144.107ZM151.395 41.931C154.569 41.931 156.922 39.7195 156.922 36.6985C156.922 33.6775 154.569 31.4659 151.395 31.4659C148.205 31.4659 145.867 33.6919 145.867 36.6985C145.867 39.705 148.205 41.931 151.395 41.931ZM151.395 39.9363C149.591 39.9363 148.234 38.6209 148.234 36.6985C148.234 34.776 149.591 33.4607 151.395 33.4607C153.198 33.4607 154.555 34.776 154.555 36.6985C154.555 38.6209 153.198 39.9363 151.395 39.9363ZM160.991 41.7576V35.6144L166.028 41.7576H167.947V31.6394H165.638V37.7826L160.616 31.6394H158.682V41.7576H160.991ZM171.41 41.7576L172.305 39.5894H176.995L177.89 41.7576H180.343L175.826 31.6394H173.517L169.015 41.7576H171.41ZM176.259 37.8115H173.056L174.657 33.9377L176.259 37.8115ZM188.8 41.7576V39.8496H183.735V31.6394H181.397V41.7576H188.8Z" fill="black"/>
</g>
<defs>
<clipPath id="clip0_602_208">
<rect width="279" height="53" fill="white"/>
</clipPath>
</defs>
</svg>
