<svg width="30" height="30" viewBox="0 0 30 30" fill="none" xmlns="http://www.w3.org/2000/svg">
<path d="M8.67499 6.25C8.67466 6.91304 8.41095 7.54879 7.94187 8.0174C7.4728 8.48601 6.83678 8.74908 6.17374 8.74875C5.5107 8.74842 4.87494 8.48471 4.40634 8.01563C3.93773 7.54656 3.67466 6.91054 3.67499 6.2475C3.67532 5.58446 3.93903 4.9487 4.4081 4.4801C4.87718 4.01149 5.5132 3.74842 6.17624 3.74875C6.83928 3.74908 7.47503 4.01279 7.94364 4.48187C8.41225 4.95094 8.67532 5.58696 8.67499 6.25ZM8.74999 10.6H3.74999V26.25H8.74999V10.6ZM16.65 10.6H11.675V26.25H16.6V18.0375C16.6 13.4625 22.5625 13.0375 22.5625 18.0375V26.25H27.5V16.3375C27.5 8.625 18.675 8.9125 16.6 12.7L16.65 10.6Z" fill="white"/>
</svg>
