<svg width="33" height="33" viewBox="0 0 33 33" fill="none" xmlns="http://www.w3.org/2000/svg">
<path d="M30.217 7.90871C29.2677 8.31763 28.2697 8.60238 27.2476 8.75592C27.7255 8.67393 28.4286 7.81306 28.7085 7.46461C29.1336 6.93901 29.4577 6.339 29.6641 5.69505C29.6641 5.64722 29.7119 5.5789 29.6641 5.54474C29.64 5.53158 29.6131 5.52469 29.5856 5.52469C29.5582 5.52469 29.5312 5.53158 29.5071 5.54474C28.3973 6.14627 27.2162 6.60538 25.9916 6.9112C25.9489 6.92425 25.9035 6.92542 25.8602 6.91459C25.8169 6.90375 25.7774 6.88133 25.7459 6.84971C25.6506 6.73611 25.5479 6.62884 25.4387 6.52859C24.9392 6.0807 24.3726 5.71412 23.7594 5.44226C22.9318 5.1024 22.0378 4.95522 21.145 5.01182C20.2787 5.06658 19.4329 5.29914 18.6602 5.69505C17.8994 6.11245 17.2307 6.6795 16.6943 7.36213C16.1301 8.06473 15.7228 8.88011 15.4997 9.75343C15.3158 10.5841 15.2949 11.4427 15.4383 12.2814C15.4383 12.4249 15.4383 12.4454 15.3154 12.4249C10.4483 11.7075 6.45496 9.9789 3.19202 6.26896C3.04867 6.10499 2.97358 6.10499 2.85753 6.26896C1.43768 8.42797 2.12713 11.8441 3.90195 13.5317C4.14087 13.7572 4.38661 13.9758 4.64601 14.1808C3.83226 14.1229 3.03839 13.9022 2.31144 13.5317C2.17491 13.4429 2.09982 13.4907 2.093 13.6547C2.07365 13.882 2.07365 14.1106 2.093 14.3379C2.23543 15.4274 2.66441 16.4594 3.33605 17.3286C4.0077 18.1977 4.89792 18.8727 5.91568 19.2845C6.16379 19.3908 6.42231 19.471 6.68705 19.5236C5.93372 19.6721 5.16109 19.6951 4.40026 19.5919C4.23643 19.5578 4.175 19.6466 4.23643 19.8037C5.23989 22.5367 7.41745 23.3702 9.01479 23.8348C9.23323 23.869 9.45167 23.869 9.69741 23.9236C9.69741 23.9236 9.69741 23.9236 9.65646 23.9646C9.18545 24.8255 7.28093 25.4062 6.40717 25.7068C4.81234 26.2802 3.11196 26.4994 1.42403 26.3491C1.1578 26.3081 1.09637 26.3149 1.02811 26.3491C0.959844 26.3832 1.02811 26.4584 1.10319 26.5267C1.44451 26.7522 1.78582 26.9503 2.14078 27.1416C3.19751 27.7185 4.31469 28.1768 5.47198 28.5081C11.4654 30.1615 18.2097 28.9453 22.7082 24.4702C26.2442 20.9584 27.4866 16.1143 27.4866 11.2634C27.4866 11.0789 27.7118 10.9696 27.8415 10.8739C28.7361 10.1763 29.5248 9.35237 30.1829 8.42797C30.2969 8.29017 30.3553 8.11473 30.3467 7.93604C30.3467 7.83356 30.3467 7.85406 30.217 7.90871Z" fill="white"/>
</svg>
