<svg width="59" height="45" viewBox="0 0 59 45" fill="none" xmlns="http://www.w3.org/2000/svg">
<mask id="mask0_3_11488" style="mask-type:luminance" maskUnits="userSpaceOnUse" x="0" y="20" width="37" height="25">
<path d="M0 44.8862L0 20.8235L36.0941 20.8235V44.8862L0 44.8862Z" fill="white"/>
</mask>
<g mask="url(#mask0_3_11488)">
<mask id="mask1_3_11488" style="mask-type:luminance" maskUnits="userSpaceOnUse" x="-3" y="-3" width="66" height="53">
<path d="M55.6414 -2.55236L62.8212 39.7346L4.84433 49.5787L-2.33545 7.2882L55.6414 -2.55236Z" fill="white"/>
</mask>
<g mask="url(#mask1_3_11488)">
<mask id="mask2_3_11488" style="mask-type:luminance" maskUnits="userSpaceOnUse" x="-3" y="-3" width="66" height="53">
<path d="M55.6414 -2.55236L62.8212 39.7346L4.84433 49.5787L-2.33545 7.2882L55.6414 -2.55236Z" fill="white"/>
</mask>
<g mask="url(#mask2_3_11488)">
<mask id="mask3_3_11488" style="mask-type:luminance" maskUnits="userSpaceOnUse" x="-3" y="-3" width="66" height="53">
<path d="M55.6414 -2.55236L62.8212 39.7346L4.84433 49.5787L-2.33545 7.2882L55.6414 -2.55236Z" fill="white"/>
</mask>
<g mask="url(#mask3_3_11488)">
<mask id="mask4_3_11488" style="mask-type:luminance" maskUnits="userSpaceOnUse" x="0" y="21" width="36" height="24">
<path d="M21.492 40.1289C19.1711 38.1622 17.4719 35.5629 15.8776 32.9672C14.2833 30.3715 12.7432 27.7035 10.6392 25.4982C10.6211 25.4801 10.6103 25.4621 10.5922 25.4476C8.0688 22.8193 4.49699 21.4745 0.867335 21.7276C0.621502 21.7456 0.375669 21.7673 0.126221 21.789C3.16298 21.9951 5.92861 23.734 8.03265 25.9393C10.1367 28.1445 11.6768 30.8089 13.2711 33.4119C14.8618 36.0076 16.5573 38.6033 18.8818 40.5736C23.3358 44.3478 29.7166 45.342 35.4069 44.0008C30.4469 44.5286 25.2771 43.3392 21.492 40.1289Z" fill="white"/>
</mask>
<g mask="url(#mask4_3_11488)">
<path d="M39.3438 44.673L1.11672 51.1622L-3.81079 22.1431L34.4163 15.6538L39.3438 44.673Z" fill="url(#paint0_linear_3_11488)"/>
</g>
</g>
</g>
</g>
</g>
<mask id="mask5_3_11488" style="mask-type:luminance" maskUnits="userSpaceOnUse" x="4" y="15" width="49" height="28">
<path d="M4.62744 42.1096L4.62744 15.2704L52.7529 15.2704V42.1096L4.62744 42.1096Z" fill="white"/>
</mask>
<g mask="url(#mask5_3_11488)">
<mask id="mask6_3_11488" style="mask-type:luminance" maskUnits="userSpaceOnUse" x="-3" y="-3" width="66" height="53">
<path d="M55.6414 -2.55236L62.8212 39.7346L4.84433 49.5787L-2.33545 7.2882L55.6414 -2.55236Z" fill="white"/>
</mask>
<g mask="url(#mask6_3_11488)">
<mask id="mask7_3_11488" style="mask-type:luminance" maskUnits="userSpaceOnUse" x="-3" y="-3" width="66" height="53">
<path d="M55.6414 -2.55236L62.8212 39.7346L4.84433 49.5787L-2.33545 7.2882L55.6414 -2.55236Z" fill="white"/>
</mask>
<g mask="url(#mask7_3_11488)">
<mask id="mask8_3_11488" style="mask-type:luminance" maskUnits="userSpaceOnUse" x="-3" y="-3" width="66" height="53">
<path d="M55.6414 -2.55236L62.8212 39.7346L4.84433 49.5787L-2.33545 7.2882L55.6414 -2.55236Z" fill="white"/>
</mask>
<g mask="url(#mask8_3_11488)">
<mask id="mask9_3_11488" style="mask-type:luminance" maskUnits="userSpaceOnUse" x="4" y="16" width="48" height="26">
<path d="M38.0606 40.8082C43.4726 39.3694 48.1687 35.8735 51.9249 31.7124C48.9098 33.3754 45.0235 32.392 42.247 30.3531C39.4705 28.3141 37.5075 25.3894 35.3528 22.7069C33.1982 20.0208 30.6386 17.4215 27.338 16.4635C24.8037 15.7296 22.0562 16.0514 19.5544 16.8937C17.9059 17.4468 16.3405 18.2169 14.8077 19.0592C16.89 19.5256 18.9037 20.2884 20.7691 21.3295C24.594 23.4661 27.9345 26.4125 31.0688 29.4818C37.0628 35.3529 39.1343 35.4577 42.764 34.9914C39.955 36.1627 36.6507 35.2119 34.1128 33.5236C31.575 31.8353 29.5541 29.4854 27.244 27.4971C21.1198 22.2261 12.8193 19.5798 4.78638 20.3354C7.599 20.5306 10.1694 22.1393 12.118 24.1855C14.0702 26.2354 15.4982 28.7081 16.9732 31.1159C18.4518 33.5236 20.0244 35.9349 22.1827 37.757C26.4559 41.3902 32.6451 42.247 38.0606 40.8082Z" fill="white"/>
</mask>
<g mask="url(#mask9_3_11488)">
<path d="M56.2993 41.5028L6.10599 50.0238L0.408447 16.4712L50.6018 7.95018L56.2993 41.5028Z" fill="url(#paint1_linear_3_11488)"/>
</g>
</g>
</g>
</g>
</g>
<mask id="mask10_3_11488" style="mask-type:luminance" maskUnits="userSpaceOnUse" x="22" y="0" width="37" height="25">
<path d="M22.906 24.0629L22.906 0.000135422L59.0001 0.000135422V24.0629L22.906 24.0629Z" fill="white"/>
</mask>
<g mask="url(#mask10_3_11488)">
<mask id="mask11_3_11488" style="mask-type:luminance" maskUnits="userSpaceOnUse" x="-2" y="-4" width="66" height="54">
<path d="M56.3355 -3.01513L63.5153 39.2718L5.53842 49.116L-1.64136 6.82543L56.3355 -3.01513Z" fill="white"/>
</mask>
<g mask="url(#mask11_3_11488)">
<mask id="mask12_3_11488" style="mask-type:luminance" maskUnits="userSpaceOnUse" x="-2" y="-4" width="66" height="54">
<path d="M56.3355 -3.01513L63.5153 39.2718L5.53842 49.116L-1.64136 6.82543L56.3355 -3.01513Z" fill="white"/>
</mask>
<g mask="url(#mask12_3_11488)">
<mask id="mask13_3_11488" style="mask-type:luminance" maskUnits="userSpaceOnUse" x="-2" y="-4" width="66" height="54">
<path d="M56.3355 -3.01513L63.5153 39.2718L5.53842 49.116L-1.64136 6.82543L56.3355 -3.01513Z" fill="white"/>
</mask>
<g mask="url(#mask13_3_11488)">
<path d="M29.1491 14.3019C30.6711 14.7429 32.0304 15.531 33.2668 16.5144C33.6103 16.1673 33.9465 15.8166 34.2791 15.4515C36.3253 13.1884 38.0317 10.6108 40.3418 8.61516C42.6519 6.62681 45.8079 5.26749 48.7435 6.08453C44.4125 6.2689 42.7856 7.32092 37.8292 13.0076C36.5964 14.4176 35.3853 15.8564 34.1272 17.2446C35.2335 18.246 36.2385 19.3884 37.1676 20.5489C37.9847 21.572 38.7764 22.624 39.597 23.6508C40.8768 22.3348 41.9578 20.7731 42.923 19.2005C44.727 16.2649 46.3104 13.1233 48.8122 10.7554C51.3103 8.38741 55.0411 6.92687 58.2406 8.19942C53.9963 4.53723 48.9062 1.65591 43.3496 0.900339C37.7967 0.148378 31.7665 1.76437 27.9742 5.89654C26.069 7.97528 24.8073 10.5638 23.6396 13.1378C23.4733 13.5065 23.307 13.8717 23.1443 14.2368C25.1326 13.7994 27.2005 13.7451 29.1491 14.3019Z" fill="#007931"/>
</g>
</g>
</g>
</g>
<defs>
<linearGradient id="paint0_linear_3_11488" x1="36.7993" y1="29.6849" x2="-1.42932" y2="36.1747" gradientUnits="userSpaceOnUse">
<stop stop-color="#7DB141"/>
<stop offset="0.125" stop-color="#7CB141"/>
<stop offset="0.25" stop-color="#7CB041"/>
<stop offset="0.375" stop-color="#7BB041"/>
<stop offset="0.5" stop-color="#7BAF40"/>
<stop offset="0.625" stop-color="#7AAF40"/>
<stop offset="0.75" stop-color="#7AAE40"/>
<stop offset="0.875" stop-color="#7AAE40"/>
<stop offset="1" stop-color="#79AD40"/>
</linearGradient>
<linearGradient id="paint1_linear_3_11488" x1="53.4306" y1="24.606" x2="3.23664" y2="33.1271" gradientUnits="userSpaceOnUse">
<stop stop-color="#7EB341"/>
<stop offset="0.125" stop-color="#7EB341"/>
<stop offset="0.25" stop-color="#7DB241"/>
<stop offset="0.375" stop-color="#7DB141"/>
<stop offset="0.5" stop-color="#7CB141"/>
<stop offset="0.625" stop-color="#7BB041"/>
<stop offset="0.75" stop-color="#7BAF40"/>
<stop offset="0.875" stop-color="#7AAE40"/>
<stop offset="1" stop-color="#7AAE40"/>
</linearGradient>
</defs>
</svg>
