<svg width="70" height="81" viewBox="0 0 70 81" fill="none" xmlns="http://www.w3.org/2000/svg">
<path d="M51.9386 48.5994C51.087 49.5381 50.0431 50.238 48.9021 50.7809C49.0309 51.1496 49.1647 51.5144 49.3102 51.8817C50.2175 54.1471 51.4702 56.2789 52.0926 58.6399C52.7097 60.9984 52.5776 63.7438 50.9592 65.5662C52.3483 62.3893 52.1639 60.8507 49.819 55.2913C49.239 53.9101 48.6306 52.5343 48.0751 51.1426C46.9669 51.5857 45.7929 51.9065 44.6326 52.1664C43.6104 52.394 42.5763 52.5933 41.5502 52.8223C42.0462 54.2042 42.7886 55.5297 43.5795 56.7758C45.0551 59.1034 46.7562 61.3449 47.5788 63.9745C48.4026 66.6015 48.1413 69.7955 46.1029 71.6474C50.2255 69.8843 54.0843 67.239 56.5794 63.5117C59.0706 59.7858 60.028 54.885 58.3912 50.7082C57.5668 48.6089 56.1501 46.7928 54.7108 45.0494C54.5042 44.8004 54.3003 44.5526 54.0951 44.3074C53.7108 45.8899 53.0233 47.3948 51.9386 48.5994Z" fill="#7AAE40"/>
<path d="M19.0673 29.1968C19.8694 28.0493 20.9154 27.1367 22.0898 26.3824C21.8972 25.9964 21.6996 25.6154 21.4889 25.2333C20.1784 22.8778 18.5081 20.717 17.4964 18.2169C16.4908 15.7189 16.2521 12.6923 17.7709 10.4696C16.6925 14.1445 17.1095 15.8045 20.4552 21.5685C21.2836 23.0008 22.1424 24.4233 22.9454 25.8706C24.0978 25.2304 25.3394 24.7149 26.5744 24.2681C27.6626 23.8759 28.7679 23.5131 29.8602 23.1189C29.1237 21.674 28.1251 20.3254 27.0845 19.0705C25.1427 16.7262 22.9657 14.5078 21.6971 11.7414C20.4275 8.97812 20.2678 5.44197 22.2427 3.12814C17.9717 5.63574 14.1132 9.07313 11.8998 13.5056C9.69054 17.936 9.32597 23.4395 11.7028 27.7874C12.8992 29.9725 14.7051 31.7644 16.5257 33.4737C16.7868 33.7177 17.0449 33.9607 17.304 34.2007C17.504 32.4131 18.0471 30.6681 19.0673 29.1968Z" fill="#7AAE40"/>
<mask id="mask0_7_866" style="mask-type:luminance" maskUnits="userSpaceOnUse" x="0" y="0" width="70" height="81">
<path d="M34.946 0L69.1685 19.4892L34.2223 80.8535L-7.03396e-05 61.3643L34.946 0Z" fill="white"/>
</mask>
<g mask="url(#mask0_7_866)">
<mask id="mask1_7_866" style="mask-type:luminance" maskUnits="userSpaceOnUse" x="-5" y="-6" width="90" height="104">
<path d="M54.8507 97.4788L-4.28252 75.9271L25.2649 -5.1469L84.4028 16.4074L54.8507 97.4788Z" fill="white"/>
</mask>
<g mask="url(#mask1_7_866)">
<mask id="mask2_7_866" style="mask-type:luminance" maskUnits="userSpaceOnUse" x="-5" y="-6" width="90" height="104">
<path d="M54.8507 97.4788L-4.28252 75.9271L25.2649 -5.1469L84.4028 16.4074L54.8507 97.4788Z" fill="white"/>
</mask>
<g mask="url(#mask2_7_866)">
<mask id="mask3_7_866" style="mask-type:luminance" maskUnits="userSpaceOnUse" x="-5" y="-6" width="90" height="104">
<path d="M54.8507 97.4788L-4.28252 75.9271L25.2649 -5.1469L84.4028 16.4074L54.8507 97.4788Z" fill="white"/>
</mask>
<g mask="url(#mask3_7_866)">
<mask id="mask4_7_866" style="mask-type:luminance" maskUnits="userSpaceOnUse" x="11" y="16" width="52" height="52">
<path d="M12.3282 43.5756C10.233 51.5211 11.2805 60.0476 13.8587 67.8586C13.9277 62.8066 18.0035 58.5652 22.6195 56.5055C27.2355 54.4459 32.3902 54.0666 37.3752 53.2671C42.3648 52.4702 47.5378 51.094 51.1562 47.581C53.9322 44.8825 55.517 41.1455 56.2596 37.3439C56.7514 34.8403 56.9062 32.2851 56.9452 29.7189C54.8385 32.0355 52.4036 34.0492 49.7214 35.6717C44.2197 38.9973 38.0371 41.1172 31.8475 42.885C20.0088 46.2646 18.3709 48.8299 16.3299 53.7967C16.8761 49.3644 20.4879 45.8415 24.4834 43.8315C28.479 41.8214 32.9428 40.9509 37.1556 39.4492C48.3236 35.4678 57.7252 26.8056 62.5949 16.0142C60.3036 19.4588 56.3858 21.568 52.3618 22.5668C48.3305 23.5676 44.1405 23.5928 39.9994 23.7252C35.8556 23.8622 31.639 24.1165 27.7485 25.5454C20.0128 28.3558 14.4261 35.6254 12.3282 43.5756Z" fill="white"/>
</mask>
<g mask="url(#mask4_7_866)">
<path d="M-1.80144 66.3273L23.7812 -3.86121L70.7011 13.238L45.1184 83.4266L-1.80144 66.3273Z" fill="#007931"/>
</g>
</g>
</g>
</g>
</g>
</svg>
