<svg width="59" height="45" viewBox="0 0 59 45" fill="none" xmlns="http://www.w3.org/2000/svg">
<mask id="mask0_3_11428" style="mask-type:luminance" maskUnits="userSpaceOnUse" x="22" y="0" width="37" height="25">
<path d="M59 0V24.0627L22.9059 24.0627V0L59 0Z" fill="white"/>
</mask>
<g mask="url(#mask0_3_11428)">
<mask id="mask1_3_11428" style="mask-type:luminance" maskUnits="userSpaceOnUse" x="-4" y="-5" width="66" height="53">
<path d="M3.35859 47.4386L-3.82119 5.15167L54.1557 -4.6925L61.3354 37.598L3.35859 47.4386Z" fill="white"/>
</mask>
<g mask="url(#mask1_3_11428)">
<mask id="mask2_3_11428" style="mask-type:luminance" maskUnits="userSpaceOnUse" x="-4" y="-5" width="66" height="53">
<path d="M3.35859 47.4386L-3.82119 5.15167L54.1557 -4.6925L61.3354 37.598L3.35859 47.4386Z" fill="white"/>
</mask>
<g mask="url(#mask2_3_11428)">
<mask id="mask3_3_11428" style="mask-type:luminance" maskUnits="userSpaceOnUse" x="-4" y="-5" width="66" height="53">
<path d="M3.35859 47.4386L-3.82119 5.15167L54.1557 -4.6925L61.3354 37.598L3.35859 47.4386Z" fill="white"/>
</mask>
<g mask="url(#mask3_3_11428)">
<mask id="mask4_3_11428" style="mask-type:luminance" maskUnits="userSpaceOnUse" x="23" y="0" width="36" height="24">
<path d="M37.508 4.75733C39.8289 6.724 41.5281 9.32332 43.1224 11.919C44.7167 14.5147 46.2568 17.1828 48.3608 19.388C48.3789 19.4061 48.3897 19.4242 48.4078 19.4386C50.9312 22.0669 54.503 23.4117 58.1327 23.1587C58.3785 23.1406 58.6243 23.1189 58.8738 23.0972C55.837 22.8911 53.0714 21.1522 50.9674 18.947C48.8633 16.7417 47.3232 14.0773 45.7289 11.4744C44.1382 8.87865 42.4427 6.28294 40.1182 4.31266C35.6642 0.538401 29.2834 -0.455777 23.5931 0.88546C28.5531 0.357642 33.7229 1.54704 37.508 4.75733Z" fill="white"/>
</mask>
<g mask="url(#mask4_3_11428)">
<path d="M19.6562 0.213272L57.8833 -6.276L62.8108 22.7432L24.5837 29.2324L19.6562 0.213272Z" fill="url(#paint0_linear_3_11428)"/>
</g>
</g>
</g>
</g>
</g>
<mask id="mask5_3_11428" style="mask-type:luminance" maskUnits="userSpaceOnUse" x="6" y="2" width="49" height="28">
<path d="M54.3726 2.77661V29.6158L6.2471 29.6158V2.77661L54.3726 2.77661Z" fill="white"/>
</mask>
<g mask="url(#mask5_3_11428)">
<mask id="mask6_3_11428" style="mask-type:luminance" maskUnits="userSpaceOnUse" x="-4" y="-5" width="66" height="53">
<path d="M3.35859 47.4386L-3.82119 5.15167L54.1557 -4.6925L61.3354 37.598L3.35859 47.4386Z" fill="white"/>
</mask>
<g mask="url(#mask6_3_11428)">
<mask id="mask7_3_11428" style="mask-type:luminance" maskUnits="userSpaceOnUse" x="-4" y="-5" width="66" height="53">
<path d="M3.35859 47.4386L-3.82119 5.15167L54.1557 -4.6925L61.3354 37.598L3.35859 47.4386Z" fill="white"/>
</mask>
<g mask="url(#mask7_3_11428)">
<mask id="mask8_3_11428" style="mask-type:luminance" maskUnits="userSpaceOnUse" x="-4" y="-5" width="66" height="53">
<path d="M3.35859 47.4386L-3.82119 5.15167L54.1557 -4.6925L61.3354 37.598L3.35859 47.4386Z" fill="white"/>
</mask>
<g mask="url(#mask8_3_11428)">
<mask id="mask9_3_11428" style="mask-type:luminance" maskUnits="userSpaceOnUse" x="7" y="3" width="48" height="26">
<path d="M20.9394 4.07803C15.5274 5.51688 10.8313 9.01277 7.07511 13.1739C10.0902 11.5109 13.9765 12.4942 16.753 14.5332C19.5295 16.5721 21.4925 19.4968 23.6472 22.1793C25.8018 24.8654 28.3614 27.4647 31.662 28.4227C34.1963 29.1566 36.9438 28.8349 39.4456 27.9925C41.0941 27.4394 42.6595 26.6694 44.1923 25.827C42.11 25.3607 40.0963 24.5979 38.2309 23.5567C34.406 21.4201 31.0655 18.4737 27.9312 15.4044C21.9372 9.53336 19.8657 9.42852 16.236 9.89488C19.045 8.72355 22.3493 9.67435 24.8872 11.3626C27.425 13.0509 29.4459 15.4008 31.756 17.3892C37.8802 22.6601 46.1807 25.3064 54.2136 24.5509C51.401 24.3557 48.8306 22.7469 46.882 20.7007C44.9298 18.6509 43.5018 16.1781 42.0268 13.7704C40.5482 11.3626 38.9756 8.95131 36.8173 7.12925C32.5441 3.49598 26.3549 2.63918 20.9394 4.07803Z" fill="white"/>
</mask>
<g mask="url(#mask9_3_11428)">
<path d="M2.70066 3.38344L52.894 -5.13757L58.5916 28.415L8.3982 36.9361L2.70066 3.38344Z" fill="url(#paint1_linear_3_11428)"/>
</g>
</g>
</g>
</g>
</g>
<mask id="mask10_3_11428" style="mask-type:luminance" maskUnits="userSpaceOnUse" x="0" y="20" width="37" height="25">
<path d="M36.094 20.8234V44.8861L-0.000102997 44.8861V20.8234L36.094 20.8234Z" fill="white"/>
</mask>
<g mask="url(#mask10_3_11428)">
<mask id="mask11_3_11428" style="mask-type:luminance" maskUnits="userSpaceOnUse" x="-5" y="-5" width="66" height="53">
<path d="M2.66449 47.9014L-4.51528 5.61444L53.4616 -4.22974L60.6414 38.0608L2.66449 47.9014Z" fill="white"/>
</mask>
<g mask="url(#mask11_3_11428)">
<mask id="mask12_3_11428" style="mask-type:luminance" maskUnits="userSpaceOnUse" x="-5" y="-5" width="66" height="53">
<path d="M2.66449 47.9014L-4.51528 5.61444L53.4616 -4.22974L60.6414 38.0608L2.66449 47.9014Z" fill="white"/>
</mask>
<g mask="url(#mask12_3_11428)">
<mask id="mask13_3_11428" style="mask-type:luminance" maskUnits="userSpaceOnUse" x="-5" y="-5" width="66" height="53">
<path d="M2.66449 47.9014L-4.51528 5.61444L53.4616 -4.22974L60.6414 38.0608L2.66449 47.9014Z" fill="white"/>
</mask>
<g mask="url(#mask13_3_11428)">
<path d="M29.8509 30.5844C28.3289 30.1433 26.9696 29.3552 25.7332 28.3719C25.3897 28.7189 25.0535 29.0696 24.7209 29.4347C22.6747 31.6978 20.9683 34.2755 18.6582 36.2711C16.3481 38.2594 13.1921 39.6187 10.2565 38.8017C14.5875 38.6173 16.2144 37.5653 21.1708 31.8786C22.4036 30.4687 23.6147 29.0298 24.8728 27.6416C23.7665 26.6402 22.7615 25.4978 21.8324 24.3373C21.0153 23.3142 20.2236 22.2622 19.403 21.2355C18.1232 22.5514 17.0422 24.1132 16.077 25.6858C14.273 28.6213 12.6896 31.7629 10.1878 34.1309C7.68974 36.4988 3.95886 37.9594 0.759411 36.6868C5.00365 40.349 10.0938 43.2303 15.6504 43.9859C21.2033 44.7379 27.2335 43.1219 31.0258 38.9897C32.931 36.911 34.1927 34.3225 35.3604 31.7485C35.5267 31.3797 35.693 31.0146 35.8557 30.6494C33.8674 31.0869 31.7995 31.1411 29.8509 30.5844Z" fill="#007931"/>
</g>
</g>
</g>
</g>
<defs>
<linearGradient id="paint0_linear_3_11428" x1="22.2007" y1="15.2014" x2="60.4293" y2="8.71152" gradientUnits="userSpaceOnUse">
<stop stop-color="#7DB141"/>
<stop offset="0.125" stop-color="#7CB141"/>
<stop offset="0.25" stop-color="#7CB041"/>
<stop offset="0.375" stop-color="#7BB041"/>
<stop offset="0.5" stop-color="#7BAF40"/>
<stop offset="0.625" stop-color="#7AAF40"/>
<stop offset="0.75" stop-color="#7AAE40"/>
<stop offset="0.875" stop-color="#7AAE40"/>
<stop offset="1" stop-color="#79AD40"/>
</linearGradient>
<linearGradient id="paint1_linear_3_11428" x1="5.5694" y1="20.2802" x2="55.7634" y2="11.7591" gradientUnits="userSpaceOnUse">
<stop stop-color="#7EB341"/>
<stop offset="0.125" stop-color="#7EB341"/>
<stop offset="0.25" stop-color="#7DB241"/>
<stop offset="0.375" stop-color="#7DB141"/>
<stop offset="0.5" stop-color="#7CB141"/>
<stop offset="0.625" stop-color="#7BB041"/>
<stop offset="0.75" stop-color="#7BAF40"/>
<stop offset="0.875" stop-color="#7AAE40"/>
<stop offset="1" stop-color="#7AAE40"/>
</linearGradient>
</defs>
</svg>
