<svg width="286" height="616" viewBox="0 0 286 616" fill="none" xmlns="http://www.w3.org/2000/svg">
<mask id="mask0_3_11641" style="mask-type:luminance" maskUnits="userSpaceOnUse" x="26" y="212" width="113" height="200">
<path d="M26.5989 215.833L138.006 212.519L137.571 408.322L26.1633 411.636L26.5989 215.833Z" fill="white"/>
</mask>
<g mask="url(#mask0_3_11641)">
<mask id="mask1_3_11641" style="mask-type:luminance" maskUnits="userSpaceOnUse" x="-8" y="184" width="224" height="273">
<path d="M215.975 416.447L39.635 456.032L-7.34263 224.134L168.997 184.55L215.975 416.447Z" fill="white"/>
</mask>
<g mask="url(#mask1_3_11641)">
<mask id="mask2_3_11641" style="mask-type:luminance" maskUnits="userSpaceOnUse" x="-8" y="184" width="225" height="272">
<path d="M216.036 414.884L39.6499 455.653L-7.40333 225.698L168.982 184.928L216.036 414.884Z" fill="white"/>
</mask>
<g mask="url(#mask2_3_11641)">
<mask id="mask3_3_11641" style="mask-type:luminance" maskUnits="userSpaceOnUse" x="-8" y="185" width="225" height="271">
<path d="M216.078 413.123L39.6602 455.227L-7.4461 227.459L168.972 185.355L216.078 413.123Z" fill="white"/>
</mask>
<g mask="url(#mask3_3_11641)">
<mask id="mask4_3_11641" style="mask-type:luminance" maskUnits="userSpaceOnUse" x="29" y="216" width="107" height="193">
<path d="M32.6437 356.786C39.2501 377.856 54.375 395.278 72.2024 408.721C64.9296 397.315 68.6557 381.439 76.9399 369.609C85.1968 357.794 97.2642 348.871 108.297 339.292C119.33 329.7 129.984 318.53 133.652 304.998C136.472 294.611 134.838 283.78 131.05 274.111C128.566 267.731 125.182 261.785 121.498 255.988C119.743 264.468 116.749 272.771 112.57 280.609C104.008 296.659 91.9876 311.061 79.4373 324.709C55.4415 350.794 55.1991 359.085 57.5369 373.4C52.3201 362.622 55.975 349.104 62.8003 338.352C69.6255 327.601 79.2681 318.656 87.3864 308.711C108.849 282.339 119.11 248.244 115.106 216.479C114.587 227.775 108.103 238.621 99.7137 247.147C91.3248 255.7 81.0995 262.304 71.16 269.096C61.1932 275.877 51.2532 283.045 43.8306 292.323C29.0263 310.721 26.0783 335.713 32.6437 356.786Z" fill="white"/>
</mask>
<g mask="url(#mask4_3_11641)">
<path d="M30.0437 430.01L-11.2765 232.389L132.503 196.723L173.824 394.357L30.0437 430.01Z" fill="url(#paint0_linear_3_11641)" fill-opacity="0.4"/>
</g>
</g>
</g>
</g>
</g>
<mask id="mask5_3_11641" style="mask-type:luminance" maskUnits="userSpaceOnUse" x="74" y="280" width="146" height="204">
<path d="M92.5986 280.992L219.81 297.725L201.497 483.387L74.2864 466.654L92.5986 280.992Z" fill="white"/>
</mask>
<g mask="url(#mask5_3_11641)">
<mask id="mask6_3_11641" style="mask-type:luminance" maskUnits="userSpaceOnUse" x="-35" y="173" width="263" height="308">
<path d="M227.127 471.764L-0.144794 480.619L-34.0196 182.159L193.252 173.304L227.127 471.764Z" fill="white"/>
</mask>
<g mask="url(#mask6_3_11641)">
<mask id="mask7_3_11641" style="mask-type:luminance" maskUnits="userSpaceOnUse" x="-36" y="175" width="265" height="304">
<path d="M228.554 472.085L0.200583 478.584L-35.4455 181.838L192.907 175.338L228.554 472.085Z" fill="white"/>
</mask>
<g mask="url(#mask7_3_11641)">
<mask id="mask8_3_11641" style="mask-type:luminance" maskUnits="userSpaceOnUse" x="-37" y="176" width="267" height="302">
<path d="M229.357 472.286L0.395097 477.309L-36.2491 181.637L192.713 176.614L229.357 472.286Z" fill="white"/>
</mask>
<g mask="url(#mask8_3_11641)">
<path d="M139.944 323.094C137.143 330.394 132.492 336.65 126.822 342.123C128.612 344.091 130.404 346.042 132.286 347.975C143.96 359.878 157.428 370.328 167.567 383.364C177.688 396.397 184.151 413.191 178.891 427.321C179.129 405.478 173.889 396.552 144.505 367.557C137.236 360.341 129.781 353.227 122.629 345.898C116.907 350.725 110.439 354.911 103.896 358.725C98.1387 362.073 92.2167 365.265 86.4404 368.626C93.196 376.023 101.338 382.575 109.581 388.57C124.943 399.744 141.505 409.978 153.603 424.239C165.719 438.503 172.57 458.287 164.776 473.376C185.79 454.772 202.818 431.367 208.474 404.076C214.113 376.783 207.067 345.365 185.772 323.355C175.059 312.275 161.42 304.072 147.796 296.33C145.862 295.223 143.928 294.117 141.992 293.043C143.794 303.326 143.522 313.74 139.944 323.094Z" fill="#007931" fill-opacity="0.2"/>
</g>
</g>
</g>
</g>
<mask id="mask9_3_11641" style="mask-type:luminance" maskUnits="userSpaceOnUse" x="0" y="0" width="151" height="259">
<path d="M0 0H150.724V258.384H0V0Z" fill="white"/>
</mask>
<g mask="url(#mask9_3_11641)">
<mask id="mask10_3_11641" style="mask-type:luminance" maskUnits="userSpaceOnUse" x="-25" y="-16" width="196" height="286">
<path d="M120.714 269.284L-24.6272 240.922L25.3001 -15.0054L170.658 13.3563L120.714 269.284Z" fill="white"/>
</mask>
<g mask="url(#mask10_3_11641)">
<mask id="mask11_3_11641" style="mask-type:luminance" maskUnits="userSpaceOnUse" x="-26" y="-16" width="196" height="286">
<path d="M-25.7527 240.705L119.588 269.049L169.515 13.1217L24.1746 -15.2231L-25.7527 240.705Z" fill="white"/>
</mask>
<g mask="url(#mask11_3_11641)">
<mask id="mask12_3_11641" style="mask-type:luminance" maskUnits="userSpaceOnUse" x="1" y="4" width="150" height="252">
<path d="M143.138 133.245C136.527 148.738 126.35 162.347 115.819 175.518C123.877 163.053 124.566 146.248 121.135 131.462C117.097 114.119 108.35 98.3061 102.614 81.4506C96.8608 64.6119 94.3543 45.3172 102.648 29.5552C91.1245 42.4239 90.4012 61.9204 94.7412 78.6245C99.0645 95.3286 107.66 110.653 112.909 127.105C118.157 143.574 119.671 162.599 110.419 177.201C112.085 160.345 104.195 144.078 95.33 129.662C86.4649 115.212 76.254 101.098 72.4187 84.5963C66.9179 60.9447 76.8764 34.6185 96.1038 19.9499C83.8743 27.402 74.1849 38.9754 69.0375 52.3656C63.5199 66.7483 63.3012 83.0823 68.4319 97.6164C72.5196 109.223 79.7698 119.401 86.9191 129.41C94.0347 139.452 101.218 149.68 105.171 161.338C109.124 172.978 109.427 186.469 103.135 197.017C106.584 181.288 99.4682 165.106 90.1825 151.985C80.88 138.847 69.1889 127.341 61.4676 113.227C47.9933 88.5999 48.397 56.9411 62.5442 32.684C40.6254 44.5603 26.31 67.9931 22.3232 92.5866C18.37 117.18 23.9381 142.632 34.7041 165.089C21.0111 123.892 25.9903 87.0018 46.513 63.8213C46.513 63.8213 39.2628 87.8597 52.0306 113.025C59.7182 128.131 75.0597 146.181 74.656 163.137C74.2522 179.556 64.0245 195.234 57.75 210.39C51.4586 225.58 41.1468 241.073 49.2886 255.321C32.4331 231.72 15.544 207.396 7.20034 179.623C-4.33945 141.235 2.12014 97.8519 24.325 64.4773C46.5298 31.1196 84.0425 8.4101 123.91 4.23828C117.266 10.5297 115.584 20.7742 117.568 29.6561C119.57 38.5885 124.718 46.4443 130.134 53.8123C135.551 61.1802 141.388 68.3632 145.156 76.6732C153.164 94.3698 150.741 115.38 143.138 133.245Z" fill="white"/>
</mask>
<g mask="url(#mask12_3_11641)">
<path d="M147.393 284.931L200.365 13.4596L1.43028 -25.3484L-51.5249 246.123L147.393 284.931Z" fill="#74A740" fill-opacity="0.3"/>
</g>
</g>
</g>
</g>
<mask id="mask13_3_11641" style="mask-type:luminance" maskUnits="userSpaceOnUse" x="232" y="341" width="225" height="195">
<path d="M232.545 341.283H456.477V535.071H232.545V341.283Z" fill="white"/>
</mask>
<g mask="url(#mask13_3_11641)">
<mask id="mask14_3_11641" style="mask-type:luminance" maskUnits="userSpaceOnUse" x="168" y="320" width="327" height="332">
<path d="M168.169 576.318L245.096 320.441L494.816 395.517L417.89 651.394L168.169 576.318Z" fill="white"/>
</mask>
<g mask="url(#mask14_3_11641)">
<mask id="mask15_3_11641" style="mask-type:luminance" maskUnits="userSpaceOnUse" x="168" y="320" width="327" height="332">
<path d="M168.169 576.318L245.096 320.441L494.816 395.517L417.89 651.394L168.169 576.318Z" fill="white"/>
</mask>
<g mask="url(#mask15_3_11641)">
<mask id="mask16_3_11641" style="mask-type:luminance" maskUnits="userSpaceOnUse" x="168" y="320" width="327" height="332">
<path d="M168.169 576.318L245.096 320.441L494.816 395.517L417.89 651.394L168.169 576.318Z" fill="white"/>
</mask>
<g mask="url(#mask16_3_11641)">
<path d="M234.799 354.689C251.604 356.287 265.55 369.139 273.523 384.027C281.514 398.914 284.676 415.837 288.612 432.272C292.566 448.723 297.646 465.495 308.58 478.347C318.101 489.55 331.306 496.918 344.781 502.722C361.115 509.804 378.963 514.884 396.525 514.261C388.08 507.449 380.443 499.559 373.596 491.148C360.122 474.612 349.44 456.041 338.809 437.537C326.394 415.938 314.013 394.355 301.599 372.739C328.194 399.234 345.84 433.231 367.423 463.947C389.039 494.681 417.131 523.799 453.618 532.496C435.77 525.33 425.677 506.002 421.69 487.111C417.703 468.22 418.208 448.555 413.75 429.782C405.289 394.288 377.97 363.908 343.62 351.863C308.883 339.667 270.529 345.723 234.799 354.689Z" fill="#007931" fill-opacity="0.2"/>
</g>
</g>
</g>
</g>
<mask id="mask17_3_11641" style="mask-type:luminance" maskUnits="userSpaceOnUse" x="151" y="374" width="164" height="237">
<path d="M314.662 408.81L255.202 611L151.801 576.846L211.26 374.656L314.662 408.81Z" fill="white"/>
</mask>
<g mask="url(#mask17_3_11641)">
<mask id="mask18_3_11641" style="mask-type:luminance" maskUnits="userSpaceOnUse" x="104" y="366" width="373" height="361">
<path d="M244.572 366.401L476.697 522.191L336.341 726.988L104.217 571.198L244.572 366.401Z" fill="white"/>
</mask>
<g mask="url(#mask18_3_11641)">
<mask id="mask19_3_11641" style="mask-type:luminance" maskUnits="userSpaceOnUse" x="104" y="366" width="373" height="361">
<path d="M244.348 366.476L476.765 522.446L336.566 726.912L104.148 570.942L244.348 366.476Z" fill="white"/>
</mask>
<g mask="url(#mask19_3_11641)">
<mask id="mask20_3_11641" style="mask-type:luminance" maskUnits="userSpaceOnUse" x="104" y="366" width="373" height="361">
<path d="M244.307 366.49L476.778 522.493L336.607 726.898L104.136 570.895L244.307 366.49Z" fill="white"/>
</mask>
<g mask="url(#mask20_3_11641)">
<mask id="mask21_3_11641" style="mask-type:luminance" maskUnits="userSpaceOnUse" x="186" y="394" width="99" height="207">
<path d="M263.7 394.103C254.56 402.648 253.004 416.714 256.089 429.305C259.158 441.89 266.147 453.554 272.43 465.276C278.696 476.993 284.483 489.396 284.753 502.119C284.965 513.18 280.992 523.571 276.017 533.178C270.016 544.776 262.061 555.911 251.308 563.469C252.736 555.547 253.152 547.322 252.785 539.164C252.11 523.092 248.724 507.048 245.328 491.105C241.36 472.448 237.422 453.818 233.454 435.161C231.533 463.172 238.892 491.636 242.189 519.971C245.473 548.284 244.059 578.521 226.947 600.253C233.793 587.866 229.636 571.652 222.13 558.432C214.602 545.223 203.969 533.588 196.765 520.227C183.201 494.894 183.485 464.246 197.566 441.468C211.814 418.435 237.768 404.821 263.7 394.103Z" fill="white"/>
</mask>
<g mask="url(#mask21_3_11641)">
<path d="M366.765 448.205L240.318 632.62L99.3409 538.028L225.788 353.613L366.765 448.205Z" fill="url(#paint1_linear_3_11641)" fill-opacity="0.3"/>
</g>
</g>
</g>
</g>
</g>
<defs>
<linearGradient id="paint0_linear_3_11641" x1="102.352" y1="412.085" x2="53.7865" y2="216.249" gradientUnits="userSpaceOnUse">
<stop stop-color="#7EB341"/>
<stop offset="0.125" stop-color="#7EB341"/>
<stop offset="0.25" stop-color="#7DB241"/>
<stop offset="0.375" stop-color="#7DB141"/>
<stop offset="0.5" stop-color="#7CB141"/>
<stop offset="0.625" stop-color="#7BB041"/>
<stop offset="0.75" stop-color="#7BAF40"/>
<stop offset="0.875" stop-color="#7AAE40"/>
<stop offset="1" stop-color="#7AAE40"/>
</linearGradient>
<linearGradient id="paint1_linear_3_11641" x1="296.541" y1="401.091" x2="171.969" y2="586.759" gradientUnits="userSpaceOnUse">
<stop stop-color="#89BF42"/>
<stop offset="0.125" stop-color="#88BF42"/>
<stop offset="0.25" stop-color="#88BE42"/>
<stop offset="0.375" stop-color="#87BE42"/>
<stop offset="0.5" stop-color="#87BD42"/>
<stop offset="0.625" stop-color="#86BC42"/>
<stop offset="0.75" stop-color="#86BC41"/>
<stop offset="0.875" stop-color="#85BB41"/>
<stop offset="1" stop-color="#85BB41"/>
</linearGradient>
</defs>
</svg>
