<svg width="68" height="182" viewBox="0 0 68 182" fill="none" xmlns="http://www.w3.org/2000/svg">
<mask id="mask0_12_5673" style="mask-type:luminance" maskUnits="userSpaceOnUse" x="-60" y="28" width="77" height="137">
<path d="M-59.1952 28.7367H16.2485V164.391H-59.1952V28.7367Z" fill="white"/>
</mask>
<g mask="url(#mask0_12_5673)">
<mask id="mask1_12_5673" style="mask-type:luminance" maskUnits="userSpaceOnUse" x="-81" y="9" width="148" height="184">
<path d="M66.3476 172.533L-52.5189 192.771L-80.1904 29.3481L38.6863 9.10999L66.3476 172.533Z" fill="white"/>
</mask>
<g mask="url(#mask1_12_5673)">
<mask id="mask2_12_5673" style="mask-type:luminance" maskUnits="userSpaceOnUse" x="-81" y="9" width="148" height="184">
<path d="M66.3476 172.533L-52.5189 192.771L-80.1904 29.3481L38.6863 9.10999L66.3476 172.533Z" fill="white"/>
</mask>
<g mask="url(#mask2_12_5673)">
<mask id="mask3_12_5673" style="mask-type:luminance" maskUnits="userSpaceOnUse" x="-81" y="9" width="148" height="184">
<path d="M66.3476 172.533L-52.5189 192.771L-80.1904 29.3481L38.6863 9.10999L66.3476 172.533Z" fill="white"/>
</mask>
<g mask="url(#mask3_12_5673)">
<mask id="mask4_12_5673" style="mask-type:luminance" maskUnits="userSpaceOnUse" x="-58" y="29" width="73" height="134">
<path d="M-55.5365 122.977C-51.492 138.232 -41.6652 151.469 -29.9686 162.057C-34.6431 153.558 -31.879 142.604 -26.1476 134.778C-20.4161 126.951 -12.195 121.418 -4.65467 115.345C2.8958 109.271 10.2024 102.056 12.8953 92.7524C14.9583 85.609 14.0538 77.8643 11.686 70.8126C10.1312 66.1657 7.96671 61.7533 5.59893 57.4326C4.28801 63.3023 2.1438 68.9783 -0.782898 74.2365C-6.78872 85.0179 -15.0709 94.4339 -23.6985 103.269C-40.2018 120.165 -40.4965 126.004 -39.1856 136.235C-42.4782 128.317 -39.8055 119.003 -35.0598 111.849C-30.3141 104.696 -23.7087 98.9991 -18.1195 92.4875C-3.3031 75.225 4.13558 51.8279 2.01169 29.1849C1.46293 37.113 -3.05922 44.3583 -8.81099 49.851C-14.5729 55.3538 -21.5238 59.379 -28.2918 63.5366C-35.0598 67.7045 -41.8379 72.1373 -46.9597 78.221C-57.1726 90.266 -59.581 107.712 -55.5365 122.977Z" fill="white"/>
</mask>
<g mask="url(#mask4_12_5673)">
<path d="M-57.4886 174.388L-81.4408 32.9049L12.874 16.8449L36.8262 158.328L-57.4886 174.388Z" fill="url(#paint0_linear_12_5673)" fill-opacity="0.4"/>
</g>
</g>
</g>
</g>
</g>
<mask id="mask5_12_5673" style="mask-type:luminance" maskUnits="userSpaceOnUse" x="-9" y="80" width="69" height="102">
<path d="M-8.46643 80.2593H59.1728V182H-8.46643V80.2593Z" fill="white"/>
</mask>
<g mask="url(#mask5_12_5673)">
<mask id="mask6_12_5673" style="mask-type:luminance" maskUnits="userSpaceOnUse" x="-79" y="11" width="147" height="184">
<path d="M67.649 174.489L-51.2175 194.727L-78.889 31.3044L39.9877 11.0663L67.649 174.489Z" fill="white"/>
</mask>
<g mask="url(#mask6_12_5673)">
<mask id="mask7_12_5673" style="mask-type:luminance" maskUnits="userSpaceOnUse" x="-79" y="11" width="147" height="184">
<path d="M67.649 174.489L-51.2175 194.727L-78.889 31.3044L39.9877 11.0663L67.649 174.489Z" fill="white"/>
</mask>
<g mask="url(#mask7_12_5673)">
<mask id="mask8_12_5673" style="mask-type:luminance" maskUnits="userSpaceOnUse" x="-79" y="11" width="147" height="184">
<path d="M67.649 174.489L-51.2175 194.727L-78.889 31.3044L39.9877 11.0663L67.649 174.489Z" fill="white"/>
</mask>
<g mask="url(#mask8_12_5673)">
<path d="M18.9718 97.8578C17.732 102.148 15.5167 105.98 12.7526 109.465C13.7281 110.433 14.7139 111.38 15.7402 112.318C22.1017 118.086 29.3473 122.896 34.9568 129.407C40.546 135.919 44.367 144.815 42.0703 153.09C41.5521 140.882 38.5949 136.296 22.6098 122.325C18.6466 118.85 14.6021 115.436 10.6998 111.89C7.8849 115.008 4.67367 117.841 1.41162 120.46C-1.46427 122.763 -4.42145 124.995 -7.3075 127.308C-3.60847 130.915 0.781569 133.962 5.2021 136.683C13.4538 141.768 22.2847 146.231 28.9409 153.283C35.5971 160.325 39.7026 170.841 36.1255 179.86C46.4197 167.896 54.519 153.548 56.6428 137.886C58.7566 122.233 54.2141 105.236 42.5988 94.5459C36.7555 89.1756 29.4795 85.6191 22.244 82.3276C21.2075 81.8589 20.1811 81.3901 19.1547 80.9316C20.3843 86.5363 20.5368 92.3652 18.9718 97.8578Z" fill="#007931" fill-opacity="0.3"/>
</g>
</g>
</g>
</g>
<mask id="mask9_12_5673" style="mask-type:luminance" maskUnits="userSpaceOnUse" x="-9" y="3" width="76" height="78">
<path d="M36.0397 3.95279L66.9184 50.392L22.4131 80.6475L-8.46559 34.2083L36.0397 3.95279Z" fill="white"/>
</mask>
<g mask="url(#mask9_12_5673)">
<mask id="mask10_12_5673" style="mask-type:luminance" maskUnits="userSpaceOnUse" x="9" y="3" width="47" height="77">
<path d="M9.60387 6.30201L48.4331 3.5917L55.3733 76.8504L16.5508 79.5561L9.60387 6.30201Z" fill="white"/>
</mask>
<g mask="url(#mask10_12_5673)">
<mask id="mask11_12_5673" style="mask-type:luminance" maskUnits="userSpaceOnUse" x="9" y="3" width="47" height="77">
<path d="M9.60391 6.30209L48.4332 3.59176L55.3734 76.8504L16.5508 79.5562L9.60391 6.30209Z" fill="white"/>
</mask>
<g mask="url(#mask11_12_5673)">
<mask id="mask12_12_5673" style="mask-type:luminance" maskUnits="userSpaceOnUse" x="9" y="3" width="47" height="77">
<path d="M9.60391 6.30209L48.4332 3.59176L55.3734 76.8504L16.5508 79.5562L9.60391 6.30209Z" fill="white"/>
</mask>
<g mask="url(#mask12_12_5673)">
<mask id="mask13_12_5673" style="mask-type:luminance" maskUnits="userSpaceOnUse" x="14" y="4" width="37" height="75">
<path d="M48.9923 28.3581C46.3841 19.6445 41.1837 11.9839 36.0674 4.47899C37.0418 8.95349 35.7764 13.6234 33.5718 17.5235C31.3739 21.419 28.2976 24.6654 25.3192 27.9567C22.3475 31.2435 19.4099 34.6692 17.5813 38.7696C14.9603 44.6143 13.9456 51.5455 14.704 57.9299C15.5168 64.7029 18.2371 70.9997 22.1224 76.697C22.4446 77.167 23.7041 78.6816 23.7718 78.9294C22.0516 71.7703 22.7233 64.0895 25.64 57.5066C27.6741 52.9119 30.7142 48.91 33.2387 44.5999C35.7585 40.2829 37.8057 35.4159 37.5016 30.3135C36.2734 36.9237 30.1455 41.0288 26.4117 46.4852C22.8317 51.7054 19.8234 59.1002 21.0199 65.5008C17.6981 58.3869 18.3452 49.0916 21.8219 42.2699C24.0714 37.853 28.6213 34.3545 31.7393 30.5427C34.8553 26.7425 37.7066 22.4129 38.2891 17.417C40.4838 22.602 42.7089 27.8474 43.6642 33.3886C44.6262 38.9253 44.2279 44.8701 41.4422 49.5907C38.9501 53.8179 34.833 56.6675 31.2822 60.0035C27.7447 63.3304 24.5408 67.7578 24.8727 72.7705C29.4343 64.4108 39.9955 61.5979 45.8007 54.1153C51.2048 47.1687 51.5937 37.0762 48.9923 28.3581Z" fill="white"/>
</mask>
<g mask="url(#mask13_12_5673)">
<path d="M62.0017 2.5749L68.9513 75.8823L-2.18505 80.8466L-9.128 7.53471L62.0017 2.5749Z" fill="#7AAE40" fill-opacity="0.25"/>
</g>
</g>
</g>
</g>
</g>
<defs>
<linearGradient id="paint0_linear_12_5673" x1="-9.99262" y1="166.302" x2="-34.0746" y2="24.839" gradientUnits="userSpaceOnUse">
<stop stop-color="#7EB341"/>
<stop offset="0.125" stop-color="#7EB341"/>
<stop offset="0.25" stop-color="#7DB241"/>
<stop offset="0.375" stop-color="#7DB141"/>
<stop offset="0.5" stop-color="#7CB141"/>
<stop offset="0.625" stop-color="#7BB041"/>
<stop offset="0.75" stop-color="#7BAF40"/>
<stop offset="0.875" stop-color="#7AAE40"/>
<stop offset="1" stop-color="#7AAE40"/>
</linearGradient>
</defs>
</svg>
