<svg width="79" height="134" viewBox="0 0 79 134" fill="none" xmlns="http://www.w3.org/2000/svg">
<path fill-rule="evenodd" clip-rule="evenodd" d="M1.66998 35.94C1.40763 35.8748 1.13216 35.8853 0.875524 35.9702C0.618884 36.0552 0.391582 36.2111 0.219977 36.42C0.0172328 36.8012 -0.0356768 37.2444 0.0716399 37.6625C0.178957 38.0807 0.438744 38.4436 0.799977 38.68C1.45998 39.15 5.49998 41.39 6.08998 42.9C6.08998 42.9 6.90998 43.42 6.17998 46.56C6.17998 46.56 4.59998 51.37 6.28998 53.48C6.28998 53.48 6.76998 56.99 8.62998 58.86V58.64C8.96426 59.0427 9.27159 59.4669 9.54998 59.91C9.54687 59.6895 9.48096 59.4744 9.35998 59.29C9.72057 59.7276 10.1224 60.1294 10.56 60.49C10.5529 60.3906 10.5143 60.2961 10.45 60.22C10.583 60.3417 10.7232 60.4553 10.87 60.56C10.8 60.2987 10.662 60.0606 10.47 59.87C10.6464 59.9202 10.8078 60.0129 10.94 60.14C10.94 60.14 11.06 59.85 10.66 59.14C10.26 58.43 10.35 58.27 10.13 58.06C9.90998 57.85 9.89998 56.93 9.84998 56.82C9.79998 56.71 9.84998 56.82 9.70998 56.71C9.65841 56.6585 9.62044 56.595 9.5995 56.5252C9.57855 56.4554 9.57528 56.3814 9.58998 56.31C9.58998 56.25 9.83998 56.51 9.96998 56.42C10.1 56.33 9.80998 55.49 9.69998 55.35C9.58998 55.21 9.84998 55.35 9.84998 55.35C9.74093 54.9227 9.79438 54.4702 9.99998 54.08C10.35 53.6 10.79 53.57 11.07 53.2C11.35 52.83 11.43 52.53 11.5 52.8C11.57 53.07 12.14 54.85 12.19 55.16C12.2044 55.3323 12.2829 55.4929 12.41 55.61C12.46 55.61 12.41 55.81 12.58 55.87C12.75 55.93 12.72 55.93 13.13 56.57C13.54 57.21 14.81 59.42 15.19 60.18C15.2548 60.4833 15.2982 60.7907 15.32 61.1C15.32 61.23 15.47 61 15.51 60.9C15.55 60.8 15.67 61.39 15.68 61.63C15.6822 61.6567 15.6822 61.6834 15.68 61.71C16.1985 61.0446 16.774 60.4256 17.4 59.86C17.0357 59.7804 16.6614 59.7568 16.29 59.79C16.29 59.79 15.9 60.27 15.72 60.05C14.8448 58.8134 14.069 57.5093 13.4 56.15L13.29 55.93C13.2993 55.7841 13.2789 55.6378 13.23 55.5C13.2016 55.3151 13.1219 55.1419 13 55C12.9468 54.975 12.8997 54.9388 12.8617 54.894C12.8237 54.8491 12.7959 54.7966 12.78 54.74C12.4961 54.0877 12.249 53.42 12.04 52.74C12.0061 52.4376 12.0061 52.1324 12.04 51.83C12.04 51.77 12.58 52.18 12.88 51.96C13.751 52.2738 14.5831 52.6865 15.36 53.19C15.36 53.19 15.67 53.52 15.94 53.37C15.94 53.37 16.41 53.3 16.5 53.44C16.569 53.5104 16.6548 53.562 16.7493 53.59C16.8437 53.618 16.9438 53.6214 17.04 53.6C18.3575 53.8705 19.6516 54.245 20.91 54.72C20.91 54.72 21.53 54.88 21.66 54.61L21.79 54.33L21.13 54.43C21.13 54.43 19.85 54.05 19.26 53.81C18.67 53.57 17.19 53.23 17.19 53.23C17.19 53.23 16.93 52.95 16.74 52.96C16.6396 52.9653 16.5391 52.9502 16.4447 52.9159C16.3502 52.8815 16.2636 52.8285 16.19 52.76C16.07 52.62 15.93 52.69 15.69 52.68C15.45 52.67 14.04 51.95 13.26 51.68C13.26 51.68 12.54 51.07 12.26 50.87C12.3313 50.7509 12.377 50.6183 12.3942 50.4806C12.4114 50.3428 12.3997 50.203 12.36 50.07C12.2323 49.7286 12.1811 49.3634 12.21 49C12.1588 48.5468 12.0267 48.1065 11.82 47.7C11.7 47.58 11.19 46.2 10.96 45.99C10.878 45.6444 10.7054 45.3269 10.46 45.07C10.3105 44.8312 10.1088 44.6295 9.86998 44.48C9.74281 44.1527 9.50119 43.8827 9.18998 43.72C8.68987 43.2874 8.22815 42.8123 7.80998 42.3C6.71088 41.0976 5.39445 40.1136 3.92998 39.4C3.92998 39.4 2.31998 38.61 2.34998 37.72C2.37998 36.83 2.20998 36.64 4.61998 35.15C4.61998 35.15 4.86998 34.89 4.43998 34.95C3.49139 35.1985 2.56754 35.5332 1.67998 35.95" fill="#809428"/>
<path d="M27.9999 100.37C22.8855 98.2377 18.5189 94.6359 15.4526 90.0205C12.3864 85.4052 10.7585 79.9838 10.775 74.4428C10.7915 68.9018 12.4517 63.4902 15.5454 58.8932C18.6391 54.2962 23.0272 50.7205 28.1542 48.6187C33.2811 46.5169 38.9164 45.9836 44.3467 47.0862C49.7769 48.1888 54.7579 50.8778 58.6591 54.8128C62.5603 58.7478 65.2062 63.7518 66.262 69.1913C67.3177 74.6309 66.7358 80.2614 64.5899 85.37C61.7189 92.2047 56.2548 97.6219 49.3956 100.434C42.5365 103.246 34.8422 103.223 27.9999 100.37Z" fill="#809428"/>
<path d="M74.5501 38.27C74.5501 38.27 76.3701 36 77.3901 37L77.5001 37.21C77.5001 37.21 78.0201 37.01 78.4401 37.82C78.6823 38.3043 78.7557 38.8556 78.6489 39.3864C78.542 39.9173 78.2608 40.3972 77.8501 40.75L77.7401 40.8C77.5981 40.9716 77.4057 41.094 77.1901 41.15C77.1901 41.15 76.9701 41.4 76.8401 41.41C76.7101 41.42 76.3901 41.92 76.1301 41.93C75.8701 41.94 75.5001 41.93 75.5001 41.93L75.3501 42.03V42.3C75.408 42.6622 75.5521 43.0051 75.7701 43.3C75.9654 43.5851 76.0883 43.9134 76.1284 44.2566C76.1685 44.5998 76.1244 44.9476 76.0001 45.27L75.0001 47.45C74.8276 47.5554 74.6429 47.6393 74.4501 47.7C74.4501 47.7 74.2401 48.02 74.1401 47.98C74.0401 47.94 73.7701 47.93 73.6601 48.09L73.4101 48C73.4101 48 72.6801 47.93 72.5301 47.34L72.4301 47C71.7856 47.524 71.2461 48.1653 70.8401 48.89C70.0784 49.9701 69.1923 50.9569 68.2001 51.83C68.2001 51.83 68.1101 51.64 67.9601 51.61C67.6401 51.9741 67.2697 52.2907 66.8601 52.55C66.8601 52.55 66.1701 53.64 65.5401 53.81C65.5401 53.81 65.1101 53.67 64.9201 52.89C64.5547 53.355 64.1351 53.7746 63.6701 54.14C62.8901 54.76 62.1701 55.23 62.1701 55.23C62.1701 55.23 61.0401 55.8 61.1701 56.23V56.58L61.5301 57.01C61.5301 57.01 61.6901 57.59 61.3901 57.69C61.3901 57.69 59.7201 57.18 59.6301 56.42C59.6047 56.2931 59.6275 56.1614 59.6941 56.0504C59.7607 55.9395 59.8662 55.8573 59.9901 55.82C59.9901 55.82 60.1801 55.56 60.1601 55.46C60.1692 55.3666 60.2067 55.2782 60.2675 55.2067C60.3282 55.1352 60.4094 55.084 60.5001 55.06C60.3695 55.0524 60.2457 54.9994 60.1501 54.91C60.0357 54.8042 59.9288 54.6906 59.8301 54.57C59.7279 54.4658 59.6404 54.348 59.5701 54.22C59.5701 54.13 59.8601 53.95 59.9501 54.01C60.0233 54.0317 60.1019 54.0264 60.1715 53.9953C60.2412 53.9641 60.2975 53.909 60.3301 53.84C60.5029 53.6338 60.6865 53.4369 60.8801 53.25C60.8801 53.25 61.1501 53.14 61.4801 52.49C61.8464 51.7535 62.3255 51.0787 62.9001 50.49C62.7996 50.2923 62.7747 50.0647 62.8301 49.85C63.0491 49.6066 63.2977 49.3916 63.5701 49.21C63.8371 48.9659 64.0814 48.6981 64.3001 48.41V48.23H64.1701C64.233 48.1058 64.2671 47.9691 64.2701 47.83C64.2777 47.7601 64.3122 47.696 64.3664 47.6511C64.4206 47.6063 64.49 47.5844 64.5601 47.59C64.5601 47.59 64.8301 47.45 65.1001 46.83C65.3701 46.21 65.5901 46.08 65.5901 46.08C65.8138 45.7389 66.0047 45.3772 66.1601 45C66.2401 44.64 66.3901 44.68 66.4401 44.67C66.4901 44.66 67.7101 43.23 68.1101 43.25L67.9501 43.17H67.8801L65.8201 43.93C65.653 44.0092 65.4789 44.0728 65.3001 44.12C65.1501 44.12 65.0601 44.32 65.0601 44.32C64.9817 44.3428 64.8985 44.3428 64.8201 44.32H64.7301C64.6594 44.3889 64.6167 44.4815 64.6101 44.58C64.5549 44.6961 64.4666 44.7932 64.3562 44.859C64.2459 44.9249 64.1185 44.9565 63.9901 44.95C63.9901 44.95 63.8801 44.95 63.9101 44.87C63.9401 44.79 63.7701 44.87 63.7701 44.8C63.7701 44.73 63.5401 44.8 63.5701 44.64C63.6001 44.48 63.5701 44.53 63.6401 44.52C63.7101 44.51 63.5101 44.34 63.5401 44.28C63.5701 44.22 63.5401 44.22 63.5401 44.22C63.5401 44.22 63.4401 44.04 63.5401 43.96C63.6401 43.88 63.4501 43.96 63.4201 43.96C63.3987 43.9019 63.3987 43.8381 63.4201 43.78V43.66C63.0035 44.1284 62.5259 44.5388 62.0001 44.88C61.7219 45.2992 61.3852 45.6763 61.0001 46H60.9201C60.838 46.1102 60.7403 46.2079 60.6301 46.29C60.5301 46.29 60.5701 46.5 60.5701 46.5C60.3925 46.6483 60.2255 46.8086 60.0701 46.98C59.9501 47.13 59.3201 47.17 58.9001 47.8C58.9001 47.8 58.8401 48.1 58.3601 48.16C58.3053 48.1511 58.2556 48.1227 58.2201 48.08H58.1101C57.8732 48.3137 57.6801 48.5881 57.5401 48.89C57.4361 49.1489 57.2755 49.3812 57.0701 49.57V49.68C57.0701 49.68 57.4101 49.96 57.3201 50.17C57.3201 50.17 57.5601 50.34 57.3801 50.73V50.78L57.3001 51.02C57.0015 51.1411 56.6717 51.1622 56.3601 51.08C56.301 51.1955 56.2048 51.2879 56.0869 51.3423C55.9691 51.3967 55.8364 51.4099 55.7101 51.38C55.2801 51.25 54.8001 50.97 54.9301 50.76C55.0601 50.55 55.1201 50.53 55.1201 50.53C55.1201 50.53 55.2601 50.06 55.4001 50.02C55.5401 49.98 55.7401 49.92 55.7501 49.66C55.7434 49.4673 55.8074 49.2788 55.9301 49.13C56.0101 49.13 56.0701 48.89 56.0701 48.89L55.5901 49.01C55.5901 49.01 55.5901 49.2 55.3501 49.19C55.1101 49.18 55.0101 49.19 55.0101 49.19C54.9222 49.5683 54.7663 49.9274 54.5501 50.25C54.5501 50.25 54.3901 50.98 54.0201 51.16C54.0201 51.16 53.3701 50.66 53.2501 50.36C53.1416 50.2132 53.0874 50.0334 53.0965 49.8511C53.1056 49.6688 53.1775 49.4953 53.3001 49.36C53.2487 49.2158 53.1744 49.0807 53.0801 48.96C53.0801 48.96 52.9901 48.05 53.3301 48.09C53.3301 48.09 53.5601 48.09 53.6301 48.09C53.8485 47.9966 54.0827 47.9457 54.3201 47.94C54.3201 47.94 54.5301 47.76 54.6701 47.87C54.8101 47.98 55.0101 47.78 55.0301 47.69C55.0501 47.6 55.0901 47.69 55.1201 47.69C55.4227 47.6021 55.7095 47.4672 55.9701 47.29C56.2117 47.1549 56.4833 47.0826 56.7601 47.08H56.8601C56.8601 47.08 56.3101 46.63 56.3901 46.53C56.4701 46.43 55.3101 45.92 55.5101 45.68C55.7622 45.3655 56.0586 45.0893 56.3901 44.86C56.3901 44.86 56.6901 44.53 56.7801 44.52C57.1575 44.0758 57.5652 43.6581 58.0001 43.27C58.0001 43.27 58.1801 42.87 58.4001 42.89C58.5565 42.8918 58.7098 42.8465 58.8401 42.76C58.9526 42.6078 59.0799 42.4671 59.2201 42.34C59.3501 42.26 60.0201 41.89 60.1101 41.69C60.2001 41.49 60.6201 40.77 60.6401 40.75C60.4486 40.6328 60.2231 40.5835 60.0001 40.61C60.0001 40.61 59.8501 40.67 59.8301 41.08C59.8301 41.08 59.6901 41.58 59.5101 41.64C59.5101 41.64 59.3901 42 59.2601 41.98C59.2371 41.9787 59.2146 41.9727 59.194 41.9623C59.1733 41.952 59.155 41.9376 59.1401 41.92C59.1401 41.92 59.0901 42 59.0001 42C58.9101 42 58.8701 41.95 58.8601 41.87C58.8501 41.79 58.7901 42 58.7001 41.97C58.6702 41.9569 58.6458 41.9337 58.6312 41.9045C58.6166 41.8752 58.6127 41.8418 58.6201 41.81V41.69C58.6201 41.69 58.6201 41.8 58.5001 41.77C58.4397 41.6543 58.4081 41.5256 58.4081 41.395C58.4081 41.2644 58.4397 41.1358 58.5001 41.02C58.5602 40.9366 58.6012 40.841 58.6201 40.74C58.7521 40.5371 58.8723 40.3268 58.9801 40.11C58.9801 40.11 59.2901 39.45 59.5601 39.32C59.8301 39.19 59.8001 39.12 59.9901 39.13C60.1801 39.14 60.2401 39.03 60.3901 39.21C60.3901 39.21 60.5401 39.26 60.5801 39.21C60.7473 39.1659 60.923 39.1659 61.0901 39.21C61.1701 39.26 62.2301 38.93 62.4501 39.1L62.6201 39.23C62.9029 39.327 63.1942 39.3973 63.4901 39.44C63.4901 39.44 63.6101 39.44 63.5601 39.36C63.5101 39.28 63.9601 38.97 64.0801 38.94C64.2001 38.91 65.2201 38.03 65.8601 38.13C66.5001 38.23 66.8601 38.13 67.2101 38.74C67.376 38.8473 67.5112 38.9959 67.6024 39.1712C67.6935 39.3466 67.7375 39.5426 67.7301 39.74C67.7301 39.74 67.7301 40.58 67.4001 40.74C67.4001 40.74 67.2401 41.05 67.1001 41.06C66.9384 41.2097 66.7681 41.35 66.5901 41.48C66.4708 41.5366 66.347 41.5834 66.2201 41.62C65.9904 41.8387 65.6872 41.9636 65.3701 41.97C65.3701 41.97 65.2801 42.42 65.1601 42.45C65.1258 42.74 65.023 43.0176 64.8601 43.26C64.9257 43.2426 64.9946 43.2426 65.0601 43.26C65.6581 42.9186 66.2327 42.5378 66.7801 42.12C66.9809 41.9862 67.1998 41.8818 67.4301 41.81C67.4394 41.5861 67.3949 41.3631 67.3001 41.16C67.3001 41.16 69.3001 40.5 69.9901 40.34C69.9901 40.34 71.4601 39.68 71.9201 39.86L72.9201 40.28C73.2034 40.3615 73.4955 40.4086 73.7901 40.42C73.8601 40.36 73.9901 40.17 74.0901 40.21C74.1901 40.25 74.4401 39.92 74.4401 39.79C74.4156 39.7814 74.3945 39.765 74.3801 39.7434C74.3656 39.7217 74.3586 39.696 74.3601 39.67V39.57C74.3171 39.5354 74.2829 39.491 74.2603 39.4406C74.2377 39.3902 74.2274 39.3352 74.2301 39.28C74.2301 39.11 74.3101 38.69 74.3101 38.64C74.3101 38.59 74.4401 38.29 74.5201 38.3" fill="#809428"/>
<path d="M26.2099 49.84C25.2623 48.579 24.5011 47.188 23.9499 45.71C23.4726 44.2509 22.9083 42.8216 22.2599 41.43L22.1499 41.16C22.1499 41.16 21.9999 40.68 21.9999 40.6L22.1499 40.54C22.1499 40.54 23.2899 42.68 24.1999 41.8C24.33 41.6705 24.4291 41.5132 24.4899 41.34C24.5903 41.219 24.7177 41.1233 24.8619 41.0608C25.0061 40.9982 25.163 40.9706 25.3199 40.98C25.3807 40.8995 25.4573 40.8322 25.545 40.7823C25.6327 40.7325 25.7297 40.701 25.8299 40.69C25.8299 40.69 26.3399 40.13 25.0699 39.93L24.3099 39.82C24.3099 39.82 25.9399 39.82 26.5099 38.77C26.5099 38.77 26.7099 38.5 26.6199 38.36L26.4999 38.28C26.5639 38.1554 26.6653 38.054 26.7899 37.99C26.7899 37.99 26.7899 37.69 26.5299 37.72C26.5299 37.72 26.5299 37.48 26.2199 37.65C26.2199 37.65 26.2199 37.56 25.9999 37.7C25.8777 37.7867 25.7376 37.8448 25.5899 37.87C25.5899 37.87 26.1299 37.09 25.9099 36.87C25.9099 36.87 25.9099 36.8 25.7099 36.81C25.5099 36.82 25.4899 36.68 25.5399 36.57C25.5899 36.46 25.6599 36.24 25.4699 36.15C25.4699 36.15 25.4699 36.07 24.9599 36.42C24.9599 36.42 25.0299 36.12 24.8399 36.07C24.8399 36.07 24.7499 36.07 24.4799 36.25C23.6619 36.6944 23.0147 37.3979 22.6399 38.25L22.5299 38.44C22.5299 38.44 22.9999 36.52 22.5999 36C22.5999 36 22.5399 35.35 22.2399 35.25C22.2399 35.25 22.0999 35.25 21.8999 35.49C21.8784 35.5038 21.8538 35.5118 21.8283 35.5134C21.8028 35.515 21.7774 35.51 21.7543 35.499C21.7313 35.488 21.7115 35.4713 21.6967 35.4505C21.6819 35.4297 21.6727 35.4054 21.6699 35.38C21.6699 35.38 21.5799 35.01 21.3899 34.97C21.3501 34.9856 21.3142 35.0099 21.2848 35.041C21.2554 35.0721 21.2332 35.1093 21.2199 35.15C21.2199 35.15 20.9599 35.38 20.9899 35.44C21.0199 35.5 20.6399 35.2 20.4699 35.35C20.1803 35.771 20.0525 36.2823 20.1099 36.79C20.1899 37.39 19.8099 36.62 19.5699 36.49C19.41 36.4018 19.2862 36.2602 19.2199 36.09C19.2199 36.04 18.9599 36.09 18.8899 36C18.8199 35.91 18.7099 36.08 18.6599 36.21C18.6099 36.34 18.5699 36.32 18.3299 36.09C18.3068 36.0899 18.2841 36.0964 18.2646 36.1088C18.2451 36.1212 18.2296 36.139 18.2199 36.16H18.1099C18.0486 36.2223 18.003 36.2984 17.9769 36.3819C17.9508 36.4654 17.945 36.5539 17.9599 36.64C17.9599 36.64 17.5399 36.64 17.4299 36.86L17.5299 36.98C17.5299 36.98 17.1999 37.58 18.7799 38.56C18.3833 38.5564 17.9893 38.4958 17.6099 38.38C17.5502 38.388 17.4897 38.388 17.4299 38.38C17.4299 38.38 16.7199 38.05 16.5399 38.38C16.5399 38.38 16.5399 38.56 16.6999 38.61C16.8599 38.66 16.1899 38.68 16.1899 38.74C16.1899 38.8 16.6599 39.04 16.6999 39.15C16.7399 39.26 16.3499 39.38 16.3999 39.5C16.4499 39.62 16.6299 39.5 16.6799 39.58C16.7299 39.66 17.4999 40.73 19.9899 40.14C19.9899 40.14 17.7999 40.72 17.9899 41.14C17.9899 41.14 18.2299 41.26 18.3299 41.21C18.4151 41.2643 18.514 41.2932 18.6149 41.2932C18.7159 41.2932 18.8148 41.2643 18.8999 41.21C19.002 41.2627 19.1151 41.2901 19.2299 41.2901C19.3448 41.2901 19.4579 41.2627 19.5599 41.21C19.5599 41.21 19.7799 41.46 19.8899 41.43C19.9999 41.4 19.3899 41.72 19.6399 41.93C19.6399 41.93 19.8899 41.8 19.9899 41.93C20.0899 42.06 20.3299 41.68 20.6299 41.93C20.9299 42.18 21.0799 41.6 21.4899 42.13C21.4899 42.13 22.1099 41.92 22.0999 41.61C22.5317 42.4634 22.9123 43.3416 23.2399 44.24C23.5835 45.4497 24.0388 46.6247 24.5999 47.75C25.0265 48.5243 25.4938 49.2753 25.9999 50L26.2099 49.84Z" fill="#809428"/>
<path d="M23.1701 52C22.3899 51.437 21.6959 50.7633 21.1101 50C20.5668 49.2521 19.9791 48.5375 19.3501 47.86L19.2301 47.73C19.1668 47.6339 19.11 47.5337 19.0601 47.43L19.1401 47.36C19.1401 47.36 20.1901 48.36 20.5501 47.71C20.6005 47.6107 20.6278 47.5014 20.6301 47.39C20.6664 47.3027 20.7223 47.2249 20.7934 47.1625C20.8644 47.1001 20.9488 47.0548 21.0401 47.03C21.0599 46.9724 21.0915 46.9196 21.1328 46.8748C21.1741 46.8301 21.2243 46.7944 21.2801 46.77C21.2801 46.77 21.4701 46.35 20.7001 46.48L20.2401 46.56C20.2401 46.56 21.1801 46.27 21.3101 45.56C21.3101 45.56 21.3701 45.37 21.3101 45.31H21.2301C21.2468 45.2262 21.2886 45.1494 21.3501 45.09C21.3501 45.09 21.3501 44.91 21.1501 44.99C21.1501 44.99 21.0801 44.86 20.9601 44.99C20.8401 45.12 20.9601 44.94 20.8501 45.06C20.7959 45.1364 20.7238 45.1982 20.6401 45.24C20.6401 45.24 20.8101 44.69 20.6401 44.6C20.6401 44.6 20.6401 44.6 20.5201 44.6C20.4001 44.6 20.3701 44.6 20.3801 44.5C20.3901 44.4 20.3801 44.29 20.2601 44.27C20.1401 44.25 20.2601 44.27 20.0101 44.52C20.0101 44.52 20.0101 44.33 19.8801 44.34C19.7501 44.35 19.8201 44.34 19.7001 44.51C19.3078 44.9152 19.0615 45.4394 19.0001 46V46.13C19.0001 46.13 18.9101 44.93 18.5801 44.72C18.5801 44.72 18.4201 44.36 18.2301 44.35C18.2301 44.35 18.1401 44.35 18.0801 44.55C18.0719 44.5624 18.0607 44.5726 18.0476 44.5796C18.0346 44.5866 18.0199 44.5903 18.0051 44.5903C17.9902 44.5903 17.9756 44.5866 17.9625 44.5796C17.9494 44.5726 17.9383 44.5624 17.9301 44.55C17.9301 44.55 17.8101 44.35 17.6901 44.37C17.6686 44.3866 17.6512 44.4078 17.6391 44.432C17.627 44.4563 17.6205 44.4829 17.6201 44.51C17.6201 44.51 17.5101 44.69 17.5401 44.72C17.5701 44.75 17.2901 44.65 17.2201 44.72C17.1362 45.0147 17.1574 45.3293 17.2801 45.61C17.4401 45.94 17.0801 45.61 16.9101 45.53C16.8044 45.5092 16.7091 45.4527 16.6401 45.37C16.6401 45.37 16.4901 45.37 16.4301 45.37C16.3701 45.37 16.3401 45.45 16.3301 45.53C16.3201 45.61 16.3301 45.61 16.1201 45.53C16.1073 45.5349 16.096 45.543 16.0873 45.5535C16.0785 45.564 16.0726 45.5766 16.0701 45.59H16.0101C15.9871 45.6367 15.9752 45.688 15.9752 45.74C15.9752 45.792 15.9871 45.8434 16.0101 45.89C16.0101 45.89 15.7701 45.96 15.7401 46.12H15.8201C15.8201 46.12 15.7401 46.52 16.8201 46.79C16.5931 46.8595 16.3574 46.8965 16.1201 46.9H16.0201C16.0201 46.9 15.5501 46.84 15.5101 47.06C15.5101 47.06 15.5701 47.15 15.6501 47.16C15.7301 47.17 15.3701 47.29 15.3801 47.33C15.3901 47.37 15.7101 47.41 15.7501 47.47C15.7901 47.53 15.5901 47.67 15.6401 47.73C15.6901 47.79 15.7701 47.73 15.8201 47.73C15.8701 47.73 16.5101 48.24 17.8201 47.44C17.8201 47.44 16.6701 48.18 16.8201 48.38C16.8201 48.38 16.9801 48.38 17.0301 48.38C17.0889 48.3966 17.1512 48.396 17.2097 48.3783C17.2682 48.3606 17.3204 48.3265 17.3601 48.28C17.4284 48.2872 17.4975 48.2783 17.5617 48.254C17.626 48.2296 17.6836 48.1906 17.7301 48.14C17.7301 48.14 17.9001 48.24 17.9601 48.2C18.0201 48.16 17.7301 48.46 17.9601 48.53C17.9601 48.53 18.0801 48.41 18.1601 48.45C18.2401 48.49 18.3101 48.24 18.5201 48.32C18.7301 48.4 18.7201 48.05 19.0501 48.32C19.0501 48.32 19.3601 48.08 19.3101 47.91C19.7145 48.3213 20.0951 48.7554 20.4501 49.21C20.869 49.8413 21.3479 50.4307 21.8801 50.97C22.2744 51.3451 22.6883 51.6989 23.1201 52.03L23.1701 52Z" fill="#809428"/>
<path fill-rule="evenodd" clip-rule="evenodd" d="M65.2099 21.34C65.1399 20 66.3699 19.58 64.9499 18.72C63.5299 17.86 64.4199 17.25 64.4199 17.25C65.4199 14.09 62.0899 12.06 60.7099 10.73C59.3299 9.4 59.7099 8.39 59.7099 8.39C59.6437 7.73894 59.36 7.1292 58.9046 6.65926C58.4491 6.18931 57.8486 5.8866 57.1999 5.8C55.3399 -2.57 47.8099 1.6 47.8099 1.6C42.9499 -1.52 40.4299 3.71 40.4299 3.71C38.7199 4.61 38.7299 2.4 37.6599 2.43C36.5899 2.46 36.4299 2.88 35.4199 1.25C33.7699 -1.4 30.8899 1 30.8899 1C25.9999 -0.999997 26.0599 1.67 24.6899 2.91C23.3199 4.15 24.6099 5.3 23.3299 6.32C21.1899 8.02 21.9399 8.83 21.7599 10.68C21.5799 12.53 20.6299 12.78 17.7599 13.8C12.3499 15.72 16.7599 21.43 15.4299 21.15C14.8125 20.9714 14.1521 21.0123 13.5614 21.2657C12.9707 21.5191 12.486 21.9695 12.1899 22.54C9.46994 26.22 12.5299 28.24 12.7399 30.45C12.7644 30.8478 12.8851 31.2336 13.0918 31.5744C13.2984 31.9152 13.5847 32.2007 13.9261 32.4063C14.2675 32.6119 14.6537 32.7315 15.0515 32.7548C15.4494 32.7781 15.8469 32.7044 16.2099 32.54C17.3899 32.06 17.6299 31.92 19.9199 32.78C23.7199 34.21 23.7799 29.59 26.5799 30.93C28.1199 31.66 30.6599 31.38 31.7299 32.34C32.7999 33.3 34.1999 34 34.1799 34.69C34.1599 35.38 34.3799 36.4 36.0999 37.15C37.3099 37.68 37.1999 40.04 37.2099 41.91C36.9299 42.54 37.0399 43.22 36.5199 43.91C35.5199 45.41 31.7599 47.42 31.5199 47.54C30.9668 47.7426 30.4371 48.0041 29.9399 48.32C29.5215 48.7062 29.2269 49.2077 29.0934 49.7613C28.9599 50.3148 28.9935 50.8955 29.1899 51.43C29.0901 51.8385 29.1324 52.2688 29.3099 52.65C29.3099 52.72 29.3099 52.79 29.3099 52.86C29.2978 53.1103 29.3508 53.3594 29.4637 53.5832C29.5765 53.8069 29.7454 53.9975 29.9539 54.1365C30.1624 54.2755 30.4034 54.3581 30.6533 54.3762C30.9032 54.3944 31.1536 54.3474 31.3799 54.24C32.7299 54.4308 34.1 54.4308 35.4499 54.24C35.682 54.2433 35.9113 54.1904 36.1185 54.086C36.3257 53.9815 36.5046 53.8285 36.6399 53.64C37.3899 53.55 38.1099 53.44 38.7599 53.38C41.5899 53.09 44.6499 53.19 47.4199 52.6C48.8399 52.29 50.3399 49.92 49.4199 49.2C48.9615 48.6845 48.4125 48.2574 47.7999 47.94C47.2599 47.57 45.7999 46.65 45.5999 46.51C44.3108 45.9202 43.1491 45.0846 42.1799 44.05C41.4499 43.13 41.3799 41.79 40.8199 40.72C41.1099 34.72 42.5599 35.72 42.9799 35.1C43.3999 34.48 45.2099 32.24 49.0299 33.63C51.9199 34.63 53.7999 32.63 55.0299 34.12C55.6099 34.79 56.2899 35.39 57.3799 34.42C58.8899 33.07 61.3199 33.34 63.8399 32.72C66.3599 32.1 67.0099 29.72 66.4599 28.98C65.9099 28.24 65.5999 28.55 66.6499 26.84C67.6999 25.13 65.2799 22.67 65.2099 21.33M20.2799 29.33C19.8199 29.75 19.0299 29.39 18.5199 29.42C18.0099 29.45 18.8899 28.5 17.1499 27.6C15.4099 26.7 16.2799 25.6 16.5899 25.34C18.1299 23.96 18.0899 27.47 18.0899 27.47C18.4399 28.18 19.4899 27.9 20.1599 28.1C20.8299 28.3 20.7399 28.91 20.2799 29.33ZM51.7799 17.83C51.7407 17.9494 51.7301 18.0763 51.749 18.2005C51.7679 18.3248 51.8158 18.4428 51.8889 18.5451C51.9619 18.6473 52.058 18.7309 52.1694 18.7891C52.2808 18.8473 52.4043 18.8784 52.5299 18.88C52.9399 18.88 53.4799 18.4 53.9499 18.97C54.4199 19.54 52.8799 20.26 52.8799 20.26C51.6599 21.03 49.0799 19.26 49.0799 19.26C49.1899 18.92 49.9799 18.96 50.4699 18.95C51.4699 18.95 51.8999 17.27 51.7799 17.87M47.8499 5.24C48.6399 6.11 49.5699 5.46 49.5399 6.24C49.5099 7.02 49.1999 7.15 48.4799 7.11C47.7599 7.07 47.2999 7.51 46.9799 6.45C46.6599 5.39 46.8699 5.77 46.2199 5.31C46.3067 5.17583 46.4243 5.06439 46.5629 4.98502C46.7016 4.90565 46.8572 4.86065 47.0168 4.85379C47.1765 4.84694 47.3354 4.87843 47.4803 4.94562C47.6253 5.01282 47.752 5.11376 47.8499 5.24ZM27.1599 26.76C26.8899 27.11 26.3099 26.49 25.6799 26.5C25.0499 26.51 25.4399 25.42 24.5899 24.43C23.0899 22.67 28.3099 25.27 27.1599 26.76ZM24.7599 16.3C26.3699 15.68 25.9599 12.7 25.9599 12.7C26.0299 13.57 27.7699 15.02 28.4599 15.41C27.3676 16.1279 26.0592 16.4426 24.7599 16.3ZM28.9999 7.9C30.2299 6.84 30.1399 9.6 30.1399 9.6C30.4099 10.16 31.2399 9.96 31.7599 10.12C32.2799 10.28 32.1999 10.77 31.8299 11.12C31.4599 11.47 30.8299 11.12 30.4499 11.12C30.0699 11.12 30.7599 10.4 29.4499 9.68C28.1399 8.96 28.7099 8.12 28.9999 7.9ZM29.3499 23.18C29.2583 22.9553 29.2167 22.7133 29.2281 22.4709C29.2395 22.2285 29.3036 21.9915 29.4159 21.7764C29.5282 21.5613 29.6861 21.3732 29.8785 21.2253C30.0709 21.0774 30.2932 20.9732 30.5299 20.92C31.4399 20.71 33.3099 22.92 32.1199 22.59C29.9099 22.06 29.4799 23.46 29.3499 23.18ZM33.9999 31.68C33.0947 31.2056 32.2979 30.5484 31.6599 29.75C30.4399 28.32 31.4999 27.6 31.4499 25.95C31.3999 24.3 34.2799 24.67 34.2799 24.67C35.4499 24.83 34.5999 26.58 34.5999 26.58C33.9989 27.2693 33.6201 28.124 33.513 29.0322C33.4059 29.9405 33.5757 30.8599 33.9999 31.67M38.0699 35.4C36.7841 34.5914 35.7812 33.4033 35.1999 32C34.5299 30 34.4699 28.13 35.3999 27.13C35.6218 26.8529 35.7694 26.5239 35.8289 26.174C35.8884 25.8241 35.8578 25.4648 35.7399 25.13C35.9299 25.13 36.5499 25.47 36.7399 25.53C37.4199 27.77 38.6599 32.53 38.0099 35.43M36.3799 12.34C37.6099 10.53 34.9999 9.42 34.9999 9.42L34.8999 9.22C35.0076 8.95033 35.1819 8.71232 35.4064 8.52814C35.6309 8.34397 35.8983 8.21964 36.1839 8.16672C36.4694 8.11381 36.7637 8.13405 37.0392 8.22555C37.3148 8.31705 37.5628 8.47683 37.7599 8.69C37.5499 9.4 38.2999 10.03 39.1399 10.16C39.9799 10.29 40.4799 12.16 40.4799 12.16C38.9099 10.35 36.3499 12.39 36.3499 12.39M41.6799 31.97C41.3199 32.39 41.0099 32.79 40.7299 33.17C40.1808 30.8704 39.5133 28.6007 38.7299 26.37C39.1514 26.6029 39.5528 26.8705 39.9299 27.17C41.0199 28.05 42.6999 30.71 41.6299 31.97M49.2699 28.23C48.7399 29.12 47.6199 28.72 46.5099 28.88C45.4579 29.1541 44.4485 29.5713 43.5099 30.12L43.3299 29.62C43.3299 28.04 40.3299 25.89 40.3299 25.89C39.6099 25.22 40.4499 24.6 41.0099 24.48C40.9417 24.5878 40.9007 24.7105 40.8902 24.8376C40.8798 24.9648 40.9003 25.0925 40.9499 25.21C41.2499 25.95 42.0999 25.63 42.8199 25.76C43.5399 25.89 44.6999 26.6 44.8199 27.21C44.9399 27.82 46.1199 28.21 46.5799 27.63C46.8463 27.3083 47.1789 27.048 47.5552 26.8668C47.9314 26.6856 48.3424 26.5877 48.7599 26.58C48.9189 26.6058 49.081 26.6058 49.2399 26.58C49.1951 26.6157 49.158 26.6603 49.1311 26.7109C49.1041 26.7615 49.0877 26.817 49.083 26.8742C49.0784 26.9313 49.0854 26.9888 49.1038 27.0432C49.1222 27.0975 49.1515 27.1474 49.1899 27.19C49.3299 27.34 49.8199 27.39 49.2799 28.27M56.5799 26.43C56.1799 25.99 56.1099 24.43 53.3599 24.11C52.4191 24.1337 51.5019 23.8137 50.7799 23.21C50.0399 22.57 49.9699 22.93 49.1099 22.76C48.6899 22.67 48.3499 22.5 48.0199 22.67C47.965 22.3265 47.8122 22.0061 47.5799 21.7472C47.3475 21.4882 47.0455 21.3017 46.7099 21.21C46.333 21.1105 45.9483 21.0436 45.5599 21.01C45.9507 20.7715 46.3968 20.6387 46.8544 20.6247C47.3119 20.6107 47.7653 20.7159 48.1699 20.93C48.1699 20.93 50.1699 21.87 50.6199 22.03C51.1484 22.2507 51.7337 22.2962 52.2899 22.16C53.2299 22.01 53.4099 21.23 54.0699 21.55C55.3599 22.16 54.4099 21.91 54.1599 22.55C53.9099 23.19 54.6299 22.84 55.3999 23.24C56.1699 23.64 57.0399 24.12 57.0999 24.51C57.1406 25.2133 56.9625 25.912 56.5899 26.51M58.9999 17.2C58.1022 15.9679 56.8802 15.009 55.4699 14.43C54.8299 14.32 54.0799 13.83 54.0499 13.61C54.0199 13.39 54.2999 12.92 52.7999 11.94C51.2999 10.96 52.2699 10.14 52.2699 10.14C52.9699 9.28 54.6899 11.28 54.2699 11.8C53.8499 12.32 54.7099 13.23 55.1699 13.64C55.9199 14.3 56.7399 12.64 58.1699 14.05C58.5831 14.4489 58.879 14.9536 59.0254 15.509C59.1717 16.0644 59.1629 16.6493 58.9999 17.2Z" fill="#809428"/>
<path d="M0 120.67C0.277381 121.064 0.64174 121.389 1.06486 121.62C1.48798 121.85 1.9585 121.98 2.44 122C3.35 122 3.9 121.55 3.9 120.82C3.9 120.09 3.37 119.7 2.37 119.07C0.83 118.07 0.03 117.53 0.03 116.22C0.0340421 115.879 0.108771 115.542 0.249472 115.231C0.390173 114.92 0.593792 114.642 0.847484 114.413C1.10118 114.185 1.39943 114.012 1.72344 113.904C2.04745 113.797 2.39018 113.758 2.73 113.79C3.46544 113.802 4.18277 114.02 4.8 114.42V115.9C4.22002 115.362 3.47004 115.043 2.68 115C1.84 115 1.29 115.47 1.29 116.08C1.29 116.69 1.99 117.19 3.09 117.88C4.43 118.71 5.22 119.32 5.22 120.88C5.21323 121.22 5.1365 121.554 4.9946 121.863C4.85269 122.171 4.64867 122.447 4.39528 122.673C4.14189 122.9 3.84457 123.071 3.52191 123.177C3.19924 123.283 2.85817 123.322 2.52 123.29C1.59754 123.324 0.696766 123.005 0 122.4L0 120.67Z" fill="#809428"/>
<path d="M11.1299 114H12.0799L16.0799 123.13H14.7399L13.5599 120.44H9.67992L8.50992 123.1H7.16992L11.1299 114ZM13.0299 119.27L11.5899 116L10.1899 119.29L13.0299 119.27Z" fill="#809428"/>
<path d="M20.0199 115.16H16.6699V113.97H24.6799V115.16H21.3199V123.1H20.0199V115.16Z" fill="#809428"/>
<path d="M28.4501 115.2C29.3795 114.316 30.6128 113.824 31.8951 113.824C33.1774 113.824 34.4107 114.316 35.3401 115.2C35.7905 115.633 36.1488 116.152 36.3935 116.727C36.6383 117.302 36.7644 117.92 36.7644 118.545C36.7644 119.17 36.6383 119.788 36.3935 120.363C36.1488 120.938 35.7905 121.457 35.3401 121.89C34.4102 122.776 33.1748 123.271 31.8901 123.271C30.6054 123.271 29.37 122.776 28.4401 121.89C27.9872 121.458 27.6266 120.94 27.3802 120.365C27.1339 119.79 27.0068 119.171 27.0068 118.545C27.0068 117.919 27.1339 117.3 27.3802 116.725C27.6266 116.15 27.9872 115.631 28.4401 115.2M29.4401 121C29.7602 121.336 30.1443 121.605 30.5698 121.79C30.9953 121.976 31.4535 122.074 31.9177 122.08C32.3818 122.085 32.8423 121.998 33.2722 121.823C33.7021 121.648 34.0926 121.389 34.4208 121.061C34.749 120.733 35.0082 120.342 35.1832 119.912C35.3582 119.482 35.4455 119.022 35.4398 118.558C35.4342 118.093 35.3357 117.635 35.1503 117.21C34.9649 116.784 34.6962 116.4 34.3601 116.08C34.0378 115.757 33.654 115.502 33.2314 115.331C32.8089 115.159 32.3562 115.074 31.9001 115.08C30.9806 115.077 30.0969 115.436 29.4401 116.08C28.7903 116.734 28.4257 117.618 28.4257 118.54C28.4257 119.462 28.7903 120.346 29.4401 121Z" fill="#809428"/>
<path d="M41.6899 118.53L38.1599 113.97H39.7099L42.3699 117.43L45.0999 113.97H46.6699L43.0099 118.6V123.1H41.6899V118.53Z" fill="#809428"/>
<path d="M51 114H51.95L55.95 123.13H54.61L53.43 120.44H49.54L48.38 123.13H47L51 114ZM52.9 119.27L51.45 116L50.05 119.29L52.9 119.27Z" fill="#809428"/>
<path d="M58.4099 113.97H59.5499L62.8399 117.81L66.1199 113.97H67.2599V123.1H65.9899V115.98L62.8399 119.66L59.6799 115.98V123.1H58.4099V113.97Z" fill="#809428"/>
<path d="M73.67 114H74.62L78.62 123.13H77.28L76.1 120.44H72.21L71 123.1H69.71L73.67 114ZM75.57 119.27L74.12 116L72.72 119.29L75.57 119.27Z" fill="#809428"/>
<path d="M1.24003 126.71H0.280029V133.42H1.24003V126.71Z" fill="#809428"/>
<path d="M6.43994 126.71H7.26994L11.6999 131.92V126.71H12.6499V133.43H11.7899L7.38994 128.21V133.43H6.43994V126.71Z" fill="#809428"/>
<path d="M18.8001 126.71H17.8401V133.42H18.8001V126.71Z" fill="#809428"/>
<path d="M25.8101 127.59H23.3401V126.71H29.2301V127.59H26.7701V133.43H25.8101V127.59Z" fill="#809428"/>
<path d="M34.73 126.71H33.77V133.42H34.73V126.71Z" fill="#809428"/>
<path d="M41.9 126.71H42.6L45.55 133.42H44.55L43.68 131.42H40.83L39.97 133.42H39L41.9 126.71ZM43.3 130.58L42.24 128.16L41.24 130.58H43.3Z" fill="#809428"/>
<path d="M50.8599 127.59H48.3999V126.71H54.2799V127.59H51.8199V133.43H50.8599V127.59Z" fill="#809428"/>
<path d="M59.7901 126.71H58.8201V133.42H59.7901V126.71Z" fill="#809428"/>
<path d="M64.0601 126.71H65.0701L67.1601 131.5L69.2901 126.71H70.2901L67.2701 133.47H67.0201L64.0601 126.71Z" fill="#809428"/>
<path d="M74.53 126.71H78.57V127.56H75.48V129.6H78.48V130.47H75.48V132.56H78.67V133.43H74.53V126.71Z" fill="#809428"/>
</svg>
