<svg width="270" height="493" viewBox="0 0 270 493" fill="none" xmlns="http://www.w3.org/2000/svg">
<mask id="mask0_12_5431" style="mask-type:luminance" maskUnits="userSpaceOnUse" x="-60" y="325" width="121" height="125">
<path d="M-59.4882 370.188L-5.99907 325.121L60.2861 404.014L6.79696 449.08L-59.4882 370.188Z" fill="white"/>
</mask>
<g mask="url(#mask0_12_5431)">
<mask id="mask1_12_5431" style="mask-type:luminance" maskUnits="userSpaceOnUse" x="-61" y="295" width="210" height="204">
<path d="M148.029 403.32L67.2829 498.139L-60.9612 389.936L19.7927 295.11L148.029 403.32Z" fill="white"/>
</mask>
<g mask="url(#mask1_12_5431)">
<mask id="mask2_12_5431" style="mask-type:luminance" maskUnits="userSpaceOnUse" x="-61" y="295" width="210" height="204">
<path d="M148.029 403.32L67.2829 498.139L-60.9612 389.936L19.7927 295.11L148.029 403.32Z" fill="white"/>
</mask>
<g mask="url(#mask2_12_5431)">
<mask id="mask3_12_5431" style="mask-type:luminance" maskUnits="userSpaceOnUse" x="-61" y="295" width="210" height="204">
<path d="M148.029 403.32L67.2829 498.139L-60.9612 389.936L19.7927 295.11L148.029 403.32Z" fill="white"/>
</mask>
<g mask="url(#mask3_12_5431)">
<mask id="mask4_12_5431" style="mask-type:luminance" maskUnits="userSpaceOnUse" x="-16" y="327" width="24" height="119">
<path d="M-9.44292 408.247C-9.33351 399.49 -6.6755 390.907 -3.83297 382.56C-0.990439 374.212 2.11243 365.849 3.1507 357.118C3.15769 357.045 3.17796 356.988 3.1769 356.921C4.38529 346.482 0.814839 336.155 -6.41433 328.695C-6.90604 328.191 -7.40578 327.694 -7.91216 327.19C-2.79269 334.214 -1.57902 343.517 -2.61729 352.247C-3.65555 360.977 -6.75039 369.334 -9.609 377.695C-12.4582 386.034 -15.1148 394.602 -15.2256 403.374C-15.436 420.18 -5.92668 435.99 7.50651 445.917C-2.77701 436.063 -9.62794 422.534 -9.44292 408.247Z" fill="white"/>
</mask>
<g mask="url(#mask4_12_5431)">
<path d="M13.2327 455.708L-71.3106 384.371L-15.9073 319.308L68.636 390.646L13.2327 455.708Z" fill="url(#paint0_linear_12_5431)" fill-opacity="0.3"/>
</g>
</g>
</g>
</g>
</g>
<mask id="mask5_12_5431" style="mask-type:luminance" maskUnits="userSpaceOnUse" x="-45" y="325" width="149" height="156">
<path d="M-44.8109 375.318L14.8987 325.016L103.352 430.281L43.6424 480.582L-44.8109 375.318Z" fill="white"/>
</mask>
<g mask="url(#mask5_12_5431)">
<mask id="mask6_12_5431" style="mask-type:luminance" maskUnits="userSpaceOnUse" x="-61" y="295" width="210" height="204">
<path d="M148.029 403.319L67.283 498.138L-60.9611 389.935L19.7928 295.11L148.029 403.319Z" fill="white"/>
</mask>
<g mask="url(#mask6_12_5431)">
<mask id="mask7_12_5431" style="mask-type:luminance" maskUnits="userSpaceOnUse" x="-61" y="295" width="210" height="204">
<path d="M148.029 403.319L67.283 498.138L-60.9611 389.935L19.7928 295.11L148.029 403.319Z" fill="white"/>
</mask>
<g mask="url(#mask7_12_5431)">
<mask id="mask8_12_5431" style="mask-type:luminance" maskUnits="userSpaceOnUse" x="-61" y="295" width="210" height="204">
<path d="M148.029 403.319L67.283 498.138L-60.9611 389.935L19.7928 295.11L148.029 403.319Z" fill="white"/>
</mask>
<g mask="url(#mask8_12_5431)">
<mask id="mask9_12_5431" style="mask-type:luminance" maskUnits="userSpaceOnUse" x="-3" y="334" width="69" height="126">
<path d="M19.5298 446.006C32.6799 455.148 49.0911 458.868 65.2546 459.286C56.0119 455.807 51.0558 445.462 50.4888 435.567C49.9218 425.671 52.8208 415.895 54.8286 406.153C56.8445 396.405 57.9231 385.934 53.9873 376.917C50.9616 369.998 45.195 364.591 38.722 360.697C34.4608 358.127 29.8699 356.146 25.1779 354.372C27.9681 359.801 29.9724 365.636 31.0849 371.669C33.362 384.041 32.9467 396.871 31.8791 409.481C29.8341 433.598 33.4087 438.326 41.1186 445.392C33.3487 441.442 29.3902 432.432 28.4815 423.716C27.5728 414.999 29.0865 406.174 29.2641 397.393C29.7346 374.116 20.3644 350.998 3.9166 334.842C8.65253 341.36 9.79799 349.999 8.82708 358.097C7.85477 366.21 4.9777 373.969 2.3318 381.708C-0.307441 389.456 -2.78195 397.416 -2.86868 405.553C-3.09777 421.711 6.37314 436.856 19.5298 446.006Z" fill="white"/>
</mask>
<g mask="url(#mask9_12_5431)">
<path d="M51.4808 487.088L-59.5748 393.385L4.51004 318.129L115.566 411.833L51.4808 487.088Z" fill="url(#paint1_linear_12_5431)" fill-opacity="0.2"/>
</g>
</g>
</g>
</g>
</g>
<mask id="mask10_12_5431" style="mask-type:luminance" maskUnits="userSpaceOnUse" x="-18" y="178" width="131" height="139">
<path d="M-17.3552 224.136L34.7065 178.097L112.123 270.701L60.0611 316.74L-17.3552 224.136Z" fill="white"/>
</mask>
<g mask="url(#mask10_12_5431)">
<mask id="mask11_12_5431" style="mask-type:luminance" maskUnits="userSpaceOnUse" x="-31" y="152" width="185" height="181">
<path d="M153.195 243.983L84.1389 332.49L-30.8693 240.924L38.1864 152.416L153.195 243.983Z" fill="white"/>
</mask>
<g mask="url(#mask11_12_5431)">
<mask id="mask12_12_5431" style="mask-type:luminance" maskUnits="userSpaceOnUse" x="-31" y="152" width="185" height="181">
<path d="M153.195 243.983L84.1389 332.49L-30.8693 240.924L38.1864 152.416L153.195 243.983Z" fill="white"/>
</mask>
<g mask="url(#mask12_12_5431)">
<mask id="mask13_12_5431" style="mask-type:luminance" maskUnits="userSpaceOnUse" x="-31" y="152" width="185" height="181">
<path d="M153.195 243.983L84.1389 332.49L-30.8693 240.924L38.1864 152.416L153.195 243.983Z" fill="white"/>
</mask>
<g mask="url(#mask13_12_5431)">
<mask id="mask14_12_5431" style="mask-type:luminance" maskUnits="userSpaceOnUse" x="20" y="188" width="62" height="110">
<path d="M41.0582 287.788C52.8258 295.424 67.3197 298.056 81.539 297.742C73.3461 295.016 68.7703 285.946 68.0761 277.089C67.3743 268.249 69.7195 259.351 71.2895 250.531C72.8543 241.705 73.5946 232.262 69.9373 224.344C67.1322 218.264 61.9514 213.667 56.1783 210.451C52.3765 208.324 48.3063 206.748 44.1485 205.358C46.7089 210.113 48.5865 215.255 49.6921 220.624C51.9541 231.621 51.8454 243.141 51.1708 254.5C49.8774 276.214 53.1068 280.302 60.0417 286.309C53.1162 283.103 49.4578 275.196 48.4797 267.415C47.5017 259.633 48.6424 251.648 48.628 243.763C48.5566 222.876 39.8436 202.536 25.0388 188.755C29.3457 194.396 30.5296 202.093 29.8381 209.399C29.1569 216.717 26.7834 223.795 24.6267 230.856C22.4521 237.921 20.4467 245.163 20.5349 252.462C20.668 266.969 29.3096 280.136 41.0582 287.788Z" fill="white"/>
</mask>
<g mask="url(#mask14_12_5431)">
<path d="M69.7786 324.546L-31.0254 244.291L25.2486 172.156L126.058 252.416L69.7786 324.546Z" fill="url(#paint2_linear_12_5431)" fill-opacity="0.2"/>
</g>
</g>
</g>
</g>
</g>
<mask id="mask15_12_5431" style="mask-type:luminance" maskUnits="userSpaceOnUse" x="41" y="184" width="130" height="141">
<path d="M41.4606 228.569L107.211 184.589L170.537 280.847L104.787 324.827L41.4606 228.569Z" fill="white"/>
</mask>
<g mask="url(#mask15_12_5431)">
<mask id="mask16_12_5431" style="mask-type:luminance" maskUnits="userSpaceOnUse" x="-56" y="133" width="232" height="231">
<path d="M175.751 265.353L75.4147 363.592L-55.4557 232.039L44.8807 133.8L175.751 265.353Z" fill="white"/>
</mask>
<g mask="url(#mask16_12_5431)">
<mask id="mask17_12_5431" style="mask-type:luminance" maskUnits="userSpaceOnUse" x="-56" y="133" width="232" height="231">
<path d="M175.751 265.353L75.4147 363.593L-55.4556 232.039L44.8809 133.8L175.751 265.353Z" fill="white"/>
</mask>
<g mask="url(#mask17_12_5431)">
<mask id="mask18_12_5431" style="mask-type:luminance" maskUnits="userSpaceOnUse" x="-56" y="133" width="232" height="231">
<path d="M175.751 265.353L75.4147 363.593L-55.4556 232.039L44.8809 133.8L175.751 265.353Z" fill="white"/>
</mask>
<g mask="url(#mask18_12_5431)">
<path d="M80.0988 228.474C81.6683 233.245 82.0136 238.268 81.605 243.329C83.1584 243.557 84.7062 243.777 86.2871 243.95C96.0605 244.981 106.071 244.549 115.599 246.777C125.118 249.012 134.461 254.624 137.571 263.792C129.258 252.9 123.49 250.667 99.2624 248.549C93.2525 248.003 87.199 247.586 81.1973 246.936C80.5163 251.699 79.2567 256.455 77.8203 261.058C76.5535 265.105 75.1532 269.143 73.8833 273.204C79.7351 274.052 85.877 273.906 91.8487 273.443C102.979 272.582 114.28 270.757 125.151 272.777C136.03 274.791 146.699 281.72 149.053 292.414C151.216 274.489 149.758 255.849 141.752 240.014C133.737 224.184 118.498 211.588 100.555 209.561C91.5262 208.537 82.3064 210.151 73.2705 211.986C71.9852 212.243 70.6999 212.5 69.4258 212.773C74.1894 217.106 78.0828 222.365 80.0988 228.474Z" fill="#007931" fill-opacity="0.2"/>
</g>
</g>
</g>
</g>
<mask id="mask19_12_5431" style="mask-type:luminance" maskUnits="userSpaceOnUse" x="-64" y="28" width="92" height="90">
<path d="M-63.0158 75.6099L-7.63924 28.9425L27.9434 71.3031L-27.4332 117.971L-63.0158 75.6099Z" fill="white"/>
</mask>
<g mask="url(#mask19_12_5431)">
<mask id="mask20_12_5431" style="mask-type:luminance" maskUnits="userSpaceOnUse" x="-56" y="47" width="84" height="51">
<path d="M26.3703 47.1707L27.0164 94.8448L-54.5803 97.4201L-55.2265 49.7461L26.3703 47.1707Z" fill="white"/>
</mask>
<g mask="url(#mask20_12_5431)">
<mask id="mask21_12_5431" style="mask-type:luminance" maskUnits="userSpaceOnUse" x="-56" y="47" width="84" height="51">
<path d="M26.3703 47.1707L27.0164 94.8448L-54.5803 97.4201L-55.2265 49.7461L26.3703 47.1707Z" fill="white"/>
</mask>
<g mask="url(#mask21_12_5431)">
<mask id="mask22_12_5431" style="mask-type:luminance" maskUnits="userSpaceOnUse" x="-56" y="50" width="83" height="46">
<path d="M-16.4352 94.1893C-11.2666 92.9151 -6.47076 90.4478 -1.79404 87.8388C-6.11376 89.7164 -11.358 89.0763 -15.7538 87.2637C-20.8932 85.1358 -25.311 81.6193 -30.2115 78.994C-35.104 76.362 -40.9502 74.6144 -46.2991 76.3906C-41.6649 73.454 -35.5778 74.2181 -30.6435 76.4112C-25.7078 78.5896 -21.4454 82.0352 -16.64 84.4984C-11.8265 86.9548 -6.01627 88.3828 -0.97172 86.2442C-6.28909 85.908 -10.8929 82.6424 -14.8651 79.1676C-18.844 75.685 -22.6457 71.8107 -27.5434 69.7752C-34.57 66.8828 -43.2847 68.6427 -48.9105 73.8681C-45.9106 70.4519 -41.7748 68.0296 -37.3394 67.1041C-32.5738 66.1156 -27.5031 66.875 -23.2811 69.1974C-19.9139 71.056 -17.1705 73.8171 -14.4601 76.5388C-11.7564 79.2526 -8.99039 82.008 -5.59636 83.8171C-2.21034 85.6329 1.95308 86.4034 5.58037 84.9882C0.50649 85.2676 -4.10493 82.2373 -7.65785 78.6917C-11.2028 75.1393 -14.1183 70.9354 -18.0589 67.8242C-24.9257 62.4019 -34.7694 60.9283 -43.0804 64.0972C-38.1649 57.8959 -30.1022 54.6268 -22.2558 54.6348C-14.4093 54.6429 -6.84174 57.658 -0.473724 62.128C-12.4786 55.8012 -24.1938 55.4876 -32.5294 60.6957C-32.5294 60.6957 -24.6719 59.6582 -17.5873 64.8835C-13.3409 68.0331 -8.60508 73.7037 -3.32531 74.435C1.78029 75.1381 7.21704 72.7497 12.2735 71.57C17.3379 70.3835 22.7043 67.9603 26.6682 71.2134C20.2953 64.7829 13.7123 58.3141 5.56613 54.3333C-5.68249 48.8091 -19.4949 48.6211 -31.0807 53.8366C-42.6665 59.0521 -51.8069 69.5404 -55.3311 81.7145C-53.0128 79.9626 -49.748 79.9564 -47.1012 81.0226C-44.4477 82.0967 -42.301 84.0823 -40.3235 86.1432C-38.3381 88.1974 -36.4449 90.3697 -34.0836 91.9592C-29.0413 95.3396 -22.3948 95.6457 -16.4352 94.1893Z" fill="white"/>
</mask>
<g mask="url(#mask22_12_5431)">
<path d="M27.3061 114.371L-60.7125 117.154L-61.8775 31.5239L26.1411 28.7405L27.3061 114.371Z" fill="#007931" fill-opacity="0.2"/>
</g>
</g>
</g>
</g>
<mask id="mask23_12_5431" style="mask-type:luminance" maskUnits="userSpaceOnUse" x="8" y="98" width="151" height="150">
<path d="M8.00433 172.628L96.2373 98.2724L158.959 172.941L70.7263 247.296L8.00433 172.628Z" fill="white"/>
</mask>
<g mask="url(#mask23_12_5431)">
<mask id="mask24_12_5431" style="mask-type:luminance" maskUnits="userSpaceOnUse" x="1" y="89" width="172" height="145">
<path d="M38.9765 233.506L1.85412 152.893L135.74 89.5397L172.862 170.152L38.9765 233.506Z" fill="white"/>
</mask>
<g mask="url(#mask24_12_5431)">
<mask id="mask25_12_5431" style="mask-type:luminance" maskUnits="userSpaceOnUse" x="1" y="89" width="172" height="145">
<path d="M38.9765 233.506L1.85412 152.893L135.74 89.5397L172.862 170.152L38.9765 233.506Z" fill="white"/>
</mask>
<g mask="url(#mask25_12_5431)">
<mask id="mask26_12_5431" style="mask-type:luminance" maskUnits="userSpaceOnUse" x="1" y="89" width="172" height="145">
<path d="M38.9765 233.506L1.85412 152.893L135.74 89.5397L172.862 170.152L38.9765 233.506Z" fill="white"/>
</mask>
<g mask="url(#mask26_12_5431)">
<mask id="mask27_12_5431" style="mask-type:luminance" maskUnits="userSpaceOnUse" x="13" y="133" width="146" height="70">
<path d="M46.7878 141.748C32.3399 150.329 21.5712 164.169 13.9989 179.127C21.3798 171.91 33.3038 171.488 42.855 175.004C52.3997 178.511 60.3055 185.218 68.5782 191.09C76.8362 196.961 86.1962 202.253 96.4294 202.246C104.275 202.232 111.912 199.053 118.442 194.587C122.762 191.647 126.662 188.158 130.4 184.51C124.06 184.898 117.68 184.392 111.529 182.952C98.8775 180.015 87.0126 174.397 75.6264 168.241C53.878 156.479 47.8397 157.878 37.7691 162.219C44.929 156.548 55.1622 156.541 63.7586 159.246C72.3615 161.958 79.9777 166.984 88.1569 170.74C109.82 180.689 135.713 181.366 158.189 172.549C149.954 174.332 141.342 171.869 134.151 167.643C126.96 163.418 120.941 157.572 114.844 151.926C108.732 146.28 102.361 140.716 94.7459 137.306C79.6688 130.504 61.2277 133.174 46.7878 141.748Z" fill="white"/>
</mask>
<g mask="url(#mask27_12_5431)">
<path d="M-4.85617 144.696L118.524 86.3184L170.483 199.156L47.1033 257.534L-4.85617 144.696Z" fill="url(#paint3_linear_12_5431)" fill-opacity="0.2"/>
</g>
</g>
</g>
</g>
</g>
<mask id="mask28_12_5431" style="mask-type:luminance" maskUnits="userSpaceOnUse" x="-16" y="66" width="90" height="89">
<path d="M-15.8265 108.932L34.4635 66.5524L73.0426 112.479L22.7526 154.858L-15.8265 108.932Z" fill="white"/>
</mask>
<g mask="url(#mask28_12_5431)">
<mask id="mask29_12_5431" style="mask-type:luminance" maskUnits="userSpaceOnUse" x="-18" y="75" width="91" height="64">
<path d="M-10.7806 138.532L-17.3512 94.8826L65.544 75.6011L72.1088 119.244L-10.7806 138.532Z" fill="white"/>
</mask>
<g mask="url(#mask29_12_5431)">
<mask id="mask30_12_5431" style="mask-type:luminance" maskUnits="userSpaceOnUse" x="-18" y="75" width="91" height="64">
<path d="M-10.7806 138.532L-17.3512 94.8826L65.544 75.6011L72.1088 119.244L-10.7806 138.532Z" fill="white"/>
</mask>
<g mask="url(#mask30_12_5431)">
<mask id="mask31_12_5431" style="mask-type:luminance" maskUnits="userSpaceOnUse" x="-18" y="75" width="91" height="64">
<path d="M-10.7806 138.532L-17.3512 94.8826L65.544 75.6011L72.1088 119.244L-10.7806 138.532Z" fill="white"/>
</mask>
<g mask="url(#mask31_12_5431)">
<mask id="mask32_12_5431" style="mask-type:luminance" maskUnits="userSpaceOnUse" x="-16" y="86" width="87" height="41">
<path d="M10.8837 90.3735C1.16347 94.6999 -7.1209 101.811 -15.235 108.802C-10.2108 106.995 -4.7622 107.706 -0.108698 109.605C4.53901 111.498 8.52406 114.491 12.5516 117.366C16.5734 120.233 20.7509 123.041 25.5995 124.481C32.512 126.551 40.5214 126.624 47.7468 124.765C55.4113 122.784 62.3605 118.707 68.5202 113.398C69.0282 112.958 70.6453 111.289 70.9224 111.173C62.8983 114.247 54.0633 114.681 46.2809 112.39C40.8492 110.793 36.0042 107.959 30.8537 105.76C25.6955 103.567 19.9514 101.998 14.1497 103.14C21.8116 103.506 27.0518 109.836 33.6206 113.232C39.9058 116.49 48.6239 118.759 55.8286 116.399C48 121.288 37.3228 122.002 29.2173 119.111C23.9693 117.241 19.5639 112.611 14.9292 109.659C10.3079 106.707 5.1056 104.139 -0.654118 104.256C5.07216 100.95 10.8647 97.6009 17.1092 95.6496C23.348 93.6915 30.1751 93.2172 35.8182 95.6495C40.8713 97.8249 44.4965 102.064 48.6266 105.583C52.745 109.088 58.0908 112.042 63.7874 110.882C53.8275 106.997 49.6654 95.422 40.5957 89.9856C32.1744 84.9219 20.6097 86.054 10.8837 90.3735Z" fill="white"/>
</mask>
<g mask="url(#mask32_12_5431)">
<path d="M-19.7532 79.5872L63.3936 60.2389L75.4584 140.41L-7.69419 159.752L-19.7532 79.5872Z" fill="#7AAE40" fill-opacity="0.3"/>
</g>
</g>
</g>
</g>
</g>
<mask id="mask33_12_5431" style="mask-type:luminance" maskUnits="userSpaceOnUse" x="-3" y="293" width="72" height="68">
<path d="M11.2864 293.168L68.5999 310.761L55.3016 360.934L-2.0119 343.341L11.2864 293.168Z" fill="white"/>
</mask>
<g mask="url(#mask33_12_5431)">
<mask id="mask34_12_5431" style="mask-type:luminance" maskUnits="userSpaceOnUse" x="-8" y="285" width="87" height="79">
<path d="M-7.69609 310.458L20.5491 285.617L78.4391 338.214L50.1958 363.048L-7.69609 310.458Z" fill="white"/>
</mask>
<g mask="url(#mask34_12_5431)">
<mask id="mask35_12_5431" style="mask-type:luminance" maskUnits="userSpaceOnUse" x="-8" y="285" width="87" height="79">
<path d="M-7.7371 310.405L20.4871 285.642L78.48 338.268L50.2578 363.023L-7.7371 310.405Z" fill="white"/>
</mask>
<g mask="url(#mask35_12_5431)">
<mask id="mask36_12_5431" style="mask-type:luminance" maskUnits="userSpaceOnUse" x="-8" y="285" width="87" height="79">
<path d="M-7.74553 310.394L20.4743 285.647L78.4885 338.279L50.2706 363.018L-7.74553 310.394Z" fill="white"/>
</mask>
<g mask="url(#mask36_12_5431)">
<mask id="mask37_12_5431" style="mask-type:luminance" maskUnits="userSpaceOnUse" x="11" y="293" width="45" height="66">
<path d="M38.6944 304.56C30.362 299.305 20.7661 296.389 11.3483 293.546C15.3421 296.458 17.728 300.836 18.8242 305.165C19.9224 309.486 19.8657 313.817 19.9178 318.126C19.9719 322.427 20.1529 326.817 21.6875 331.081C23.8637 337.168 28.0792 343.159 33.2842 347.685C38.8124 352.482 45.4863 355.79 52.6368 357.948C53.2279 358.125 55.3059 358.566 55.5378 358.719C49.0219 354.154 43.9969 347.78 41.5185 340.944C39.7872 336.175 39.2698 331.277 38.1271 326.441C36.9758 321.603 35.058 316.613 31.1339 312.819C34.9508 318.685 33.1315 325.474 34.158 331.911C35.1339 338.074 38.1276 345.595 43.6864 349.877C35.9525 346.286 29.7418 338.67 27.5281 331.32C26.0935 326.562 27.1189 321.171 26.7998 316.375C26.4873 311.59 25.5858 306.547 22.431 302.316C27.8911 305.067 33.4186 307.846 38.1682 311.6C42.9198 315.347 46.9039 320.209 48.1393 325.517C49.2474 330.269 48.0911 334.902 47.7285 339.581C47.3698 344.245 48.0667 349.57 51.9475 353.278C49.4698 344.095 55.6848 335.714 54.8119 326.485C54.0131 317.908 47.0249 309.822 38.6944 304.56Z" fill="white"/>
</mask>
<g mask="url(#mask37_12_5431)">
<path d="M30.2234 276.817L88.6604 329.861L36.6573 375.467L-21.7777 322.414L30.2234 276.817Z" fill="#7AAE40" fill-opacity="0.3"/>
</g>
</g>
</g>
</g>
</g>
<defs>
<linearGradient id="paint0_linear_12_5431" x1="41.849" y1="422.106" x2="-42.3723" y2="350.382" gradientUnits="userSpaceOnUse">
<stop stop-color="#7DB141"/>
<stop offset="0.125" stop-color="#7CB141"/>
<stop offset="0.25" stop-color="#7CB041"/>
<stop offset="0.375" stop-color="#7BB041"/>
<stop offset="0.5" stop-color="#7BAF40"/>
<stop offset="0.625" stop-color="#7AAF40"/>
<stop offset="0.75" stop-color="#7AAE40"/>
<stop offset="0.875" stop-color="#7AAE40"/>
<stop offset="1" stop-color="#79AD40"/>
</linearGradient>
<linearGradient id="paint1_linear_12_5431" x1="83.7542" y1="449.192" x2="-26.8703" y2="354.979" gradientUnits="userSpaceOnUse">
<stop stop-color="#7EB341"/>
<stop offset="0.125" stop-color="#7EB341"/>
<stop offset="0.25" stop-color="#7DB241"/>
<stop offset="0.375" stop-color="#7DB141"/>
<stop offset="0.5" stop-color="#7CB141"/>
<stop offset="0.625" stop-color="#7BB041"/>
<stop offset="0.75" stop-color="#7BAF40"/>
<stop offset="0.875" stop-color="#7AAE40"/>
<stop offset="1" stop-color="#7AAE40"/>
</linearGradient>
<linearGradient id="paint2_linear_12_5431" x1="98.0844" y1="288.274" x2="-3.50407" y2="209.012" gradientUnits="userSpaceOnUse">
<stop stop-color="#7EB341"/>
<stop offset="0.125" stop-color="#7EB341"/>
<stop offset="0.25" stop-color="#7DB241"/>
<stop offset="0.375" stop-color="#7DB141"/>
<stop offset="0.5" stop-color="#7CB141"/>
<stop offset="0.625" stop-color="#7BB041"/>
<stop offset="0.75" stop-color="#7BAF40"/>
<stop offset="0.875" stop-color="#7AAE40"/>
<stop offset="1" stop-color="#7AAE40"/>
</linearGradient>
<linearGradient id="paint3_linear_12_5431" x1="19.7425" y1="198.119" x2="143.713" y2="141.029" gradientUnits="userSpaceOnUse">
<stop stop-color="#77AB40"/>
<stop offset="0.125" stop-color="#77AA40"/>
<stop offset="0.25" stop-color="#76A940"/>
<stop offset="0.375" stop-color="#75A940"/>
<stop offset="0.5" stop-color="#75A840"/>
<stop offset="0.625" stop-color="#74A740"/>
<stop offset="0.75" stop-color="#73A640"/>
<stop offset="0.875" stop-color="#73A640"/>
<stop offset="1" stop-color="#72A540"/>
</linearGradient>
</defs>
</svg>
