<svg width="97" height="325" viewBox="0 0 97 325" fill="none" xmlns="http://www.w3.org/2000/svg">
<mask id="mask0_12_5337" style="mask-type:luminance" maskUnits="userSpaceOnUse" x="13" y="112" width="60" height="106">
<path d="M14.0408 113.931L72.8493 112.182L72.6194 215.54L13.8109 217.289L14.0408 113.931Z" fill="white"/>
</mask>
<g mask="url(#mask0_12_5337)">
<mask id="mask1_12_5337" style="mask-type:luminance" maskUnits="userSpaceOnUse" x="-4" y="97" width="119" height="144">
<path d="M114.006 219.829L20.9222 240.724L-3.87574 118.313L89.2082 97.4178L114.006 219.829Z" fill="white"/>
</mask>
<g mask="url(#mask1_12_5337)">
<mask id="mask2_12_5337" style="mask-type:luminance" maskUnits="userSpaceOnUse" x="-4" y="97" width="119" height="144">
<path d="M114.038 219.004L20.93 240.525L-3.90787 119.139L89.2004 97.6176L114.038 219.004Z" fill="white"/>
</mask>
<g mask="url(#mask2_12_5337)">
<mask id="mask3_12_5337" style="mask-type:luminance" maskUnits="userSpaceOnUse" x="-4" y="97" width="119" height="144">
<path d="M114.061 218.074L20.9355 240.3L-3.93043 120.068L89.195 97.8427L114.061 218.074Z" fill="white"/>
</mask>
<g mask="url(#mask3_12_5337)">
<mask id="mask4_12_5337" style="mask-type:luminance" maskUnits="userSpaceOnUse" x="15" y="114" width="57" height="102">
<path d="M17.2318 188.336C20.719 199.458 28.703 208.654 38.1135 215.751C34.2744 209.73 36.2413 201.349 40.6143 195.105C44.9728 188.868 51.3428 184.158 57.1667 179.101C62.9907 174.038 68.6144 168.141 70.5509 160.998C72.0394 155.516 71.1768 149.798 69.1773 144.694C67.8659 141.326 66.0795 138.188 64.1348 135.128C63.2085 139.604 61.628 143.987 59.4222 148.124C54.9025 156.597 48.5575 164.199 41.9325 171.403C29.266 185.173 29.138 189.549 30.372 197.106C27.6183 191.416 29.5476 184.281 33.1504 178.605C36.7532 172.93 41.8433 168.208 46.1286 162.959C57.4579 149.038 62.8746 131.04 60.761 114.272C60.4871 120.235 57.064 125.96 52.6358 130.461C48.2076 134.976 42.81 138.462 37.5632 142.047C32.3021 145.627 27.0551 149.41 23.1369 154.308C15.3222 164.02 13.7661 177.212 17.2318 188.336Z" fill="white"/>
</mask>
<g mask="url(#mask4_12_5337)">
<path d="M15.8592 226.989L-5.95237 122.671L69.9444 103.844L91.756 208.169L15.8592 226.989Z" fill="url(#paint0_linear_12_5337)" fill-opacity="0.4"/>
</g>
</g>
</g>
</g>
</g>
<mask id="mask5_12_5337" style="mask-type:luminance" maskUnits="userSpaceOnUse" x="39" y="148" width="78" height="108">
<path d="M48.8799 148.327L116.03 157.159L106.364 255.165L39.2134 246.332L48.8799 148.327Z" fill="white"/>
</mask>
<g mask="url(#mask5_12_5337)">
<mask id="mask6_12_5337" style="mask-type:luminance" maskUnits="userSpaceOnUse" x="-18" y="91" width="138" height="163">
<path d="M119.893 249.029L-0.07632 253.703L-17.9578 96.1558L102.012 91.4814L119.893 249.029Z" fill="white"/>
</mask>
<g mask="url(#mask6_12_5337)">
<mask id="mask7_12_5337" style="mask-type:luminance" maskUnits="userSpaceOnUse" x="-19" y="92" width="140" height="161">
<path d="M120.646 249.198L0.10589 252.629L-18.7105 95.9864L101.83 92.5553L120.646 249.198Z" fill="white"/>
</mask>
<g mask="url(#mask7_12_5337)">
<mask id="mask8_12_5337" style="mask-type:luminance" maskUnits="userSpaceOnUse" x="-20" y="93" width="142" height="159">
<path d="M121.07 249.304L0.208574 251.956L-19.1347 95.8802L101.727 93.2287L121.07 249.304Z" fill="white"/>
</mask>
<g mask="url(#mask8_12_5337)">
<path d="M73.8718 170.551C72.3933 174.404 69.9383 177.707 66.9455 180.596C67.8904 181.634 68.836 182.665 69.8294 183.685C75.992 189.968 83.1011 195.485 88.4532 202.366C93.796 209.246 97.2075 218.11 94.4309 225.569C94.5564 214.039 91.7902 209.327 76.2797 194.022C72.4428 190.213 68.5076 186.457 64.732 182.588C61.7117 185.136 58.2975 187.346 54.8435 189.359C51.8044 191.127 48.6783 192.811 45.6292 194.586C49.1953 198.491 53.4933 201.949 57.8443 205.114C65.9536 211.012 74.6959 216.414 81.0822 223.942C87.4777 231.472 91.0942 241.915 86.98 249.88C98.0729 240.06 107.061 227.705 110.047 213.299C113.023 198.892 109.304 182.307 98.063 170.689C92.4082 164.84 85.2086 160.51 78.0166 156.423C76.9959 155.839 75.9752 155.255 74.9531 154.688C75.9041 160.116 75.7606 165.613 73.8718 170.551Z" fill="#007931" fill-opacity="0.2"/>
</g>
</g>
</g>
</g>
<mask id="mask9_12_5337" style="mask-type:luminance" maskUnits="userSpaceOnUse" x="0" y="0" width="80" height="137">
<path d="M0 0H79.5622V136.392H0V0Z" fill="white"/>
</mask>
<g mask="url(#mask9_12_5337)">
<mask id="mask10_12_5337" style="mask-type:luminance" maskUnits="userSpaceOnUse" x="-13" y="-8" width="104" height="151">
<path d="M63.7208 142.146L-12.9999 127.175L13.3551 -7.9209L90.0847 7.05029L63.7208 142.146Z" fill="white"/>
</mask>
<g mask="url(#mask10_12_5337)">
<mask id="mask11_12_5337" style="mask-type:luminance" maskUnits="userSpaceOnUse" x="-14" y="-9" width="104" height="152">
<path d="M-13.5939 127.06L63.1268 142.022L89.4818 6.92643L12.7611 -8.03589L-13.5939 127.06Z" fill="white"/>
</mask>
<g mask="url(#mask11_12_5337)">
<mask id="mask12_12_5337" style="mask-type:luminance" maskUnits="userSpaceOnUse" x="0" y="2" width="80" height="133">
<path d="M75.5578 70.3358C72.0681 78.514 66.6959 85.6977 61.1372 92.6505C65.3906 86.0707 65.7546 77.1998 63.9432 69.3946C61.812 60.2396 57.1946 51.8927 54.1666 42.9952C51.1298 34.1066 49.8067 23.9216 54.1844 15.6013C48.1018 22.3943 47.7199 32.6858 50.0109 41.5034C52.293 50.3209 56.8305 58.4104 59.601 67.0947C62.3715 75.788 63.1706 85.8309 58.2868 93.5385C59.1659 84.641 55.0013 76.0544 50.3217 68.4444C45.6421 60.8168 40.2521 53.3667 38.2275 44.6557C35.3239 32.1708 40.5807 18.2741 50.7302 10.531C44.2746 14.4647 39.1599 20.5739 36.4427 27.6422C33.5302 35.2343 33.4147 43.8565 36.123 51.5286C38.2808 57.6556 42.108 63.0278 45.8818 68.3112C49.638 73.6124 53.4296 79.0113 55.5163 85.1649C57.6031 91.3097 57.7629 98.4312 54.4419 103.999C56.2622 95.6963 52.5061 87.154 47.6045 80.2278C42.694 73.2928 36.5226 67.219 32.4468 59.769C25.3342 46.7691 25.5473 30.0574 33.0151 17.2529C21.4449 23.522 13.8882 35.8914 11.7837 48.8736C9.69701 61.8557 12.6362 75.2907 18.3192 87.1451C11.0911 65.3987 13.7195 45.9255 24.5528 33.6892C24.5528 33.6892 20.7256 46.3784 27.4653 59.6624C31.5233 67.6364 39.6216 77.1643 39.4085 86.1151C39.1954 94.7817 33.7966 103.058 30.4844 111.058C27.1634 119.077 21.7201 127.255 26.0179 134.776C17.1205 122.318 8.20522 109.478 3.80088 94.8172C-2.2906 74.5537 1.11921 51.6529 12.8404 34.0356C24.5616 16.4271 44.3634 4.43947 65.4083 2.2373C61.9008 5.55832 61.0129 10.9661 62.0607 15.6546C63.1174 20.3697 65.8346 24.5165 68.6938 28.4058C71.5531 32.2951 74.6343 36.0868 76.6234 40.4733C80.8501 49.8148 79.5715 60.9056 75.5578 70.3358Z" fill="white"/>
</mask>
<g mask="url(#mask12_12_5337)">
<path d="M77.8042 150.406L105.766 7.10488L0.754972 -13.3806L-27.1984 129.92L77.8042 150.406Z" fill="#74A740" fill-opacity="0.3"/>
</g>
</g>
</g>
</g>
<mask id="mask13_12_5337" style="mask-type:luminance" maskUnits="userSpaceOnUse" x="80" y="197" width="87" height="126">
<path d="M166.1 215.798L134.713 322.527L80.131 304.499L111.518 197.769L166.1 215.798Z" fill="white"/>
</mask>
<g mask="url(#mask13_12_5337)">
<mask id="mask14_12_5337" style="mask-type:luminance" maskUnits="userSpaceOnUse" x="55" y="193" width="197" height="191">
<path d="M129.102 193.411L251.633 275.648L177.544 383.753L55.0126 301.517L129.102 193.411Z" fill="white"/>
</mask>
<g mask="url(#mask14_12_5337)">
<mask id="mask15_12_5337" style="mask-type:luminance" maskUnits="userSpaceOnUse" x="54" y="193" width="198" height="191">
<path d="M128.983 193.451L251.669 275.782L177.662 383.713L54.9765 301.382L128.983 193.451Z" fill="white"/>
</mask>
<g mask="url(#mask15_12_5337)">
<mask id="mask16_12_5337" style="mask-type:luminance" maskUnits="userSpaceOnUse" x="54" y="193" width="198" height="191">
<path d="M128.962 193.458L251.676 275.807L177.684 383.706L54.97 301.357L128.962 193.458Z" fill="white"/>
</mask>
<g mask="url(#mask16_12_5337)">
<mask id="mask17_12_5337" style="mask-type:luminance" maskUnits="userSpaceOnUse" x="98" y="208" width="53" height="109">
<path d="M139.199 208.034C134.374 212.545 133.553 219.97 135.181 226.616C136.801 233.259 140.491 239.416 143.807 245.604C147.115 251.789 150.169 258.336 150.312 265.052C150.424 270.891 148.327 276.376 145.701 281.447C142.533 287.569 138.334 293.448 132.657 297.437C133.411 293.255 133.631 288.914 133.437 284.607C133.081 276.123 131.294 267.654 129.501 259.238C127.406 249.39 125.327 239.556 123.233 229.708C122.219 244.494 126.104 259.519 127.844 274.476C129.577 289.422 128.831 305.383 119.798 316.854C123.412 310.315 121.218 301.756 117.255 294.778C113.281 287.806 107.669 281.664 103.866 274.611C96.7061 261.239 96.856 245.061 104.289 233.037C111.81 220.878 125.51 213.692 139.199 208.034Z" fill="white"/>
</mask>
<g mask="url(#mask17_12_5337)">
</g>
</g>
</g>
</g>
</g>
<defs>
<linearGradient id="paint0_linear_12_5337" x1="54.0286" y1="217.527" x2="28.3922" y2="114.151" gradientUnits="userSpaceOnUse">
<stop stop-color="#7EB341"/>
<stop offset="0.125" stop-color="#7EB341"/>
<stop offset="0.25" stop-color="#7DB241"/>
<stop offset="0.375" stop-color="#7DB141"/>
<stop offset="0.5" stop-color="#7CB141"/>
<stop offset="0.625" stop-color="#7BB041"/>
<stop offset="0.75" stop-color="#7BAF40"/>
<stop offset="0.875" stop-color="#7AAE40"/>
<stop offset="1" stop-color="#7AAE40"/>
</linearGradient>
</defs>
</svg>
