<svg width="514" height="849" viewBox="0 0 514 849" fill="none" xmlns="http://www.w3.org/2000/svg">
<mask id="mask0_3_11802" style="mask-type:luminance" maskUnits="userSpaceOnUse" x="-54" y="560" width="207" height="214">
<path d="M-53.6626 637.971L38.4426 560.37L152.582 696.218L60.4766 773.819L-53.6626 637.971Z" fill="white"/>
</mask>
<g mask="url(#mask0_3_11802)">
<mask id="mask1_3_11802" style="mask-type:luminance" maskUnits="userSpaceOnUse" x="-57" y="508" width="361" height="351">
<path d="M303.669 695.023L164.629 858.295L-56.1995 671.976L82.854 508.692L303.669 695.023Z" fill="white"/>
</mask>
<g mask="url(#mask1_3_11802)">
<mask id="mask2_3_11802" style="mask-type:luminance" maskUnits="userSpaceOnUse" x="-57" y="508" width="361" height="351">
<path d="M303.669 695.023L164.629 858.295L-56.1995 671.976L82.854 508.692L303.669 695.023Z" fill="white"/>
</mask>
<g mask="url(#mask2_3_11802)">
<mask id="mask3_3_11802" style="mask-type:luminance" maskUnits="userSpaceOnUse" x="-57" y="508" width="361" height="351">
<path d="M303.669 695.023L164.629 858.295L-56.1995 671.976L82.854 508.692L303.669 695.023Z" fill="white"/>
</mask>
<g mask="url(#mask3_3_11802)">
<mask id="mask4_3_11802" style="mask-type:luminance" maskUnits="userSpaceOnUse" x="22" y="563" width="40" height="206">
<path d="M32.5124 703.506C32.7008 688.427 37.2778 673.648 42.1724 659.274C47.0671 644.901 52.4101 630.499 54.1979 615.466C54.2099 615.34 54.2449 615.241 54.243 615.126C56.3238 597.151 50.1757 579.368 37.7275 566.522C36.8808 565.655 36.0203 564.8 35.1483 563.931C43.9637 576.026 46.0536 592.045 44.2658 607.077C42.4779 622.11 37.1488 636.501 32.2265 650.897C27.3203 665.257 22.7458 680.011 22.555 695.116C22.1926 724.054 38.5672 751.279 61.6984 768.372C43.9907 751.404 32.1938 728.108 32.5124 703.506Z" fill="white"/>
</mask>
<g mask="url(#mask4_3_11802)">
<path d="M71.5585 785.232L-74.0201 662.393L21.3812 550.359L166.96 673.199L71.5585 785.232Z" fill="url(#paint0_linear_3_11802)" fill-opacity="0.3"/>
</g>
</g>
</g>
</g>
</g>
<mask id="mask5_3_11802" style="mask-type:luminance" maskUnits="userSpaceOnUse" x="-29" y="560" width="256" height="269">
<path d="M-28.3892 646.805L74.4273 560.189L226.739 741.448L123.922 828.064L-28.3892 646.805Z" fill="white"/>
</mask>
<g mask="url(#mask5_3_11802)">
<mask id="mask6_3_11802" style="mask-type:luminance" maskUnits="userSpaceOnUse" x="-57" y="508" width="361" height="351">
<path d="M303.669 695.022L164.63 858.295L-56.1992 671.976L82.8543 508.691L303.669 695.022Z" fill="white"/>
</mask>
<g mask="url(#mask6_3_11802)">
<mask id="mask7_3_11802" style="mask-type:luminance" maskUnits="userSpaceOnUse" x="-57" y="508" width="361" height="351">
<path d="M303.669 695.022L164.63 858.295L-56.1992 671.976L82.8543 508.691L303.669 695.022Z" fill="white"/>
</mask>
<g mask="url(#mask7_3_11802)">
<mask id="mask8_3_11802" style="mask-type:luminance" maskUnits="userSpaceOnUse" x="-57" y="508" width="361" height="351">
<path d="M303.669 695.022L164.63 858.295L-56.1992 671.976L82.8543 508.691L303.669 695.022Z" fill="white"/>
</mask>
<g mask="url(#mask8_3_11802)">
<mask id="mask9_3_11802" style="mask-type:luminance" maskUnits="userSpaceOnUse" x="43" y="577" width="119" height="215">
<path d="M82.4016 768.526C105.045 784.268 133.304 790.675 161.137 791.393C145.222 785.403 136.688 767.59 135.711 750.551C134.735 733.511 139.727 716.677 143.184 699.902C146.655 683.116 148.513 665.085 141.735 649.56C136.525 637.645 126.596 628.334 115.449 621.629C108.112 617.204 100.207 613.793 92.1272 610.738C96.9317 620.087 100.383 630.134 102.299 640.522C106.22 661.826 105.505 683.918 103.666 705.632C100.145 747.16 106.3 755.301 119.576 767.469C106.197 760.668 99.3805 745.152 97.8158 730.143C96.2511 715.134 98.8576 699.937 99.1635 684.818C99.9736 644.736 83.8387 604.928 55.5165 577.108C63.6715 588.333 65.6439 603.208 63.9721 617.152C62.2978 631.122 57.3437 644.482 52.7876 657.809C48.243 671.15 43.982 684.857 43.8327 698.868C43.4382 726.691 59.7466 752.771 82.4016 768.526Z" fill="white"/>
</mask>
<g mask="url(#mask9_3_11802)">
<path d="M137.419 839.268L-53.812 677.915L56.5384 548.331L247.77 709.683L137.419 839.268Z" fill="url(#paint1_linear_3_11802)" fill-opacity="0.2"/>
</g>
</g>
</g>
</g>
</g>
<mask id="mask10_3_11802" style="mask-type:luminance" maskUnits="userSpaceOnUse" x="18" y="307" width="224" height="239">
<path d="M18.8882 386.479L108.535 307.202L241.842 466.661L152.195 545.938L18.8882 386.479Z" fill="white"/>
</mask>
<g mask="url(#mask10_3_11802)">
<mask id="mask11_3_11802" style="mask-type:luminance" maskUnits="userSpaceOnUse" x="-5" y="262" width="318" height="312">
<path d="M312.565 420.654L193.655 573.058L-4.38254 415.386L114.527 262.982L312.565 420.654Z" fill="white"/>
</mask>
<g mask="url(#mask11_3_11802)">
<mask id="mask12_3_11802" style="mask-type:luminance" maskUnits="userSpaceOnUse" x="-5" y="262" width="318" height="312">
<path d="M312.565 420.654L193.655 573.058L-4.38254 415.386L114.527 262.982L312.565 420.654Z" fill="white"/>
</mask>
<g mask="url(#mask12_3_11802)">
<mask id="mask13_3_11802" style="mask-type:luminance" maskUnits="userSpaceOnUse" x="-5" y="262" width="318" height="312">
<path d="M312.565 420.654L193.655 573.058L-4.38254 415.386L114.527 262.982L312.565 420.654Z" fill="white"/>
</mask>
<g mask="url(#mask13_3_11802)">
<mask id="mask14_3_11802" style="mask-type:luminance" maskUnits="userSpaceOnUse" x="84" y="325" width="106" height="189">
<path d="M119.473 496.084C139.736 509.233 164.693 513.765 189.178 513.223C175.07 508.531 167.191 492.912 165.996 477.66C164.787 462.439 168.826 447.117 171.529 431.929C174.224 416.731 175.498 400.472 169.201 386.836C164.371 376.368 155.449 368.452 145.509 362.914C138.962 359.251 131.953 356.537 124.794 354.144C129.203 362.332 132.436 371.187 134.34 380.432C138.235 399.368 138.048 419.205 136.886 438.764C134.659 476.154 140.22 483.193 152.161 493.537C140.236 488.017 133.936 474.402 132.252 461.002C130.568 447.602 132.532 433.853 132.507 420.274C132.384 384.309 117.381 349.285 91.8882 325.554C99.3044 335.268 101.343 348.522 100.152 361.102C98.9793 373.703 94.8921 385.892 91.1785 398.05C87.434 410.216 83.9808 422.685 84.1327 435.254C84.3618 460.234 99.2423 482.907 119.473 496.084Z" fill="white"/>
</mask>
<g mask="url(#mask14_3_11802)">
<path d="M168.927 559.378L-4.65125 421.185L92.2494 296.972L265.837 435.176L168.927 559.378Z" fill="url(#paint2_linear_3_11802)" fill-opacity="0.2"/>
</g>
</g>
</g>
</g>
</g>
<mask id="mask15_3_11802" style="mask-type:luminance" maskUnits="userSpaceOnUse" x="120" y="318" width="223" height="242">
<path d="M120.165 394.112L233.384 318.381L342.428 484.131L229.209 559.862L120.165 394.112Z" fill="white"/>
</mask>
<g mask="url(#mask15_3_11802)">
<mask id="mask16_3_11802" style="mask-type:luminance" maskUnits="userSpaceOnUse" x="-47" y="230" width="399" height="397">
<path d="M351.406 457.453L178.633 626.615L-46.7186 400.087L126.055 230.925L351.406 457.453Z" fill="white"/>
</mask>
<g mask="url(#mask16_3_11802)">
<mask id="mask17_3_11802" style="mask-type:luminance" maskUnits="userSpaceOnUse" x="-47" y="230" width="399" height="397">
<path d="M351.406 457.452L178.632 626.615L-46.7186 400.088L126.055 230.925L351.406 457.452Z" fill="white"/>
</mask>
<g mask="url(#mask17_3_11802)">
<mask id="mask18_3_11802" style="mask-type:luminance" maskUnits="userSpaceOnUse" x="-47" y="230" width="399" height="397">
<path d="M351.406 457.452L178.632 626.615L-46.7186 400.088L126.055 230.925L351.406 457.452Z" fill="white"/>
</mask>
<g mask="url(#mask18_3_11802)">
<path d="M186.698 393.948C189.401 402.164 189.995 410.814 189.292 419.528C191.967 419.921 194.632 420.299 197.354 420.598C214.183 422.372 231.42 421.628 247.827 425.466C264.218 429.313 280.307 438.978 285.662 454.764C271.347 436.009 261.415 432.163 219.697 428.516C209.348 427.577 198.924 426.858 188.59 425.74C187.417 433.941 185.248 442.13 182.775 450.056C180.593 457.025 178.182 463.978 175.995 470.971C186.072 472.431 196.648 472.18 206.931 471.383C226.097 469.9 245.557 466.758 264.275 470.235C283.009 473.703 301.379 485.635 305.433 504.05C309.158 473.185 306.648 441.087 292.861 413.82C279.06 386.562 252.819 364.871 221.923 361.381C206.376 359.617 190.5 362.397 174.94 365.557C172.727 365.999 170.514 366.442 168.32 366.913C176.523 374.373 183.227 383.429 186.698 393.948Z" fill="#007931" fill-opacity="0.2"/>
</g>
</g>
</g>
</g>
<mask id="mask19_3_11802" style="mask-type:luminance" maskUnits="userSpaceOnUse" x="-60" y="50" width="157" height="154">
<path d="M-59.7371 130.725L35.6182 50.3665L96.8893 123.309L1.53411 203.668L-59.7371 130.725Z" fill="white"/>
</mask>
<g mask="url(#mask19_3_11802)">
<mask id="mask20_3_11802" style="mask-type:luminance" maskUnits="userSpaceOnUse" x="-47" y="81" width="143" height="88">
<path d="M94.1806 81.7543L95.2931 163.846L-45.2117 168.281L-46.3243 86.1889L94.1806 81.7543Z" fill="white"/>
</mask>
<g mask="url(#mask20_3_11802)">
<mask id="mask21_3_11802" style="mask-type:luminance" maskUnits="userSpaceOnUse" x="-47" y="81" width="143" height="88">
<path d="M94.1806 81.7543L95.2931 163.846L-45.2117 168.281L-46.3243 86.1889L94.1806 81.7543Z" fill="white"/>
</mask>
<g mask="url(#mask21_3_11802)">
<mask id="mask22_3_11802" style="mask-type:luminance" maskUnits="userSpaceOnUse" x="-47" y="86" width="142" height="79">
<path d="M20.4722 162.718C29.3722 160.524 37.6304 156.275 45.6834 151.783C38.2451 155.016 29.2149 153.913 21.6456 150.792C12.7958 147.128 5.18862 141.073 -3.24978 136.552C-11.6744 132.02 -21.7411 129.011 -30.9518 132.069C-22.9719 127.013 -12.4902 128.328 -3.99364 132.105C4.5053 135.856 11.845 141.789 20.1196 146.031C28.408 150.26 38.413 152.719 47.0994 149.037C37.9432 148.458 30.0158 142.835 23.1758 136.851C16.3243 130.854 9.77815 124.183 1.34458 120.678C-10.7549 115.698 -25.7611 118.728 -35.4484 127.726C-30.2828 121.843 -23.1612 117.672 -15.5237 116.079C-7.31759 114.377 1.414 115.684 8.68401 119.683C14.4821 122.884 19.2061 127.638 23.8731 132.325C28.5288 136.998 33.2917 141.742 39.1361 144.857C44.9666 147.984 52.1357 149.311 58.3817 146.874C49.6448 147.355 41.7042 142.137 35.5863 136.032C29.4822 129.915 24.4618 122.676 17.6764 117.319C5.85208 107.982 -11.0983 105.444 -25.4093 110.901C-16.9451 100.223 -3.06162 94.5934 10.4495 94.6073C23.9607 94.6211 36.9916 99.8129 47.9569 107.51C27.2853 96.6158 7.11242 96.0756 -7.24112 105.044C-7.24112 105.044 6.28917 103.257 18.4883 112.255C25.8003 117.678 33.9552 127.443 43.0467 128.702C51.8382 129.913 61.2 125.8 69.9069 123.769C78.6275 121.726 87.8681 117.553 94.6938 123.155C83.7199 112.082 72.3844 100.943 58.3572 94.0881C38.9877 84.5757 15.2036 84.252 -4.74644 93.2328C-24.6965 102.213 -40.4358 120.274 -46.5043 141.237C-42.5123 138.22 -36.8906 138.21 -32.3328 140.045C-27.7636 141.895 -24.0671 145.314 -20.6621 148.863C-17.2432 152.4 -13.9833 156.141 -9.91735 158.878C-1.23481 164.699 10.2101 165.226 20.4722 162.718Z" fill="white"/>
</mask>
<g mask="url(#mask22_3_11802)">
<path d="M95.7921 197.469L-55.7707 202.262L-57.7767 54.8117L93.7861 50.0188L95.7921 197.469Z" fill="#007931" fill-opacity="0.2"/>
</g>
</g>
</g>
</g>
<mask id="mask23_3_11802" style="mask-type:luminance" maskUnits="userSpaceOnUse" x="62" y="169" width="261" height="258">
<path d="M62.5557 297.784L214.488 169.749L322.491 298.324L170.559 426.359L62.5557 297.784Z" fill="white"/>
</mask>
<g mask="url(#mask23_3_11802)">
<mask id="mask24_3_11802" style="mask-type:luminance" maskUnits="userSpaceOnUse" x="51" y="154" width="296" height="249">
<path d="M115.888 402.613L51.965 263.803L282.509 154.712L346.431 293.521L115.888 402.613Z" fill="white"/>
</mask>
<g mask="url(#mask24_3_11802)">
<mask id="mask25_3_11802" style="mask-type:luminance" maskUnits="userSpaceOnUse" x="51" y="154" width="296" height="249">
<path d="M115.888 402.613L51.965 263.803L282.509 154.712L346.431 293.521L115.888 402.613Z" fill="white"/>
</mask>
<g mask="url(#mask25_3_11802)">
<mask id="mask26_3_11802" style="mask-type:luminance" maskUnits="userSpaceOnUse" x="51" y="154" width="296" height="249">
<path d="M115.888 402.613L51.965 263.803L282.509 154.712L346.431 293.521L115.888 402.613Z" fill="white"/>
</mask>
<g mask="url(#mask26_3_11802)">
<mask id="mask27_3_11802" style="mask-type:luminance" maskUnits="userSpaceOnUse" x="72" y="230" width="250" height="119">
<path d="M129.338 244.611C104.46 259.386 85.9168 283.219 72.8777 308.975C85.5872 296.549 106.12 295.821 122.566 301.875C139.002 307.915 152.615 319.464 166.86 329.575C181.08 339.685 197.197 348.798 214.818 348.785C228.327 348.76 241.479 343.287 252.722 335.598C260.161 330.534 266.877 324.527 273.314 318.244C262.397 318.913 251.41 318.041 240.818 315.561C219.034 310.505 198.603 300.831 178.997 290.23C141.547 269.977 131.15 272.387 113.809 279.86C126.138 270.096 143.759 270.084 158.561 274.741C173.375 279.412 186.489 288.066 200.574 294.534C237.876 311.666 282.462 312.831 321.165 297.648C306.985 300.719 292.156 296.478 279.773 289.201C267.391 281.925 257.026 271.859 246.526 262.137C236.002 252.414 225.032 242.835 211.919 236.962C185.957 225.249 154.203 229.846 129.338 244.611Z" fill="white"/>
</mask>
<g mask="url(#mask27_3_11802)">
<path d="M40.4105 249.687L252.864 149.165L342.335 343.465L129.882 443.988L40.4105 249.687Z" fill="url(#paint3_linear_3_11802)" fill-opacity="0.2"/>
</g>
</g>
</g>
</g>
</g>
<mask id="mask28_3_11802" style="mask-type:luminance" maskUnits="userSpaceOnUse" x="21" y="115" width="154" height="153">
<path d="M21.5203 188.104L108.117 115.129L174.548 194.211L87.9512 267.186L21.5203 188.104Z" fill="white"/>
</mask>
<g mask="url(#mask28_3_11802)">
<mask id="mask29_3_11802" style="mask-type:luminance" maskUnits="userSpaceOnUse" x="18" y="130" width="155" height="110">
<path d="M30.2089 239.074L18.8946 163.911L161.635 130.71L172.94 205.86L30.2089 239.074Z" fill="white"/>
</mask>
<g mask="url(#mask29_3_11802)">
<mask id="mask30_3_11802" style="mask-type:luminance" maskUnits="userSpaceOnUse" x="18" y="130" width="155" height="110">
<path d="M30.2089 239.074L18.8946 163.911L161.635 130.71L172.94 205.86L30.2089 239.074Z" fill="white"/>
</mask>
<g mask="url(#mask30_3_11802)">
<mask id="mask31_3_11802" style="mask-type:luminance" maskUnits="userSpaceOnUse" x="18" y="130" width="155" height="110">
<path d="M30.2089 239.074L18.8946 163.911L161.635 130.71L172.94 205.86L30.2089 239.074Z" fill="white"/>
</mask>
<g mask="url(#mask31_3_11802)">
<mask id="mask32_3_11802" style="mask-type:luminance" maskUnits="userSpaceOnUse" x="22" y="149" width="149" height="69">
<path d="M67.5136 156.147C50.7759 163.597 36.5107 175.842 22.5387 187.88C31.1901 184.769 40.5723 185.993 48.5853 189.264C56.5884 192.523 63.4505 197.676 70.3857 202.626C77.311 207.564 84.5043 212.398 92.8533 214.879C104.756 218.442 118.548 218.568 130.99 215.367C144.188 211.956 156.154 204.935 166.76 195.794C167.635 195.037 170.42 192.163 170.897 191.964C157.08 197.257 141.866 198.004 128.466 194.059C119.112 191.309 110.77 186.429 101.901 182.642C93.0187 178.866 83.1277 176.164 73.1375 178.13C86.3308 178.76 95.3541 189.661 106.665 195.509C117.488 201.119 132.5 205.025 144.906 200.962C131.426 209.38 113.04 210.609 99.083 205.632C90.0463 202.412 82.4604 194.439 74.4798 189.356C66.5221 184.273 57.5641 179.851 47.6462 180.052C57.5065 174.36 67.4808 168.593 78.2336 165.233C88.9764 161.861 100.732 161.044 110.449 165.232C119.15 168.978 125.393 176.277 132.505 182.337C139.596 188.372 148.801 193.459 158.611 191.462C141.46 184.772 134.293 164.841 118.676 155.48C104.175 146.76 84.2612 148.71 67.5136 156.147Z" fill="white"/>
</mask>
<g mask="url(#mask32_3_11802)">
<path d="M14.7587 137.574L157.933 104.257L178.707 242.308L35.5236 275.613L14.7587 137.574Z" fill="#7AAE40" fill-opacity="0.3"/>
</g>
</g>
</g>
</g>
</g>
<mask id="mask33_3_11802" style="mask-type:luminance" maskUnits="userSpaceOnUse" x="45" y="505" width="122" height="118">
<path d="M68.207 505.348L166.898 535.642L143.999 622.036L45.3081 591.743L68.207 505.348Z" fill="white"/>
</mask>
<g mask="url(#mask33_3_11802)">
<mask id="mask34_3_11802" style="mask-type:luminance" maskUnits="userSpaceOnUse" x="35" y="492" width="149" height="134">
<path d="M35.5201 535.121L84.1567 492.345L183.84 582.915L135.207 625.678L35.5201 535.121Z" fill="white"/>
</mask>
<g mask="url(#mask34_3_11802)">
<mask id="mask35_3_11802" style="mask-type:luminance" maskUnits="userSpaceOnUse" x="35" y="492" width="149" height="134">
<path d="M35.4496 535.029L84.05 492.388L183.91 583.007L135.313 625.634L35.4496 535.029Z" fill="white"/>
</mask>
<g mask="url(#mask35_3_11802)">
<mask id="mask36_3_11802" style="mask-type:luminance" maskUnits="userSpaceOnUse" x="35" y="492" width="149" height="134">
<path d="M35.435 535.01L84.0279 492.398L183.925 583.026L135.335 625.626L35.435 535.01Z" fill="white"/>
</mask>
<g mask="url(#mask36_3_11802)">
<mask id="mask37_3_11802" style="mask-type:luminance" maskUnits="userSpaceOnUse" x="68" y="505" width="77" height="114">
<path d="M115.402 524.964C101.054 515.915 84.5305 510.894 68.3135 505.998C75.1907 511.013 79.2991 518.551 81.1867 526.005C83.0777 533.447 82.98 540.905 83.0698 548.324C83.1629 555.73 83.4747 563.288 86.1172 570.632C89.8644 581.113 97.1232 591.43 106.086 599.224C115.605 607.483 127.097 613.179 139.41 616.895C140.428 617.199 144.006 617.958 144.405 618.222C133.185 610.361 124.533 599.386 120.265 587.616C117.284 579.403 116.393 570.968 114.425 562.642C112.443 554.31 109.14 545.719 102.383 539.185C108.956 549.287 105.823 560.977 107.591 572.061C109.271 582.674 114.426 595.624 123.998 602.997C110.681 596.814 99.9862 583.699 96.1743 571.043C93.704 562.851 95.4697 553.567 94.9201 545.31C94.3821 537.069 92.8298 528.386 87.3974 521.1C96.7994 525.836 106.317 530.622 114.496 537.087C122.678 543.538 129.538 551.91 131.666 561.051C133.574 569.234 131.583 577.211 130.958 585.268C130.34 593.299 131.54 602.469 138.223 608.854C133.957 593.042 144.659 578.609 143.155 562.717C141.78 547.949 129.747 534.025 115.402 524.964Z" fill="white"/>
</mask>
<g mask="url(#mask37_3_11802)">
<path d="M100.815 477.192L201.44 568.532L111.894 647.061L11.2724 555.708L100.815 477.192Z" fill="#7AAE40" fill-opacity="0.3"/>
</g>
</g>
</g>
</g>
</g>
<defs>
<linearGradient id="paint0_linear_3_11802" x1="120.834" y1="727.371" x2="-24.1901" y2="603.867" gradientUnits="userSpaceOnUse">
<stop stop-color="#7DB141"/>
<stop offset="0.125" stop-color="#7CB141"/>
<stop offset="0.25" stop-color="#7CB041"/>
<stop offset="0.375" stop-color="#7BB041"/>
<stop offset="0.5" stop-color="#7BAF40"/>
<stop offset="0.625" stop-color="#7AAF40"/>
<stop offset="0.75" stop-color="#7AAE40"/>
<stop offset="0.875" stop-color="#7AAE40"/>
<stop offset="1" stop-color="#79AD40"/>
</linearGradient>
<linearGradient id="paint1_linear_3_11802" x1="192.992" y1="774.012" x2="2.50324" y2="611.783" gradientUnits="userSpaceOnUse">
<stop stop-color="#7EB341"/>
<stop offset="0.125" stop-color="#7EB341"/>
<stop offset="0.25" stop-color="#7DB241"/>
<stop offset="0.375" stop-color="#7DB141"/>
<stop offset="0.5" stop-color="#7CB141"/>
<stop offset="0.625" stop-color="#7BB041"/>
<stop offset="0.75" stop-color="#7BAF40"/>
<stop offset="0.875" stop-color="#7AAE40"/>
<stop offset="1" stop-color="#7AAE40"/>
</linearGradient>
<linearGradient id="paint2_linear_3_11802" x1="217.668" y1="496.92" x2="42.739" y2="360.436" gradientUnits="userSpaceOnUse">
<stop stop-color="#7EB341"/>
<stop offset="0.125" stop-color="#7EB341"/>
<stop offset="0.25" stop-color="#7DB241"/>
<stop offset="0.375" stop-color="#7DB141"/>
<stop offset="0.5" stop-color="#7CB141"/>
<stop offset="0.625" stop-color="#7BB041"/>
<stop offset="0.75" stop-color="#7BAF40"/>
<stop offset="0.875" stop-color="#7AAE40"/>
<stop offset="1" stop-color="#7AAE40"/>
</linearGradient>
<linearGradient id="paint3_linear_3_11802" x1="82.7679" y1="341.678" x2="296.238" y2="243.373" gradientUnits="userSpaceOnUse">
<stop stop-color="#77AB40"/>
<stop offset="0.125" stop-color="#77AA40"/>
<stop offset="0.25" stop-color="#76A940"/>
<stop offset="0.375" stop-color="#75A940"/>
<stop offset="0.5" stop-color="#75A840"/>
<stop offset="0.625" stop-color="#74A740"/>
<stop offset="0.75" stop-color="#73A640"/>
<stop offset="0.875" stop-color="#73A640"/>
<stop offset="1" stop-color="#72A540"/>
</linearGradient>
</defs>
</svg>
