<svg width="122" height="312" viewBox="0 0 122 312" fill="none" xmlns="http://www.w3.org/2000/svg">
<mask id="mask0_12_5754" style="mask-type:luminance" maskUnits="userSpaceOnUse" x="97" y="142" width="68" height="125">
<path d="M97.6675 143.714L164.719 142.228L164.355 265.212L97.3033 266.698L97.6675 143.714Z" fill="white"/>
</mask>
<g mask="url(#mask0_12_5754)">
<mask id="mask1_12_5754" style="mask-type:luminance" maskUnits="userSpaceOnUse" x="77" y="124" width="135" height="171">
<path d="M211.489 271.851L105.369 294.97L77.3337 147.345L183.454 124.225L211.489 271.851Z" fill="white"/>
</mask>
<g mask="url(#mask1_12_5754)">
<mask id="mask2_12_5754" style="mask-type:luminance" maskUnits="userSpaceOnUse" x="77" y="124" width="135" height="172">
<path d="M211.434 272.106L105.355 295.032L77.3892 147.09L183.467 124.164L211.434 272.106Z" fill="white"/>
</mask>
<g mask="url(#mask2_12_5754)">
<mask id="mask3_12_5754" style="mask-type:luminance" maskUnits="userSpaceOnUse" x="77" y="124" width="135" height="172">
<path d="M211.375 272.33L105.341 295.086L77.4479 146.865L183.482 124.109L211.375 272.33Z" fill="white"/>
</mask>
<g mask="url(#mask3_12_5754)">
<mask id="mask4_12_5754" style="mask-type:luminance" maskUnits="userSpaceOnUse" x="99" y="144" width="64" height="123">
<path d="M101.312 231.528C105.223 245.307 114.244 257.026 124.892 266.278C120.561 258.694 122.826 248.606 127.812 241.275C132.781 233.953 140.027 228.62 146.654 222.83C153.282 217.032 159.685 210.206 161.911 201.624C163.621 195.038 162.666 188.014 160.418 181.665C158.943 177.477 156.929 173.537 154.735 169.683C153.666 175.08 151.856 180.32 149.337 185.221C144.175 195.258 136.947 204.117 129.402 212.473C114.977 228.444 114.814 233.77 116.184 243.058C113.083 235.948 115.3 227.375 119.41 220.688C123.52 214.002 129.314 208.573 134.196 202.45C147.105 186.209 153.322 164.62 150.991 144.049C150.656 151.299 146.75 158.057 141.708 163.259C136.667 168.478 130.529 172.381 124.562 176.415C118.579 180.441 112.612 184.716 108.147 190.434C99.2424 201.77 97.4243 217.749 101.312 231.528Z" fill="white"/>
</mask>
<g mask="url(#mask4_12_5754)">
<path d="M99.5341 279.505L75.1615 149.448L161.51 131.033L185.883 261.098L99.5341 279.505Z" fill="url(#paint0_linear_12_5754)" fill-opacity="0.3"/>
</g>
</g>
</g>
</g>
<mask id="mask5_12_5754" style="mask-type:luminance" maskUnits="userSpaceOnUse" x="77" y="124" width="135" height="171">
<path d="M211.489 271.851L105.369 294.97L77.3337 147.345L183.454 124.225L211.489 271.851Z" fill="white"/>
</mask>
<g mask="url(#mask5_12_5754)">
<mask id="mask6_12_5754" style="mask-type:luminance" maskUnits="userSpaceOnUse" x="77" y="124" width="135" height="172">
<path d="M211.434 272.106L105.355 295.032L77.3892 147.09L183.467 124.164L211.434 272.106Z" fill="white"/>
</mask>
<g mask="url(#mask6_12_5754)">
<mask id="mask7_12_5754" style="mask-type:luminance" maskUnits="userSpaceOnUse" x="77" y="124" width="135" height="172">
<path d="M211.375 272.33L105.341 295.086L77.4479 146.865L183.482 124.109L211.375 272.33Z" fill="white"/>
</mask>
<g mask="url(#mask7_12_5754)">
<mask id="mask8_12_5754" style="mask-type:luminance" maskUnits="userSpaceOnUse" x="99" y="144" width="64" height="123">
<path d="M101.312 231.528C105.223 245.307 114.244 257.026 124.892 266.278C120.561 258.694 122.826 248.606 127.812 241.275C132.781 233.953 140.027 228.62 146.654 222.83C153.282 217.032 159.685 210.206 161.911 201.624C163.621 195.038 162.666 188.014 160.418 181.665C158.943 177.477 156.929 173.537 154.735 169.683C153.666 175.08 151.856 180.32 149.337 185.221C144.175 195.258 136.947 204.117 129.402 212.473C114.977 228.444 114.814 233.77 116.184 243.058C113.083 235.948 115.3 227.375 119.41 220.688C123.52 214.002 129.314 208.573 134.196 202.45C147.105 186.209 153.322 164.62 150.991 144.049C150.656 151.299 146.75 158.057 141.708 163.259C136.667 168.478 130.529 172.381 124.562 176.415C118.579 180.441 112.612 184.716 108.147 190.434C99.2424 201.77 97.4243 217.749 101.312 231.528Z" fill="white"/>
</mask>
<g mask="url(#mask8_12_5754)">
<path d="M99.5341 279.505L75.1615 149.448L161.51 131.033L185.883 261.098L99.5341 279.505Z" fill="url(#paint1_linear_12_5754)" fill-opacity="0.3"/>
</g>
</g>
</g>
</g>
</g>
<mask id="mask9_12_5754" style="mask-type:luminance" maskUnits="userSpaceOnUse" x="66" y="0" width="119" height="178">
<path d="M154.296 177.713L66.6885 159.983L96.7831 0L184.4 17.7292L154.296 177.713Z" fill="white"/>
</mask>
<g mask="url(#mask9_12_5754)">
<mask id="mask10_12_5754" style="mask-type:luminance" maskUnits="userSpaceOnUse" x="66" y="-1" width="118" height="179">
<path d="M66.0101 159.847L153.617 177.566L183.712 17.5827L96.1047 -0.135956L66.0101 159.847Z" fill="white"/>
</mask>
<g mask="url(#mask10_12_5754)">
<mask id="mask11_12_5754" style="mask-type:luminance" maskUnits="userSpaceOnUse" x="82" y="12" width="91" height="157">
<path d="M167.812 92.6734C163.827 102.358 157.693 110.865 151.345 119.099C156.202 111.307 156.618 100.802 154.549 91.5588C152.116 80.7172 146.843 70.8326 143.385 60.2961C139.918 49.77 138.407 37.7087 143.406 27.8556C136.46 35.9 136.024 48.0875 138.64 58.5295C141.246 68.9714 146.427 78.551 149.591 88.8352C152.755 99.1299 153.667 111.023 148.09 120.15C149.094 109.614 144.339 99.4454 138.995 90.4336C133.651 81.4007 127.497 72.5782 125.185 62.2625C121.869 47.4776 127.872 31.0208 139.461 21.8513C132.09 26.5096 126.249 33.7443 123.147 42.1147C119.821 51.1055 119.689 61.3161 122.782 70.4015C125.245 77.6572 129.616 84.0191 133.925 90.2759C138.214 96.5536 142.544 102.947 144.927 110.234C147.31 117.511 147.492 125.945 143.7 132.538C145.778 122.706 141.489 112.59 135.892 104.388C130.285 96.1751 123.238 88.9824 118.584 80.1599C110.462 64.7652 110.705 44.9749 119.233 29.8115C106.021 37.2355 97.3917 51.8836 94.9886 67.2574C92.6058 82.6311 95.962 98.5411 102.451 112.579C94.1977 86.8268 97.1991 63.7662 109.57 49.2758C109.57 49.2758 105.199 64.3025 112.895 80.0337C117.529 89.4767 126.777 100.76 126.533 111.36C126.29 121.623 120.125 131.423 116.343 140.898C112.551 150.393 106.335 160.078 111.243 168.985C101.083 154.231 90.9023 139.026 85.873 121.665C78.9172 97.6683 82.8108 70.5487 96.1952 49.6859C109.58 28.8336 132.191 14.6376 156.222 12.0298C152.217 15.9626 151.203 22.3665 152.4 27.9187C153.606 33.5025 156.709 38.4132 159.974 43.019C163.239 47.6248 166.757 52.115 169.029 57.3097C173.855 68.372 172.395 81.5059 167.812 92.6734Z" fill="white"/>
</mask>
<g mask="url(#mask11_12_5754)">
<path d="M170.377 187.494L202.307 17.7943L82.395 -6.46509L50.4752 163.235L170.377 187.494Z" fill="#74A740" fill-opacity="0.3"/>
</g>
</g>
</g>
<mask id="mask12_12_5754" style="mask-type:luminance" maskUnits="userSpaceOnUse" x="1" y="128" width="112" height="116">
<path d="M84.8538 128.5L112.889 216.584L29.7485 243.005L1.71373 154.92L84.8538 128.5Z" fill="white"/>
</mask>
<g mask="url(#mask12_12_5754)">
<mask id="mask13_12_5754" style="mask-type:luminance" maskUnits="userSpaceOnUse" x="-26" y="131" width="121" height="114">
<path d="M-24.5341 135.236L94.8985 131.024L94.3524 239.944L-25.0802 244.156L-24.5341 135.236Z" fill="white"/>
</mask>
<g mask="url(#mask13_12_5754)">
<mask id="mask14_12_5754" style="mask-type:luminance" maskUnits="userSpaceOnUse" x="-26" y="131" width="121" height="114">
<path d="M-24.5506 135.178L94.8428 131.042L94.3689 240.002L-25.0245 244.138L-24.5506 135.178Z" fill="white"/>
</mask>
<g mask="url(#mask14_12_5754)">
<mask id="mask15_12_5754" style="mask-type:luminance" maskUnits="userSpaceOnUse" x="-26" y="131" width="121" height="114">
<path d="M-24.5536 135.168L94.8329 131.045L94.3718 240.013L-25.0146 244.135L-24.5536 135.168Z" fill="white"/>
</mask>
<g mask="url(#mask15_12_5754)">
<path d="M79.0772 131.213C80.5224 138.061 76.7969 145.296 71.4456 150.448C66.0964 155.607 59.2662 159.135 52.7423 162.903C46.2135 166.679 39.6908 170.944 35.584 176.99C32.0028 182.257 30.5267 188.462 29.7532 194.562C28.7956 201.962 28.885 209.691 31.3748 216.538C33.2164 212.288 35.6203 208.211 38.3472 204.376C43.7063 196.83 50.2888 190.112 56.8489 183.424C64.5057 175.614 72.1596 167.82 79.8236 160.009C71.8709 174.074 59.5793 185.619 49.1877 198.275C38.7932 210.946 29.9088 225.956 30.813 241.528C31.6149 233.519 38.5953 226.932 46.1621 222.813C53.729 218.695 62.1951 216.245 69.652 211.957C83.7463 203.836 93.2678 188.961 94.0644 173.781C94.8767 158.428 87.4325 144.107 79.0772 131.213Z" fill="#006838" fill-opacity="0.2"/>
</g>
</g>
</g>
</g>
<mask id="mask16_12_5754" style="mask-type:luminance" maskUnits="userSpaceOnUse" x="32" y="177" width="75" height="67">
<path d="M94.254 177.395L106.842 228.351L45.4513 243.08L32.863 192.125L94.254 177.395Z" fill="white"/>
</mask>
<g mask="url(#mask16_12_5754)">
<mask id="mask17_12_5754" style="mask-type:luminance" maskUnits="userSpaceOnUse" x="39" y="135" width="58" height="111">
<path d="M39.9776 135.642L93.1346 140.398L96.4997 245.812L43.3428 241.055L39.9776 135.642Z" fill="white"/>
</mask>
<g mask="url(#mask17_12_5754)">
<mask id="mask18_12_5754" style="mask-type:luminance" maskUnits="userSpaceOnUse" x="39" y="135" width="58" height="111">
<path d="M39.9387 135.579L93.0255 140.411L96.5387 245.874L43.4519 241.043L39.9387 135.579Z" fill="white"/>
</mask>
<g mask="url(#mask18_12_5754)">
<mask id="mask19_12_5754" style="mask-type:luminance" maskUnits="userSpaceOnUse" x="39" y="135" width="58" height="111">
<path d="M39.9282 135.562L92.9961 140.414L96.5491 245.891L43.4813 241.039L39.9282 135.562Z" fill="white"/>
</mask>
<g mask="url(#mask19_12_5754)">
<mask id="mask20_12_5754" style="mask-type:luminance" maskUnits="userSpaceOnUse" x="46" y="178" width="48" height="64">
<path d="M83.553 206.042C79.5508 209.911 74.5859 212.141 69.6263 214.141C64.6764 216.155 59.6156 218.03 55.2515 221.315C55.2135 221.34 55.1773 221.372 55.1513 221.394C49.9453 225.349 46.7857 232.161 46.443 239.923C46.4194 240.456 46.3999 240.98 46.3882 241.51C47.4164 235.239 51.0972 230.32 55.4614 227.035C59.8297 223.741 64.8864 221.875 69.8362 219.861C74.7861 217.847 79.7648 215.622 83.7611 211.754C91.4301 204.339 94.5773 191.439 93.442 178.79C93.3082 189.486 90.055 199.735 83.553 206.042Z" fill="white"/>
</mask>
<g mask="url(#mask20_12_5754)">
<path d="M103.91 179.932L106.227 246.848L35.919 240.368L33.602 173.452L103.91 179.932Z" fill="#007931" fill-opacity="0.2"/>
</g>
</g>
</g>
</g>
</g>
<mask id="mask21_12_5754" style="mask-type:luminance" maskUnits="userSpaceOnUse" x="32" y="217" width="77" height="80">
<path d="M76.0025 217.335L108.081 266.494L64.9415 296.477L32.8632 247.318L76.0025 217.335Z" fill="white"/>
</mask>
<g mask="url(#mask21_12_5754)">
<mask id="mask22_12_5754" style="mask-type:luminance" maskUnits="userSpaceOnUse" x="49" y="217" width="49" height="78">
<path d="M49.9897 218.929L88.2698 217.355L97.4643 293.389L59.1907 294.959L49.9897 218.929Z" fill="white"/>
</mask>
<g mask="url(#mask22_12_5754)">
<mask id="mask23_12_5754" style="mask-type:luminance" maskUnits="userSpaceOnUse" x="49" y="217" width="49" height="78">
<path d="M49.9896 218.929L88.2697 217.355L97.4642 293.389L59.1906 294.959L49.9896 218.929Z" fill="white"/>
</mask>
<g mask="url(#mask23_12_5754)">
<mask id="mask24_12_5754" style="mask-type:luminance" maskUnits="userSpaceOnUse" x="49" y="217" width="49" height="78">
<path d="M49.9896 218.929L88.2697 217.355L97.4642 293.389L59.1906 294.959L49.9896 218.929Z" fill="white"/>
</mask>
<g mask="url(#mask24_12_5754)">
<mask id="mask25_12_5754" style="mask-type:luminance" maskUnits="userSpaceOnUse" x="56" y="217" width="36" height="78">
<path d="M89.6277 243.056C86.7653 233.935 81.3688 225.824 76.0606 217.877C77.169 222.549 76.065 227.353 74.006 231.328C71.9535 235.298 69.0102 238.568 66.1652 241.887C63.3267 245.202 60.5264 248.661 58.8463 252.856C56.4372 258.835 55.6539 265.992 56.6094 272.638C57.6313 279.689 60.5274 286.307 64.5584 292.34C64.8926 292.837 66.1888 294.448 66.2637 294.707C64.3306 287.227 64.7501 279.282 67.4287 272.547C69.2966 267.846 72.1799 263.791 74.5426 259.401C76.9005 255.004 78.7726 250.021 78.308 244.719C77.303 251.536 71.3643 255.599 67.8404 261.14C64.4612 266.44 61.718 274.015 63.1081 280.692C59.5899 273.207 59.9334 263.587 63.159 256.622C65.2458 252.112 69.6409 248.628 72.6075 244.773C75.5724 240.931 78.2583 236.531 78.6754 231.367C81.0153 236.815 83.3873 242.326 84.5109 248.104C85.641 253.877 85.4367 260.031 82.8285 264.839C80.4952 269.144 76.5081 271.969 73.0975 275.316C69.6999 278.654 66.6679 283.145 67.1571 288.354C71.4081 279.828 81.7796 277.247 87.2906 269.67C92.4214 262.637 92.4837 252.181 89.6277 243.056Z" fill="white"/>
</mask>
<g mask="url(#mask25_12_5754)">
<path d="M101.7 216.713L110.934 292.994L40.6039 295.882L31.3769 219.597L101.7 216.713Z" fill="#7AAE40" fill-opacity="0.3"/>
</g>
</g>
</g>
</g>
</g>
<defs>
<linearGradient id="paint0_linear_12_5754" x1="142.96" y1="270.252" x2="115.376" y2="140.871" gradientUnits="userSpaceOnUse">
<stop stop-color="#7EB341"/>
<stop offset="0.125" stop-color="#7EB341"/>
<stop offset="0.25" stop-color="#7DB241"/>
<stop offset="0.375" stop-color="#7DB141"/>
<stop offset="0.5" stop-color="#7CB141"/>
<stop offset="0.625" stop-color="#7BB041"/>
<stop offset="0.75" stop-color="#7BAF40"/>
<stop offset="0.875" stop-color="#7AAE40"/>
<stop offset="1" stop-color="#7AAE40"/>
</linearGradient>
<linearGradient id="paint1_linear_12_5754" x1="142.96" y1="270.252" x2="115.376" y2="140.871" gradientUnits="userSpaceOnUse">
<stop stop-color="#7EB341"/>
<stop offset="0.125" stop-color="#7EB341"/>
<stop offset="0.25" stop-color="#7DB241"/>
<stop offset="0.375" stop-color="#7DB141"/>
<stop offset="0.5" stop-color="#7CB141"/>
<stop offset="0.625" stop-color="#7BB041"/>
<stop offset="0.75" stop-color="#7BAF40"/>
<stop offset="0.875" stop-color="#7AAE40"/>
<stop offset="1" stop-color="#7AAE40"/>
</linearGradient>
</defs>
</svg>
