<svg width="252" height="468" viewBox="0 0 252 468" fill="none" xmlns="http://www.w3.org/2000/svg">
<mask id="mask0_3_14759" style="mask-type:luminance" maskUnits="userSpaceOnUse" x="0" y="41" width="174" height="261">
<path d="M0 41.0699H173.242V301.655H0V41.0699Z" fill="white"/>
</mask>
<g mask="url(#mask0_3_14759)">
<mask id="mask1_3_14759" style="mask-type:luminance" maskUnits="userSpaceOnUse" x="-34" y="24" width="376" height="471">
<path d="M341.538 442.779L37.0898 494.614L-33.7842 76.0444L270.69 24.2094L341.538 442.779Z" fill="white"/>
</mask>
<g mask="url(#mask1_3_14759)">
<mask id="mask2_3_14759" style="mask-type:luminance" maskUnits="userSpaceOnUse" x="-34" y="24" width="376" height="471">
<path d="M341.538 442.779L37.0898 494.614L-33.7842 76.0444L270.69 24.2094L341.538 442.779Z" fill="white"/>
</mask>
<g mask="url(#mask2_3_14759)">
<mask id="mask3_3_14759" style="mask-type:luminance" maskUnits="userSpaceOnUse" x="-34" y="24" width="376" height="471">
<path d="M341.538 442.779L37.0898 494.614L-33.7842 76.0444L270.69 24.2094L341.538 442.779Z" fill="white"/>
</mask>
<g mask="url(#mask3_3_14759)">
<mask id="mask4_3_14759" style="mask-type:luminance" maskUnits="userSpaceOnUse" x="2" y="41" width="165" height="256">
<path d="M34.2511 196.235C48.4103 179.479 67.1244 167.212 85.8124 155.701C104.5 144.191 123.709 133.073 139.586 117.882C139.716 117.752 139.846 117.673 139.95 117.543C158.873 99.325 168.555 73.538 166.733 47.3333C166.603 45.5585 166.447 43.7837 166.291 41.9828C164.807 63.907 152.288 83.8737 136.411 99.064C120.534 114.254 101.351 125.373 82.611 136.883C63.9229 148.367 45.2349 160.608 31.0497 177.391C3.87655 209.546 -3.28113 255.613 6.37522 296.695C2.57515 260.885 11.1383 223.562 34.2511 196.235Z" fill="white"/>
</mask>
<g mask="url(#mask4_3_14759)">
<path d="M1.53552 325.117L-45.1846 49.1333L163.741 13.5587L210.462 289.543L1.53552 325.117Z" fill="url(#paint0_linear_3_14759)" fill-opacity="0.3"/>
</g>
</g>
</g>
</g>
</g>
<mask id="mask5_3_14759" style="mask-type:luminance" maskUnits="userSpaceOnUse" x="19" y="74" width="195" height="348">
<path d="M19.9902 74.4784H213.221V421.925H19.9902V74.4784Z" fill="white"/>
</mask>
<g mask="url(#mask5_3_14759)">
<mask id="mask6_3_14759" style="mask-type:luminance" maskUnits="userSpaceOnUse" x="-34" y="24" width="376" height="471">
<path d="M341.538 442.779L37.0898 494.614L-33.7842 76.0444L270.69 24.2094L341.538 442.779Z" fill="white"/>
</mask>
<g mask="url(#mask6_3_14759)">
<mask id="mask7_3_14759" style="mask-type:luminance" maskUnits="userSpaceOnUse" x="-34" y="24" width="376" height="471">
<path d="M341.538 442.779L37.0898 494.614L-33.7842 76.0444L270.69 24.2094L341.538 442.779Z" fill="white"/>
</mask>
<g mask="url(#mask7_3_14759)">
<mask id="mask8_3_14759" style="mask-type:luminance" maskUnits="userSpaceOnUse" x="-34" y="24" width="376" height="471">
<path d="M341.538 442.779L37.0898 494.614L-33.7842 76.0444L270.69 24.2094L341.538 442.779Z" fill="white"/>
</mask>
<g mask="url(#mask8_3_14759)">
<mask id="mask9_3_14759" style="mask-type:luminance" maskUnits="userSpaceOnUse" x="24" y="75" width="184" height="341">
<path d="M29.361 315.853C39.7201 354.925 64.8891 388.829 94.8472 415.947C82.8744 394.18 89.954 366.122 104.634 346.077C119.313 326.032 140.37 311.86 159.683 296.304C179.021 280.748 197.736 262.269 204.633 238.44C209.917 220.143 207.6 200.307 201.536 182.246C197.553 170.344 192.009 159.043 185.945 147.976C182.587 163.01 177.095 177.548 169.599 191.015C154.217 218.63 133.004 242.746 110.906 265.375C68.6371 308.649 67.8823 323.605 71.2399 349.809C62.8069 329.529 69.6522 305.674 81.8072 287.351C93.9622 269.029 110.88 254.439 125.196 237.761C163.144 193.547 182.197 133.621 176.757 75.6263C175.352 95.9323 163.769 114.49 149.037 128.558C134.279 142.652 116.476 152.961 99.1418 163.61C81.8072 174.285 64.4466 185.639 51.3285 201.221C25.1705 232.071 19.0019 276.755 29.361 315.853Z" fill="white"/>
</mask>
<g mask="url(#mask9_3_14759)">
<path d="M24.361 447.53L-36.9868 85.1542L204.578 44.0203L265.926 406.396L24.361 447.53Z" fill="url(#paint1_linear_3_14759)" fill-opacity="0.4"/>
</g>
</g>
</g>
</g>
</g>
<mask id="mask10_3_14759" style="mask-type:luminance" maskUnits="userSpaceOnUse" x="149" y="206" width="175" height="262">
<path d="M149.92 206.441H323.161V467.026H149.92V206.441Z" fill="white"/>
</mask>
<g mask="url(#mask10_3_14759)">
<mask id="mask11_3_14759" style="mask-type:luminance" maskUnits="userSpaceOnUse" x="-31" y="29" width="376" height="471">
<path d="M344.871 447.789L40.4228 499.624L-30.4512 81.0549L274.023 29.2198L344.871 447.789Z" fill="white"/>
</mask>
<g mask="url(#mask11_3_14759)">
<mask id="mask12_3_14759" style="mask-type:luminance" maskUnits="userSpaceOnUse" x="-31" y="29" width="376" height="471">
<path d="M344.871 447.789L40.4228 499.624L-30.4512 81.0549L274.023 29.2198L344.871 447.789Z" fill="white"/>
</mask>
<g mask="url(#mask12_3_14759)">
<mask id="mask13_3_14759" style="mask-type:luminance" maskUnits="userSpaceOnUse" x="-31" y="29" width="376" height="471">
<path d="M344.871 447.789L40.4228 499.624L-30.4512 81.0549L274.023 29.2198L344.871 447.789Z" fill="white"/>
</mask>
<g mask="url(#mask13_3_14759)">
<path d="M220.196 251.516C217.021 262.504 211.347 272.318 204.267 281.244C206.766 283.723 209.29 286.151 211.919 288.552C228.213 303.325 246.771 315.644 261.138 332.322C275.453 349 285.24 371.785 279.358 392.979C278.03 361.711 270.456 349.966 229.514 314.182C219.363 305.282 209.004 296.539 199.009 287.456C191.8 295.442 183.575 302.698 175.22 309.406C167.854 315.305 160.28 321.021 152.888 326.945C162.362 336.185 173.606 343.989 184.928 350.958C206.063 363.982 228.681 375.413 245.729 393.475C262.778 411.51 273.293 438.445 264.131 461.544C290.497 430.903 311.242 394.153 316.682 354.037C322.095 313.947 310.461 270.412 280.711 243.033C265.745 229.278 247.109 220.169 228.577 211.739C225.922 210.538 223.293 209.338 220.665 208.163C223.814 222.518 224.204 237.448 220.196 251.516Z" fill="#007931" fill-opacity="0.3"/>
</g>
</g>
</g>
</g>
<mask id="mask14_3_14759" style="mask-type:luminance" maskUnits="userSpaceOnUse" x="149" y="11" width="195" height="197">
<path d="M263.912 11.0004L343 129.943L229.01 207.436L149.922 88.4927L263.912 11.0004Z" fill="white"/>
</mask>
<g mask="url(#mask14_3_14759)">
<mask id="mask15_3_14759" style="mask-type:luminance" maskUnits="userSpaceOnUse" x="196" y="10" width="118" height="195">
<path d="M196.203 17.0172L295.654 10.0754L313.43 197.71L213.996 204.64L196.203 17.0172Z" fill="white"/>
</mask>
<g mask="url(#mask15_3_14759)">
<mask id="mask16_3_14759" style="mask-type:luminance" maskUnits="userSpaceOnUse" x="196" y="10" width="118" height="195">
<path d="M196.203 17.0174L295.655 10.0755L313.43 197.71L213.996 204.64L196.203 17.0174Z" fill="white"/>
</mask>
<g mask="url(#mask16_3_14759)">
<mask id="mask17_3_14759" style="mask-type:luminance" maskUnits="userSpaceOnUse" x="196" y="10" width="118" height="195">
<path d="M196.203 17.0174L295.655 10.0755L313.43 197.71L213.996 204.64L196.203 17.0174Z" fill="white"/>
</mask>
<g mask="url(#mask17_3_14759)">
<mask id="mask18_3_14759" style="mask-type:luminance" maskUnits="userSpaceOnUse" x="208" y="12" width="94" height="192">
<path d="M297.087 73.5083C290.407 51.1905 277.087 31.5698 263.983 12.3478C266.479 23.8081 263.238 35.769 257.591 45.7581C251.962 55.7355 244.082 64.0504 236.454 72.4804C228.843 80.8987 221.318 89.6728 216.635 100.175C209.922 115.145 207.323 132.898 209.266 149.25C211.347 166.597 218.315 182.725 228.266 197.317C229.091 198.521 232.317 202.4 232.491 203.035C228.085 184.699 229.805 165.026 237.276 148.165C242.485 136.397 250.272 126.147 256.738 115.108C263.192 104.051 268.435 91.5852 267.656 78.5166C264.51 95.4471 248.815 105.961 239.252 119.937C230.083 133.307 222.378 152.247 225.442 168.641C216.934 150.42 218.592 126.612 227.496 109.14C233.258 97.8274 244.912 88.8667 252.897 79.1038C260.878 69.3704 268.181 58.2812 269.673 45.4853C275.294 58.7655 280.993 72.2003 283.44 86.3929C285.904 100.574 284.884 115.8 277.749 127.891C271.366 138.718 260.821 146.016 251.727 154.561C242.666 163.082 234.46 174.422 235.31 187.26C246.994 165.849 274.044 158.644 288.912 139.479C302.754 121.687 303.75 95.8377 297.087 73.5083Z" fill="white"/>
</mask>
<g mask="url(#mask18_3_14759)">
<path d="M330.407 7.47094L348.207 195.23L166.008 207.945L148.226 20.1743L330.407 7.47094Z" fill="#7AAE40" fill-opacity="0.25"/>
</g>
</g>
</g>
</g>
</g>
<defs>
<linearGradient id="paint0_linear_3_14759" x1="109.444" y1="306.747" x2="62.4667" y2="30.795" gradientUnits="userSpaceOnUse">
<stop stop-color="#7DB141"/>
<stop offset="0.125" stop-color="#7CB141"/>
<stop offset="0.25" stop-color="#7CB041"/>
<stop offset="0.375" stop-color="#7BB041"/>
<stop offset="0.5" stop-color="#7BAF40"/>
<stop offset="0.625" stop-color="#7AAF40"/>
<stop offset="0.75" stop-color="#7AAE40"/>
<stop offset="0.875" stop-color="#7AAE40"/>
<stop offset="1" stop-color="#79AD40"/>
</linearGradient>
<linearGradient id="paint1_linear_3_14759" x1="146.011" y1="426.819" x2="84.3303" y2="64.4951" gradientUnits="userSpaceOnUse">
<stop stop-color="#7EB341"/>
<stop offset="0.125" stop-color="#7EB341"/>
<stop offset="0.25" stop-color="#7DB241"/>
<stop offset="0.375" stop-color="#7DB141"/>
<stop offset="0.5" stop-color="#7CB141"/>
<stop offset="0.625" stop-color="#7BB041"/>
<stop offset="0.75" stop-color="#7BAF40"/>
<stop offset="0.875" stop-color="#7AAE40"/>
<stop offset="1" stop-color="#7AAE40"/>
</linearGradient>
</defs>
</svg>
