<svg width="78" height="182" viewBox="0 0 78 182" fill="none" xmlns="http://www.w3.org/2000/svg">
<mask id="mask0_12_5883" style="mask-type:luminance" maskUnits="userSpaceOnUse" x="-57" y="15" width="68" height="103">
<path d="M-57 15.6929H10.6392V117.434H-57V15.6929Z" fill="white"/>
</mask>
<g mask="url(#mask0_12_5883)">
<mask id="mask1_12_5883" style="mask-type:luminance" maskUnits="userSpaceOnUse" x="-71" y="9" width="148" height="184">
<path d="M76.3477 172.533L-42.5189 192.771L-70.1904 29.348L48.6863 9.10992L76.3477 172.533Z" fill="white"/>
</mask>
<g mask="url(#mask1_12_5883)">
<mask id="mask2_12_5883" style="mask-type:luminance" maskUnits="userSpaceOnUse" x="-71" y="9" width="148" height="184">
<path d="M76.3477 172.533L-42.5189 192.771L-70.1904 29.348L48.6863 9.10992L76.3477 172.533Z" fill="white"/>
</mask>
<g mask="url(#mask2_12_5883)">
<mask id="mask3_12_5883" style="mask-type:luminance" maskUnits="userSpaceOnUse" x="-71" y="9" width="148" height="184">
<path d="M76.3477 172.533L-42.5189 192.771L-70.1904 29.348L48.6863 9.10992L76.3477 172.533Z" fill="white"/>
</mask>
<g mask="url(#mask3_12_5883)">
<mask id="mask4_12_5883" style="mask-type:luminance" maskUnits="userSpaceOnUse" x="-57" y="16" width="66" height="100">
<path d="M-43.6271 76.2744C-38.0989 69.7322 -30.7924 64.9427 -23.4959 60.4487C-16.1995 55.9548 -8.69987 51.6137 -2.50097 45.6829C-2.45016 45.6319 -2.39935 45.6013 -2.3587 45.5504C5.02918 38.4375 8.80949 28.3694 8.09814 18.1383C8.04733 17.4453 7.98636 16.7524 7.92538 16.0493C7.34615 24.6092 2.45816 32.4048 -3.74075 38.3356C-9.93965 44.2664 -17.4291 48.6075 -24.7459 53.1015C-32.0423 57.5852 -39.3387 62.3645 -44.8771 68.9169C-55.4864 81.4715 -58.281 99.4575 -54.5108 115.497C-55.9945 101.516 -52.6511 86.9437 -43.6271 76.2744Z" fill="white"/>
</mask>
<g mask="url(#mask4_12_5883)">
<path d="M-56.4004 126.594L-74.6414 18.8411L6.93007 4.9516L25.1711 112.705L-56.4004 126.594Z" fill="url(#paint0_linear_12_5883)" fill-opacity="0.3"/>
</g>
</g>
</g>
</g>
</g>
<mask id="mask5_12_5883" style="mask-type:luminance" maskUnits="userSpaceOnUse" x="-50" y="28" width="77" height="137">
<path d="M-49.1952 28.7367H26.2485V164.391H-49.1952V28.7367Z" fill="white"/>
</mask>
<g mask="url(#mask5_12_5883)">
<mask id="mask6_12_5883" style="mask-type:luminance" maskUnits="userSpaceOnUse" x="-71" y="9" width="148" height="184">
<path d="M76.3476 172.533L-42.5189 192.771L-70.1904 29.3481L48.6863 9.10999L76.3476 172.533Z" fill="white"/>
</mask>
<g mask="url(#mask6_12_5883)">
<mask id="mask7_12_5883" style="mask-type:luminance" maskUnits="userSpaceOnUse" x="-71" y="9" width="148" height="184">
<path d="M76.3476 172.533L-42.5189 192.771L-70.1904 29.3481L48.6863 9.10999L76.3476 172.533Z" fill="white"/>
</mask>
<g mask="url(#mask7_12_5883)">
<mask id="mask8_12_5883" style="mask-type:luminance" maskUnits="userSpaceOnUse" x="-71" y="9" width="148" height="184">
<path d="M76.3476 172.533L-42.5189 192.771L-70.1904 29.3481L48.6863 9.10999L76.3476 172.533Z" fill="white"/>
</mask>
<g mask="url(#mask8_12_5883)">
<mask id="mask9_12_5883" style="mask-type:luminance" maskUnits="userSpaceOnUse" x="-48" y="29" width="73" height="134">
<path d="M-45.5365 122.977C-41.492 138.232 -31.6652 151.469 -19.9686 162.057C-24.6431 153.558 -21.879 142.604 -16.1476 134.778C-10.4161 126.951 -2.19498 121.418 5.34533 115.345C12.8958 109.271 20.2024 102.056 22.8953 92.7524C24.9583 85.609 24.0538 77.8643 21.686 70.8126C20.1312 66.1657 17.9667 61.7533 15.5989 57.4326C14.288 63.3023 12.1438 68.9783 9.2171 74.2365C3.21128 85.0179 -5.07086 94.4339 -13.6985 103.269C-30.2018 120.165 -30.4965 126.004 -29.1856 136.235C-32.4782 128.317 -29.8055 119.003 -25.0598 111.849C-20.3141 104.696 -13.7087 98.9991 -8.1195 92.4875C6.6969 75.225 14.1356 51.8279 12.0117 29.1849C11.4629 37.113 6.94078 44.3583 1.18901 49.851C-4.57292 55.3538 -11.5238 59.379 -18.2918 63.5366C-25.0598 67.7045 -31.8379 72.1373 -36.9597 78.221C-47.1726 90.266 -49.581 107.712 -45.5365 122.977Z" fill="white"/>
</mask>
<g mask="url(#mask9_12_5883)">
<path d="M-47.4886 174.388L-71.4408 32.9049L22.874 16.8449L46.8262 158.328L-47.4886 174.388Z" fill="url(#paint1_linear_12_5883)" fill-opacity="0.4"/>
</g>
</g>
</g>
</g>
</g>
<mask id="mask10_12_5883" style="mask-type:luminance" maskUnits="userSpaceOnUse" x="1" y="80" width="69" height="102">
<path d="M1.53357 80.2593H69.1728V182H1.53357V80.2593Z" fill="white"/>
</mask>
<g mask="url(#mask10_12_5883)">
<mask id="mask11_12_5883" style="mask-type:luminance" maskUnits="userSpaceOnUse" x="-69" y="11" width="147" height="184">
<path d="M77.649 174.489L-41.2175 194.727L-68.889 31.3044L49.9877 11.0663L77.649 174.489Z" fill="white"/>
</mask>
<g mask="url(#mask11_12_5883)">
<mask id="mask12_12_5883" style="mask-type:luminance" maskUnits="userSpaceOnUse" x="-69" y="11" width="147" height="184">
<path d="M77.649 174.489L-41.2175 194.727L-68.889 31.3044L49.9877 11.0663L77.649 174.489Z" fill="white"/>
</mask>
<g mask="url(#mask12_12_5883)">
<mask id="mask13_12_5883" style="mask-type:luminance" maskUnits="userSpaceOnUse" x="-69" y="11" width="147" height="184">
<path d="M77.649 174.489L-41.2175 194.727L-68.889 31.3044L49.9877 11.0663L77.649 174.489Z" fill="white"/>
</mask>
<g mask="url(#mask13_12_5883)">
<path d="M28.9718 97.8577C27.732 102.148 25.5167 105.979 22.7526 109.465C23.7281 110.433 24.7139 111.38 25.7402 112.318C32.1017 118.086 39.3473 122.895 44.9568 129.407C50.546 135.919 54.367 144.815 52.0703 153.09C51.5521 140.882 48.5949 136.296 32.6098 122.325C28.6466 118.85 24.6021 115.436 20.6998 111.89C17.8849 115.008 14.6737 117.841 11.4116 120.46C8.53573 122.763 5.57855 124.995 2.6925 127.308C6.39153 130.915 10.7816 133.962 15.2021 136.683C23.4538 141.768 32.2847 146.231 38.9409 153.283C45.5971 160.325 49.7026 170.841 46.1255 179.86C56.4197 167.896 64.519 153.548 66.6428 137.886C68.7566 122.233 64.2141 105.236 52.5988 94.5459C46.7555 89.1755 39.4795 85.6191 32.244 82.3276C31.2075 81.8588 30.1811 81.3901 29.1547 80.9315C30.3843 86.5362 30.5368 92.3651 28.9718 97.8577Z" fill="#007931" fill-opacity="0.3"/>
</g>
</g>
</g>
</g>
<mask id="mask14_12_5883" style="mask-type:luminance" maskUnits="userSpaceOnUse" x="1" y="3" width="76" height="78">
<path d="M46.0397 3.95282L76.9184 50.392L32.4131 80.6475L1.53441 34.2084L46.0397 3.95282Z" fill="white"/>
</mask>
<g mask="url(#mask14_12_5883)">
<mask id="mask15_12_5883" style="mask-type:luminance" maskUnits="userSpaceOnUse" x="19" y="3" width="47" height="77">
<path d="M19.6039 6.30201L58.4331 3.5917L65.3733 76.8504L26.5508 79.5561L19.6039 6.30201Z" fill="white"/>
</mask>
<g mask="url(#mask15_12_5883)">
<mask id="mask16_12_5883" style="mask-type:luminance" maskUnits="userSpaceOnUse" x="19" y="3" width="47" height="77">
<path d="M19.6039 6.30215L58.4332 3.59182L65.3734 76.8505L26.5508 79.5563L19.6039 6.30215Z" fill="white"/>
</mask>
<g mask="url(#mask16_12_5883)">
<mask id="mask17_12_5883" style="mask-type:luminance" maskUnits="userSpaceOnUse" x="19" y="3" width="47" height="77">
<path d="M19.6039 6.30215L58.4332 3.59182L65.3734 76.8505L26.5508 79.5563L19.6039 6.30215Z" fill="white"/>
</mask>
<g mask="url(#mask17_12_5883)">
<mask id="mask18_12_5883" style="mask-type:luminance" maskUnits="userSpaceOnUse" x="24" y="4" width="37" height="75">
<path d="M58.9923 28.3581C56.3841 19.6445 51.1837 11.984 46.0674 4.47905C47.0418 8.95356 45.7764 13.6235 43.5718 17.5235C41.3739 21.419 38.2976 24.6655 35.3192 27.9568C32.3475 31.2436 29.4099 34.6693 27.5813 38.7697C24.9603 44.6144 23.9456 51.5456 24.704 57.93C25.5168 64.7029 28.2371 70.9998 32.1224 76.6971C32.4446 77.167 33.7041 78.6816 33.7718 78.9295C32.0516 71.7704 32.7233 64.0896 35.64 57.5067C37.6741 52.912 40.7142 48.91 43.2387 44.6C45.7585 40.283 47.8057 35.4159 47.5016 30.3135C46.2734 36.9237 40.1455 41.0289 36.4117 46.4853C32.8317 51.7054 29.8234 59.1002 31.0199 65.5009C27.6981 58.387 28.3452 49.0916 31.8219 42.2699C34.0714 37.8531 38.6213 34.3545 41.7393 30.5428C44.8553 26.7425 47.7066 22.4129 48.2891 17.417C50.4838 22.602 52.7089 27.8474 53.6642 33.3887C54.6262 38.9254 54.2279 44.8701 51.4422 49.5907C48.9501 53.8179 44.833 56.6675 41.2822 60.0035C37.7447 63.3305 34.5408 67.7579 34.8727 72.7705C39.4343 64.4109 49.9955 61.598 55.8007 54.1153C61.2048 47.1688 61.5937 37.0763 58.9923 28.3581Z" fill="white"/>
</mask>
<g mask="url(#mask18_12_5883)">
<path d="M72.0017 2.57499L78.9513 75.8824L7.81495 80.8467L0.872001 7.5348L72.0017 2.57499Z" fill="#7AAE40" fill-opacity="0.25"/>
</g>
</g>
</g>
</g>
</g>
<defs>
<linearGradient id="paint0_linear_12_5883" x1="-14.2696" y1="119.422" x2="-32.6109" y2="11.6812" gradientUnits="userSpaceOnUse">
<stop stop-color="#7DB141"/>
<stop offset="0.125" stop-color="#7CB141"/>
<stop offset="0.25" stop-color="#7CB041"/>
<stop offset="0.375" stop-color="#7BB041"/>
<stop offset="0.5" stop-color="#7BAF40"/>
<stop offset="0.625" stop-color="#7AAF40"/>
<stop offset="0.75" stop-color="#7AAE40"/>
<stop offset="0.875" stop-color="#7AAE40"/>
<stop offset="1" stop-color="#79AD40"/>
</linearGradient>
<linearGradient id="paint1_linear_12_5883" x1="0.00737941" y1="166.302" x2="-24.0746" y2="24.839" gradientUnits="userSpaceOnUse">
<stop stop-color="#7EB341"/>
<stop offset="0.125" stop-color="#7EB341"/>
<stop offset="0.25" stop-color="#7DB241"/>
<stop offset="0.375" stop-color="#7DB141"/>
<stop offset="0.5" stop-color="#7CB141"/>
<stop offset="0.625" stop-color="#7BB041"/>
<stop offset="0.75" stop-color="#7BAF40"/>
<stop offset="0.875" stop-color="#7AAE40"/>
<stop offset="1" stop-color="#7AAE40"/>
</linearGradient>
</defs>
</svg>
