<svg width="169" height="840" viewBox="0 0 169 840" fill="none" xmlns="http://www.w3.org/2000/svg">
<mask id="mask0_3_15254" style="mask-type:luminance" maskUnits="userSpaceOnUse" x="-147" y="382" width="182" height="336">
<path d="M-145.94 386.507L34.3888 382.51L33.4093 713.266L-146.92 717.263L-145.94 386.507Z" fill="white"/>
</mask>
<g mask="url(#mask0_3_15254)">
<mask id="mask1_3_15254" style="mask-type:luminance" maskUnits="userSpaceOnUse" x="-201" y="334" width="362" height="460">
<path d="M160.174 731.119L-125.228 793.297L-200.627 396.271L84.7751 334.094L160.174 731.119Z" fill="white"/>
</mask>
<g mask="url(#mask1_3_15254)">
<mask id="mask2_3_15254" style="mask-type:luminance" maskUnits="userSpaceOnUse" x="-201" y="333" width="362" height="461">
<path d="M160.024 731.806L-125.265 793.463L-200.477 395.585L84.8112 333.928L160.024 731.806Z" fill="white"/>
</mask>
<g mask="url(#mask2_3_15254)">
<mask id="mask3_3_15254" style="mask-type:luminance" maskUnits="userSpaceOnUse" x="-201" y="333" width="361" height="461">
<path d="M159.866 732.41L-125.303 793.61L-200.319 394.981L84.8495 333.781L159.866 732.41Z" fill="white"/>
</mask>
<g mask="url(#mask3_3_15254)">
<mask id="mask4_3_15254" style="mask-type:luminance" maskUnits="userSpaceOnUse" x="-142" y="387" width="172" height="330">
<path d="M-136.14 622.676C-125.619 659.732 -101.358 691.25 -72.7219 716.131C-84.3708 695.735 -78.2795 668.604 -64.87 648.889C-51.5044 629.196 -32.0183 614.855 -14.1945 599.284C3.62944 583.69 20.8514 565.331 26.8366 542.251C31.4371 524.537 28.8668 505.647 22.8209 488.573C18.8556 477.309 13.439 466.713 7.5385 456.348C4.66415 470.862 -0.205324 484.956 -6.97991 498.136C-20.8611 525.129 -40.3022 548.955 -60.593 571.428C-99.3881 614.381 -99.8257 628.704 -96.1416 653.685C-104.482 634.562 -98.5193 611.505 -87.4657 593.523C-76.4121 575.54 -60.8311 560.939 -47.6995 544.471C-12.9829 500.792 3.73743 442.733 -2.5312 387.408C-3.43096 406.906 -13.9368 425.082 -27.4961 439.073C-41.0557 453.108 -57.5618 463.605 -73.6088 474.454C-89.6995 485.281 -105.749 496.778 -117.757 512.157C-141.705 542.645 -146.594 585.619 -136.14 622.676Z" fill="white"/>
</mask>
<g mask="url(#mask4_3_15254)">
<path d="M-140.921 751.706L-206.469 401.929L25.7585 352.403L91.3065 702.202L-140.921 751.706Z" fill="url(#paint0_linear_3_15254)" fill-opacity="0.3"/>
</g>
</g>
</g>
</g>
<mask id="mask5_3_15254" style="mask-type:luminance" maskUnits="userSpaceOnUse" x="-201" y="334" width="362" height="460">
<path d="M160.174 731.119L-125.228 793.297L-200.627 396.271L84.7751 334.094L160.174 731.119Z" fill="white"/>
</mask>
<g mask="url(#mask5_3_15254)">
<mask id="mask6_3_15254" style="mask-type:luminance" maskUnits="userSpaceOnUse" x="-201" y="333" width="362" height="461">
<path d="M160.024 731.806L-125.265 793.463L-200.477 395.585L84.8112 333.928L160.024 731.806Z" fill="white"/>
</mask>
<g mask="url(#mask6_3_15254)">
<mask id="mask7_3_15254" style="mask-type:luminance" maskUnits="userSpaceOnUse" x="-201" y="333" width="361" height="461">
<path d="M159.866 732.41L-125.303 793.61L-200.319 394.981L84.8495 333.781L159.866 732.41Z" fill="white"/>
</mask>
<g mask="url(#mask7_3_15254)">
<mask id="mask8_3_15254" style="mask-type:luminance" maskUnits="userSpaceOnUse" x="-142" y="387" width="172" height="330">
<path d="M-136.14 622.676C-125.619 659.732 -101.358 691.25 -72.7219 716.131C-84.3708 695.735 -78.2795 668.604 -64.87 648.889C-51.5044 629.196 -32.0183 614.855 -14.1945 599.284C3.62944 583.69 20.8514 565.331 26.8366 542.251C31.4371 524.537 28.8668 505.647 22.8209 488.573C18.8556 477.309 13.439 466.713 7.5385 456.348C4.66415 470.862 -0.205324 484.956 -6.97991 498.136C-20.8611 525.129 -40.3022 548.955 -60.593 571.428C-99.3881 614.381 -99.8257 628.704 -96.1416 653.685C-104.482 634.562 -98.5193 611.505 -87.4657 593.523C-76.4121 575.54 -60.8311 560.939 -47.6995 544.471C-12.9829 500.792 3.73743 442.733 -2.5312 387.408C-3.43096 406.906 -13.9368 425.082 -27.4961 439.073C-41.0557 453.108 -57.5618 463.605 -73.6088 474.454C-89.6995 485.281 -105.749 496.778 -117.757 512.157C-141.705 542.645 -146.594 585.619 -136.14 622.676Z" fill="white"/>
</mask>
<g mask="url(#mask8_3_15254)">
<path d="M-140.921 751.706L-206.469 401.929L25.7585 352.403L91.3065 702.202L-140.921 751.706Z" fill="url(#paint1_linear_3_15254)" fill-opacity="0.3"/>
</g>
</g>
</g>
</g>
</g>
<mask id="mask9_3_15254" style="mask-type:luminance" maskUnits="userSpaceOnUse" x="-69" y="497" width="236" height="341">
<path d="M-30.8875 497.626L167 519.141L128.98 837.89L-68.9073 816.375L-30.8875 497.626Z" fill="white"/>
</mask>
<g mask="url(#mask9_3_15254)">
<mask id="mask10_3_15254" style="mask-type:luminance" maskUnits="userSpaceOnUse" x="-224" y="297" width="382" height="556">
<path d="M157.67 815.382L-194.697 852.046L-223.29 334.436L129.078 297.771L157.67 815.382Z" fill="white"/>
</mask>
<g mask="url(#mask10_3_15254)">
<mask id="mask11_3_15254" style="mask-type:luminance" maskUnits="userSpaceOnUse" x="-222" y="296" width="378" height="558">
<path d="M155.648 815.189L-195.187 853.268L-221.267 334.628L129.567 296.55L155.648 815.189Z" fill="white"/>
</mask>
<g mask="url(#mask11_3_15254)">
<mask id="mask12_3_15254" style="mask-type:luminance" maskUnits="userSpaceOnUse" x="-221" y="295" width="376" height="559">
<path d="M154.444 815.079L-195.478 853.967L-220.063 334.739L129.859 295.85L154.444 815.079Z" fill="white"/>
</mask>
<g mask="url(#mask12_3_15254)">
<path d="M44.6371 565.155C39.6631 578.318 32.0134 589.888 22.9118 600.218C25.4015 603.438 27.8949 606.63 30.5263 609.777C46.8601 629.148 66.0438 645.742 79.9491 667.298C93.8282 688.852 101.81 717.472 92.4253 742.931C95.0527 704.592 88.0933 689.612 46.8825 642.546C36.6927 630.827 26.2118 619.31 16.2085 607.378C7.09541 616.581 -3.07396 624.755 -13.3181 632.287C-22.3312 638.901 -31.5757 645.262 -40.6187 651.902C-31.2198 664.005 -19.646 674.446 -7.8635 683.898C14.0966 701.517 37.9592 717.332 54.6859 740.784C71.4387 764.239 79.6944 798.054 66.396 825.521C99.9571 790.186 128.016 746.944 139.364 698.353C150.687 649.759 143.347 595.565 113.583 559.708C98.6119 541.655 78.9367 529.026 59.2357 517.203C56.4404 515.512 53.6452 513.82 50.8425 512.186C52.4855 529.988 50.9943 548.289 44.6371 565.155Z" fill="#007931" fill-opacity="0.2"/>
</g>
</g>
</g>
</g>
<mask id="mask13_3_15254" style="mask-type:luminance" maskUnits="userSpaceOnUse" x="-230" y="0" width="318" height="478">
<path d="M6.35593 477.943L-229.256 430.262L-148.319 0L87.3202 47.6812L6.35593 477.943Z" fill="white"/>
</mask>
<g mask="url(#mask13_3_15254)">
<mask id="mask14_3_15254" style="mask-type:luminance" maskUnits="userSpaceOnUse" x="-232" y="-1" width="318" height="479">
<path d="M-231.08 429.896L4.53146 477.549L85.4685 47.2872L-150.143 -0.365677L-231.08 429.896Z" fill="white"/>
</mask>
<g mask="url(#mask14_3_15254)">
<mask id="mask15_3_15254" style="mask-type:luminance" maskUnits="userSpaceOnUse" x="-187" y="32" width="242" height="423">
<path d="M42.7074 249.237C31.9904 275.284 15.4921 298.163 -1.57886 320.307C11.4834 299.351 12.6015 271.098 7.03844 246.239C0.493668 217.082 -13.6867 190.498 -22.9857 162.161C-32.312 133.852 -36.3752 101.414 -22.9312 74.9153C-41.611 96.55 -42.7836 129.327 -35.748 157.41C-28.7397 185.493 -14.8047 211.256 -6.29654 238.915C2.21167 266.602 4.66595 298.587 -10.3325 323.135C-7.63277 294.797 -20.4223 267.45 -34.7936 243.213C-49.1648 218.92 -65.7176 195.193 -71.9351 167.45C-80.8524 127.687 -64.7086 83.4278 -33.5392 58.7671C-53.3643 71.2954 -69.0718 90.7525 -77.4164 113.264C-86.3609 137.444 -86.7154 164.904 -78.3981 189.339C-71.7715 208.852 -60.0182 225.962 -48.4285 242.789C-36.8933 259.673 -25.2491 276.867 -18.8407 296.466C-12.4323 316.036 -11.9414 338.717 -22.1403 356.449C-16.55 330.007 -28.0852 302.801 -43.1382 280.742C-58.2184 258.655 -77.171 239.311 -89.6878 215.583C-111.531 174.18 -110.877 120.956 -87.9426 80.1755C-123.475 100.142 -146.682 139.537 -153.145 180.883C-159.553 222.229 -150.527 265.018 -133.074 302.773C-155.272 233.513 -147.2 171.494 -113.931 132.523C-113.931 132.523 -125.684 172.936 -104.986 215.244C-92.5239 240.64 -67.6538 270.985 -68.3083 299.492C-68.9627 327.094 -85.5428 353.451 -95.7145 378.932C-105.913 404.47 -122.63 430.516 -109.431 454.47C-136.756 414.792 -164.135 373.898 -177.66 327.207C-196.368 262.671 -185.896 189.735 -149.9 133.626C-113.903 77.5454 -53.0917 39.3666 11.538 32.353C0.766357 42.9299 -1.96063 60.1528 1.25722 75.085C4.50233 90.102 12.8469 103.309 21.6278 115.696C30.4087 128.083 39.8714 140.159 45.9798 154.129C58.9603 183.881 55.0334 219.203 42.7074 249.237Z" fill="white"/>
</mask>
<g mask="url(#mask15_3_15254)">
<path d="M49.6065 504.249L135.479 47.8561L-187.014 -17.3874L-272.86 439.006L49.6065 504.249Z" fill="#74A740" fill-opacity="0.3"/>
</g>
</g>
</g>
<defs>
<linearGradient id="paint0_linear_3_15254" x1="-24.1308" y1="726.82" x2="-98.3138" y2="378.862" gradientUnits="userSpaceOnUse">
<stop stop-color="#7EB341"/>
<stop offset="0.125" stop-color="#7EB341"/>
<stop offset="0.25" stop-color="#7DB241"/>
<stop offset="0.375" stop-color="#7DB141"/>
<stop offset="0.5" stop-color="#7CB141"/>
<stop offset="0.625" stop-color="#7BB041"/>
<stop offset="0.75" stop-color="#7BAF40"/>
<stop offset="0.875" stop-color="#7AAE40"/>
<stop offset="1" stop-color="#7AAE40"/>
</linearGradient>
<linearGradient id="paint1_linear_3_15254" x1="-24.1308" y1="726.82" x2="-98.3138" y2="378.862" gradientUnits="userSpaceOnUse">
<stop stop-color="#7EB341"/>
<stop offset="0.125" stop-color="#7EB341"/>
<stop offset="0.25" stop-color="#7DB241"/>
<stop offset="0.375" stop-color="#7DB141"/>
<stop offset="0.5" stop-color="#7CB141"/>
<stop offset="0.625" stop-color="#7BB041"/>
<stop offset="0.75" stop-color="#7BAF40"/>
<stop offset="0.875" stop-color="#7AAE40"/>
<stop offset="1" stop-color="#7AAE40"/>
</linearGradient>
</defs>
</svg>
